1690  3  0  0
   1    -1  0.375  0.25
   2    -1  -0.25  -0.375
   3    1  0.25  -0.375
   4    0.25  1  -0.625
   5    -0.75  1  0.375
   6    -0.375  1  0.625
   7    0.75  0.625  1
   8    0.375  -0.75  1
   9    -0.75  -0.625  1
  10    -1  -0.75  0.375
  11    -1  -0.75  -0.625
  12    -0.375  -1  -0.625
  13    0.75  -1  -0.625
  14    1  0.625  -0.75
  15    1  0.625  0.25
  16    1  0.375  0.75
  17    -0.625  0.625  -1
  18    0.375  0.625  -1
  19    0.625  -0.625  -1
  20    -0.625  1  -0.25
  21    0.125  1  0.25
  22    0.125  1  0.625
  23    0.625  0.125  1
  24    -0.125  -0.25  1
  25    -0.625  -0.25  1
  26    -0.125  -0.625  1
  27    -1  0.125  0.625
  28    -1  0.75  0.125
  29    -1  0.25  0.125
  30    -1  0.125  0.125
  31    -1  -0.25  -0.625
  32    -0.25  -1  0.125
  33    -0.75  -1  0.125
  34    1  -0.25  0.625
  35    1  -0.625  0.125
  36    -0.25  0.125  -1
  37    0.25  -0.125  -1
  38    0.75  -0.125  -1
  39    0.125  1  -0.875
  40    0.125  1  -0.375
  41    0.25  1  -0.375
  42    -0.875  1  0.125
  43    -0.875  1  0.75
  44    0.75  1  -0.625
  45    0.875  1  -0.75
  46    -0.75  1  0.875
  47    0.375  1  0.75
  48    0.75  1  0.875
  49    0.875  1  0.75
  50    0.25  0.875  1
  51    -0.125  0.375  1
  52    0.125  -0.75  1
  53    -0.875  0.75  1
  54    -0.875  0.25  1
  55    -0.75  -0.375  1
  56    -1  -0.875  0.75
  57    -1  -0.375  0.25
  58    -1  -0.875  0.125
  59    -1  0.125  -0.375
  60    -1  0.25  -0.875
  61    -1  0.125  -0.75
  62    -0.625  -1  -0.75
  63    -0.125  -1  -0.875
  64    0.375  -1  -0.875
  65    0.375  -1  -0.75
  66    0.25  -1  -0.875
  67    0.875  -1  0.25
  68    0.875  -1  0.75
  69    -0.875  -1  0.875
  70    1  -0.125  -0.75
  71    1  0.875  -0.75
  72    1  0.875  0.125
  73    1  0.875  0.25
  74    1  -0.75  -0.625
  75    1  -0.875  -0.25
  76    1  0.25  0.875
  77    0.125  0.375  -1
  78    0.875  0.625  -1
  79    0.875  0.25  -1
  80    0.875  -0.375  -1
  81    -0.375  1  -0.375
  82    -0.125  1  -0.5
  83    0.25  1  0.375
  84    0.5  1  0.375
  85    0.375  1  0.25
  86    0.5  0.125  1
  87    -0.5  -0.375  1
  88    -1  -0.375  -0.5
  89    -1  -0.375  -0.25
  90    -1  -0.5  -0.125
  91    0.375  -1  -0.375
  92    0.5  -1  -0.125
  93    -0.125  -1  0.5
  94    1  0.375  -0.5
  95    1  0.375  -0.125
  96    1  0.375  -0.25
  97    1  -0.25  0.375
  98    1  -0.375  0.375
  99    1  -0.375  0.25
 100    1  -0.5  0.125
 101    -0.375  0.375  -1
 102    -0.5  0.375  -1
 103    -0.375  0.25  -1
 104    0.375  -0.5  -1
 105    0.375  1  -0.625
 106    -0.625  1  -0.75
 107    -0.875  1  -0.5
 108    -0.625  1  -0.625
 109    -0.625  1  0.5
 110    -0.375  1  0.75
 111    -0.25  1  0.625
 112    0.875  1  0.625
 113    0.875  -0.375  1
 114    0.5  -0.125  1
 115    0.625  -0.375  1
 116    0.5  -0.375  1
 117    0.875  0.5  1
 118    0.625  0.625  1
 119    0.5  0.625  1
 120    0.125  -0.625  1
 121    0.375  -0.875  1
 122    -0.625  -0.75  1
 123    -0.625  -0.875  1
 124    -0.5  -0.875  1
 125    -1  -0.5  0.875
 126    -1  -0.125  0.5
 127    -1  -0.25  0.625
 128    -1  0.75  0.625
 129    -1  0.625  -0.125
 130    -1  0.5  -0.125
 131    -1  0.875  -0.375
 132    -1  -0.5  0.375
 133    -1  0.5  -0.625
 134    -1  0.375  -0.625
 135    -1  0.375  -0.75
 136    -1  0.25  -0.625
 137    -1  -0.625  -0.625
 138    0.875  -1  -0.625
 139    0.625  -1  0.25
 140    0.5  -1  0.125
 141    0.875  -1  0.5
 142    -0.625  -1  -0.375
 143    0.5  -1  0.625
 144    0.375  -1  0.75
 145    0.125  -1  0.5
 146    -0.75  -1  0.625
 147    1  -0.375  -0.625
 148    1  0.625  -0.875
 149    1  0.5  0.625
 150    1  0.125  0.625
 151    1  -0.625  0.875
 152    -0.875  -0.5  -1
 153    -0.75  0.625  -1
 154    -0.5  0.875  -1
 155    0.5  0.625  -1
 156    -0.25  -0.625  -1
 157    -0.375  -0.75  -1
 158    0.625  0.5  -1
 159    0.625  0.375  -1
 160    0.75  0.375  -1
 161    0.625  0.25  -1
 162    0.625  0.125  -1
 163    -0.125  1  -0.875
 164    0  1  -0.625
 165    -0.625  1  -0.125
 166    -0.625  1  0
 167    0  1  -0.375
 168    -0.375  1  -0.125
 169    0.25  1  0.125
 170    0.125  1  0.875
 171    0.5  1  0.125
 172    0.75  0.125  1
 173    0.625  0.375  1
 174    0.5  0.375  1
 175    0.625  0  1
 176    0.375  0.5  1
 177    0.125  0.625  1
 178    0.125  0.375  1
 179    -0.875  0  1
 180    -0.25  -0.625  1
 181    -0.125  -0.75  1
 182    -1  0.125  0.75
 183    -1  0.125  0.5
 184    -1  0.625  0
 185    -1  -0.125  -0.125
 186    -1  -0.125  -0.625
 187    -1  -0.5  -0.375
 188    0.375  -1  -0.5
 189    0.125  -1  -0.5
 190    0  -1  -0.625
 191    0  -1  -0.375
 192    0.125  -1  -0.125
 193    0  -1  0.125
 194    -0.125  -1  0.875
 195    1  0.625  -0.375
 196    1  0.875  0
 197    1  0.125  -0.25
 198    1  -0.25  0.125
 199    1  -0.625  0.375
 200    -0.75  0.125  -1
 201    -0.625  0.375  -1
 202    -0.5  0.125  -1
 203    0  0.625  -1
 204    0.125  0  -1
 205    0.625  -0.25  -1
 206    0.125  -0.625  -1
 207    0  -0.625  -1
 208    0.375  -0.625  -1
 209    0  1  -0.875
 210    0.375  1  -0.375
 211    0.125  1  -0.5
 212    0.125  1  -0.125
 213    -0.75  1  -0.375
 214    -0.875  1  -0.25
 215    -0.375  1  0.125
 216    -0.375  1  0.375
 217    -1  1  0.125
 218    -0.875  1  0.375
 219    -0.875  1  0.625
 220    -0.875  1  0.875
 221    0.875  1  -0.25
 222    -0.375  1  0.5
 223    -0.625  1  0.625
 224    -0.375  1  1
 225    -0.125  1  0.875
 226    -0.125  1  1
 227    0  1  0.875
 228    0.875  1  0.25
 229    0.875  1  0.375
 230    0.125  1  1
 231    1  1  0.625
 232    1  -0.625  1
 233    1  -0.375  1
 234    0.875  0.25  1
 235    0.875  0.125  1
 236    0.875  0.375  1
 237    0.875  1  1
 238    0.375  0.875  1
 239    0.125  0.875  1
 240    -0.25  0.875  1
 241    -0.875  1  1
 242    0.875  -0.875  1
 243    0.75  -0.875  1
 244    0.625  -0.875  1
 245    0  -0.125  1
 246    0.125  -0.375  1
 247    -0.375  0.375  1
 248    -0.375  0.25  1
 249    -0.375  0  1
 250    -0.625  0.5  1
 251    -0.875  0.5  1
 252    -0.125  -1  1
 253    -0.375  -1  1
 254    -0.875  -0.125  1
 255    -1  -0.375  1
 256    -0.75  -0.875  1
 257    -0.875  -0.625  1
 258    -0.875  -0.875  1
 259    -1  -0.125  0.75
 260    -1  0.375  1
 261    -1  0.75  0.875
 262    -1  0.875  1
 263    -1  1  0.625
 264    -1  0.75  0.375
 265    -1  1  0.375
 266    -1  0.375  -0.125
 267    -1  0.625  -0.625
 268    -1  1  -0.625
 269    -1  0.875  -0.625
 270    -1  1  -0.875
 271    -1  -0.375  0
 272    -1  -0.875  0.375
 273    -1  -0.625  0.125
 274    -1  0.875  -0.875
 275    -1  0.125  -1
 276    -1  -0.875  -0.125
 277    -1  -0.625  -0.375
 278    -1  -0.75  -0.875
 279    -0.75  -1  -0.875
 280    -0.625  -1  -1
 281    -0.5  -1  -0.625
 282    0.875  -1  -0.25
 283    0.375  -1  0.125
 284    0.625  -1  0.5
 285    0.875  -1  0.875
 286    -1  -1  -0.875
 287    -0.875  -1  -0.625
 288    -0.375  -1  -0.25
 289    -0.125  -1  -0.125
 290    -1  -1  -0.375
 291    -0.625  -1  -0.125
 292    0.375  -1  0.375
 293    0.25  -1  0.375
 294    0.125  -1  0.375
 295    0.125  -1  0.75
 296    0.125  -1  0.875
 297    0  -1  0.875
 298    -0.875  -1  0.375
 299    -1  -1  0.375
 300    -0.375  -1  0.625
 301    -0.25  -1  0.875
 302    -0.5  -1  0.875
 303    -0.625  -1  1
 304    -1  -1  0.875
 305    1  -0.75  -0.875
 306    1  -0.625  -1
 307    1  -0.375  -1
 308    1  0.375  -1
 309    1  0.5  -0.625
 310    1  0.5  0.375
 311    1  0.875  0.375
 312    1  0.75  0.625
 313    1  -0.625  -0.625
 314    1  -0.875  -0.625
 315    1  -0.375  -0.375
 316    1  -0.125  0
 317    1  -0.875  0
 318    1  0  0.125
 319    1  0.125  0.375
 320    1  0  0.375
 321    1  0.875  1
 322    1  0.625  0.875
 323    1  0.375  0.875
 324    1  -0.875  0.125
 325    1  -0.625  0.5
 326    1  -0.375  0.625
 327    1  -0.5  0.625
 328    1  -0.125  0.875
 329    1  -0.875  0.875
 330    -0.875  -0.75  -1
 331    -0.625  -0.5  -1
 332    -0.75  -0.125  -1
 333    -0.5  -0.375  -1
 334    -0.375  -0.375  -1
 335    -0.125  0  -1
 336    -0.625  1  -1
 337    -0.125  1  -1
 338    0.375  0.5  -1
 339    0.125  1  -1
 340    0.375  1  -1
 341    -0.875  -1  -1
 342    -0.625  -0.875  -1
 343    -0.5  -0.875  -1
 344    -0.125  -0.125  -1
 345    0  -0.125  -1
 346    -0.125  -0.375  -1
 347    0  -0.375  -1
 348    0.125  0.125  -1
 349    0.375  0.25  -1
 350    0.75  0.125  -1
 351    0.875  0  -1
 352    0.125  -0.875  -1
 353    0.375  -0.75  -1
 354    0.5  -0.875  -1
 355    0.375  -1  -1
 356    0.625  -0.5  -1
 357    0.875  -0.5  -1
 358    -0.375  1  -0.25
 359    0.375  1  0.375
 360    0.25  0.375  1
 361    0.375  0.25  1
 362    -0.375  -0.25  1
 363    -1  0.375  0.375
 364    -1  0.25  0.5
 365    -1  -0.375  -0.375
 366    0.375  -1  -0.25
 367    1  0.375  -0.375
 368    1  0.25  -0.5
 369    -0.25  0.375  -1
 370    -0.5  0.25  -1
 371    0.375  -0.375  -1
 372    0.25  -0.5  -1
 373    0.375  -0.25  -1
 374    0.25  -0.375  -1
 375    0.5  1  -0.75
 376    -0.625  1  0.375
 377    0.75  1  -0.375
 378    -0.25  1  0.5
 379    0.5  1  0.75
 380    0.625  1  0.625
 381    0.625  1  0.75
 382    0.75  1  0.5
 383    0.5  0.75  1
 384    0.75  0.5  1
 385    -0.375  0.75  1
 386    -0.25  0.625  1
 387    0.25  -0.625  1
 388    -0.75  -0.75  1
 389    -0.625  -0.625  1
 390    -1  -0.375  0.75
 391    -1  -0.375  0.625
 392    -1  0.625  0.625
 393    -1  0.5  0.75
 394    -1  -0.625  0.375
 395    -1  0.25  -0.75
 396    -1  -0.625  -0.75
 397    -0.25  -1  -0.75
 398    -0.375  -1  -0.75
 399    -0.5  -1  -0.75
 400    0.625  -1  -0.625
 401    0.625  -1  0.375
 402    -0.5  -1  -0.25
 403    -0.625  -1  -0.25
 404    0.375  -1  0.625
 405    0.25  -1  0.625
 406    -0.625  -1  0.625
 407    -0.75  -1  0.5
 408    1  -0.25  -0.625
 409    1  -0.5  -0.75
 410    1  0.75  -0.625
 411    1  0.75  -0.5
 412    1  -0.5  -0.25
 413    1  -0.625  -0.375
 414    1  -0.625  -0.25
 415    1  -0.75  -0.375
 416    1  0.5  0.75
 417    1  0.25  0.625
 418    1  0.375  0.625
 419    1  -0.625  0.75
 420    1  -0.75  0.625
 421    -0.625  -0.25  -1
 422    -0.75  -0.375  -1
 423    -0.75  -0.5  -1
 424    0.25  0.75  -1
 425    0.75  -0.5  -1
 426    0.75  -0.625  -1
 427    -0.25  1  -0.5
 428    -0.125  1  -0.75
 429    0  1  -0.75
 430    -0.75  1  -0.125
 431    -0.25  1  -0.25
 432    -0.25  1  -0.125
 433    -0.25  1  0
 434    -0.125  1  -0.25
 435    -0.125  1  -0.125
 436    0.25  1  0.625
 437    0.75  1  0.125
 438    0.75  0  1
 439    0.125  0.75  1
 440    0.25  0.5  1
 441    -0.25  -0.125  1
 442    -0.125  -0.125  1
 443    -0.75  -0.125  1
 444    -1  0.125  0.25
 445    -1  0  0.25
 446    -1  0  -0.25
 447    -1  -0.125  -0.25
 448    -1  -0.25  -0.125
 449    -1  -0.25  0
 450    -1  -0.125  -0.75
 451    -1  -0.25  -0.75
 452    -1  -0.25  -0.5
 453    -1  -0.625  -0.25
 454    -1  -0.625  -0.125
 455    0.125  -1  -0.625
 456    0.75  -1  -0.25
 457    -0.125  -1  0.25
 458    -0.25  -1  0.25
 459    -0.25  -1  0.625
 460    -0.25  -1  0.5
 461    -0.5  -1  0.25
 462    -0.625  -1  0.125
 463    -0.625  -1  0.25
 464    1  0.25  -0.75
 465    1  0.25  -0.625
 466    1  0.125  -0.625
 467    1  0.75  -0.125
 468    1  0.75  0
 469    1  0.625  -0.125
 470    1  0  -0.25
 471    1  -0.125  0.25
 472    1  -0.125  0.125
 473    1  -0.125  0.75
 474    1  -0.125  0.625
 475    1  -0.25  0.5
 476    -0.625  0.25  -1
 477    -0.625  0.125  -1
 478    -0.75  0  -1
 479    -0.125  0.75  -1
 480    -0.25  0.625  -1
 481    -0.25  0.5  -1
 482    -0.125  0.25  -1
 483    0  0.25  -1
 484    0.125  -0.25  -1
 485    0.125  -0.125  -1
 486    0.75  0  -1
 487    0.625  -0.125  -1
 488    0.5  -0.25  -1
 489    0.625  1  -0.875
 490    0.75  1  -0.875
 491    0.25  1  -1
 492    0.125  1  -0.75
 493    0.125  1  -0.25
 494    -0.25  1  -1
 495    -0.25  1  -0.75
 496    -0.875  1  -0.875
 497    -0.75  1  -0.875
 498    -0.875  1  -0.375
 499    -0.25  1  0.125
 500    -1  1  0.75
 501    1  1  -0.75
 502    0.25  1  -0.25
 503    0.25  1  -0.125
 504    0.375  1  -0.25
 505    0.75  1  -0.25
 506    0.875  1  -0.125
 507    -0.125  1  0.25
 508    -0.125  1  0.375
 509    0  1  0.25
 510    -0.625  1  0.875
 511    0  1  0.75
 512    0.75  1  0.375
 513    0.75  1  0.75
 514    0.75  1  1
 515    0.75  -0.625  1
 516    0.875  -0.25  1
 517    0.75  -0.25  1
 518    0.375  -0.125  1
 519    0.75  0.375  1
 520    1  0.75  1
 521    0.875  0.75  1
 522    0.75  0.875  1
 523    0.375  0.75  1
 524    0  0.75  1
 525    -0.125  0.75  1
 526    -0.625  0.875  1
 527    -0.75  1  1
 528    -0.625  0.75  1
 529    -0.75  0.875  1
 530    0.625  -0.75  1
 531    0.125  -0.25  1
 532    0.25  -0.375  1
 533    -0.375  0.125  1
 534    -0.25  0.125  1
 535    -0.75  0.75  1
 536    -0.875  0.625  1
 537    -0.75  0.625  1
 538    -0.75  0.25  1
 539    -0.75  0.125  1
 540    -0.25  -0.875  1
 541    -0.375  -0.75  1
 542    -0.25  -1  1
 543    -0.875  -0.25  1
 544    -0.875  -0.75  1
 545    -1  -0.625  0.875
 546    -1  -0.5  0.75
 547    -1  -0.75  0.75
 548    -1  -0.125  0.875
 549    -1  -0.125  0.375
 550    -1  -0.25  0.375
 551    -1  0.375  0.875
 552    -1  0.375  0.75
 553    -1  0.875  0.875
 554    -1  0.875  0.75
 555    -1  0.875  0.375
 556    -1  1  0.25
 557    -1  0.375  -0.25
 558    -1  0.75  0
 559    -1  0.75  -0.125
 560    -1  -0.75  0.625
 561    -1  -0.75  0.5
 562    -1  -0.75  0.125
 563    -1  0.125  -0.25
 564    -1  0.75  -0.875
 565    -1  0.625  -0.75
 566    -1  0.625  -0.875
 567    -1  0.25  -1
 568    -1  -0.75  -0.25
 569    -1  -0.75  -0.75
 570    -1  -0.875  -0.875
 571    -0.625  -1  -0.875
 572    -0.25  -1  -0.875
 573    -0.125  -1  -0.375
 574    0.5  -1  -0.75
 575    0.75  -1  -0.875
 576    0.875  -1  -0.75
 577    0.875  -1  -0.375
 578    0.375  -1  0.25
 579    0.25  -1  0.125
 580    0.875  -1  0.125
 581    0.75  -1  0.125
 582    0.875  -1  0.625
 583    0.75  -1  0.75
 584    -0.75  -1  -0.625
 585    -0.75  -1  -0.5
 586    -0.375  -1  -0.125
 587    -0.75  -1  0
 588    -0.875  -1  -0.25
 589    0.125  -1  0.25
 590    0.75  -1  1
 591    0.625  -1  0.875
 592    0.625  -1  0.75
 593    0.25  -1  0.875
 594    0  -1  0.75
 595    -0.75  -1  0.375
 596    -0.875  -1  0.25
 597    -0.375  -1  0.75
 598    -0.375  -1  0.875
 599    -0.5  -1  0.75
 600    -0.875  -1  0.75
 601    -0.75  -1  1
 602    1  -0.625  -0.875
 603    1  -0.25  -0.875
 604    1  -0.25  -0.5
 605    1  -0.125  -0.375
 606    1  -0.25  -0.25
 607    1  0.375  -0.875
 608    1  0.375  -0.75
 609    1  0.25  -0.875
 610    1  0.875  -0.875
 611    1  0.875  -0.375
 612    1  1  -0.25
 613    1  0.75  -0.375
 614    1  0.875  -0.25
 615    1  0.5  0.25
 616    1  0.25  0.125
 617    1  0.375  0.25
 618    1  0.75  0.125
 619    1  0.875  0.625
 620    1  1  0.75
 621    1  0.875  0.75
 622    1  0.75  0.75
 623    1  -0.875  -0.125
 624    1  0.25  0.375
 625    1  0.125  0.25
 626    1  0.25  0.75
 627    1  -0.75  0.5
 628    1  -0.875  0.25
 629    1  -1  0.25
 630    1  -0.25  0.875
 631    1  -0.375  0.875
 632    1  -0.5  0.75
 633    1  -0.75  0.875
 634    1  -0.75  1
 635    1  -0.875  0.75
 636    -0.75  -0.625  -1
 637    -0.875  -0.25  -1
 638    -0.25  -0.125  -1
 639    -0.25  -0.25  -1
 640    -0.75  0.375  -1
 641    -0.875  0.875  -1
 642    -0.375  0.875  -1
 643    0.125  0.25  -1
 644    0.125  0.875  -1
 645    0.25  0.875  -1
 646    0.5  0.75  -1
 647    0.625  0.75  -1
 648    0.75  0.875  -1
 649    -0.625  -0.75  -1
 650    -0.75  -0.875  -1
 651    -0.25  -0.75  -1
 652    0  -0.75  -1
 653    -0.125  -0.875  -1
 654    0.25  0.25  -1
 655    0.25  0.125  -1
 656    0.5  0.25  -1
 657    0.375  0.125  -1
 658    0.75  0.625  -1
 659    0.875  0.75  -1
 660    0.875  0.125  -1
 661    0.375  -0.875  -1
 662    0.75  -0.375  -1
 663    0.75  -0.875  -1
 664    0.875  -0.75  -1
 665    -0.5  1  -0.5
 666    -0.5  1  -0.375
 667    -0.5  1  -0.25
 668    -0.25  1  -0.375
 669    0.125  1  0.5
 670    0.5  1  0.25
 671    0.375  0.375  1
 672    0.125  0.5  1
 673    0.375  0.125  1
 674    -0.375  -0.125  1
 675    -0.375  -0.375  1
 676    -0.375  -0.5  1
 677    -0.25  -0.5  1
 678    -0.25  -0.375  1
 679    -0.125  -0.375  1
 680    -0.125  -0.5  1
 681    0  -0.5  1
 682    -1  0.5  0.5
 683    -1  0.5  0.375
 684    -1  0.5  0.25
 685    -1  0.5  0.125
 686    -1  0.375  0.125
 687    -1  0.25  0.25
 688    -1  0.25  0.375
 689    -1  0.125  0.375
 690    -1  -0.125  -0.5
 691    -1  -0.5  -0.5
 692    -1  -0.5  -0.25
 693    -1  -0.25  -0.25
 694    -1  -0.5  0
 695    0.5  -1  -0.375
 696    0.5  -1  -0.25
 697    0.25  -1  -0.5
 698    0.25  -1  -0.375
 699    0.25  -1  -0.25
 700    -0.25  -1  0.375
 701    -0.125  -1  0.375
 702    -0.375  -1  0.5
 703    -0.375  -1  0.375
 704    -0.375  -1  0.25
 705    1  0.5  -0.25
 706    1  0.25  -0.25
 707    1  0.125  -0.375
 708    1  0.125  -0.5
 709    1  0  -0.5
 710    1  0  0.5
 711    1  -0.125  0.375
 712    1  -0.25  0.25
 713    1  -0.375  0.125
 714    -0.375  0.5  -1
 715    0.5  -0.125  -1
 716    0.375  -0.125  -1
 717    0.25  -0.25  -1
 718    0.125  -0.5  -1
 719    0.375  1  -0.75
 720    0.125  1  -0.625
 721    0  1  -0.5
 722    0.25  1  -0.5
 723    0.5  1  -0.625
 724    0.375  1  -0.5
 725    -0.5  1  -0.75
 726    -0.75  1  -0.625
 727    -0.75  1  -0.5
 728    -0.5  1  -0.625
 729    -0.625  1  0.25
 730    -0.875  1  0.5
 731    -0.75  1  0.5
 732    0.5  1  -0.375
 733    0.625  1  -0.5
 734    0.625  1  -0.375
 735    0.75  1  -0.5
 736    0.625  1  -0.25
 737    0.875  1  -0.375
 738    -0.25  1  0.75
 739    -0.125  1  0.5
 740    -0.125  1  0.625
 741    0.5  1  0.5
 742    0.5  1  0.625
 743    0.625  1  0.5
 744    0.5  1  0.875
 745    0.625  1  0.875
 746    0.75  1  0.625
 747    0.75  -0.375  1
 748    0.875  -0.5  1
 749    0.625  -0.25  1
 750    0.625  -0.125  1
 751    0.75  -0.5  1
 752    0.5  -0.25  1
 753    0.875  0.625  1
 754    0.75  0.75  1
 755    0.625  0.75  1
 756    0.5  0.5  1
 757    -0.125  0.625  1
 758    -0.375  0.875  1
 759    -0.5  0.875  1
 760    -0.375  0.625  1
 761    0.375  -0.5  1
 762    0.375  -0.625  1
 763    0.5  -0.75  1
 764    -0.5  0.375  1
 765    -0.625  0.375  1
 766    -0.75  0.375  1
 767    -0.875  0.375  1
 768    -0.625  0.25  1
 769    -0.5  -0.5  1
 770    -0.625  -0.5  1
 771    -0.75  -0.5  1
 772    -1  -0.5  1
 773    -1  -0.25  0.75
 774    -1  -0.5  0.625
 775    -1  0.75  0.75
 776    -1  0.625  0.75
 777    -1  0.875  0.625
 778    -1  1  0.5
 779    -1  0.875  0.5
 780    -1  0.625  0.5
 781    -1  0.5  0.625
 782    -1  0.625  -0.25
 783    -1  0.75  -0.25
 784    -1  0.75  -0.375
 785    -1  0.625  -0.375
 786    -1  0.625  -0.5
 787    -1  0.5  -0.375
 788    -1  0.5  -0.5
 789    -1  -0.5  0.25
 790    -1  -0.625  0.25
 791    -1  -0.75  0.25
 792    -1  -1  0.5
 793    -1  0.375  -0.5
 794    -1  0.5  -0.75
 795    -1  0.5  -0.875
 796    -1  0.125  -0.5
 797    -1  -0.5  -0.875
 798    -1  -0.875  -0.625
 799    -0.375  -1  -0.875
 800    -0.125  -1  -0.625
 801    -0.25  -1  -0.625
 802    0.75  -1  -0.75
 803    0.5  -1  -0.875
 804    0.625  -1  -0.75
 805    0.875  -1  -0.5
 806    0.625  -1  -0.5
 807    0.625  -1  0.125
 808    0.75  -1  0.25
 809    0.5  -1  0.25
 810    0.75  -1  0.375
 811    0.875  -1  0.375
 812    0.5  -1  0.5
 813    -0.625  -1  -0.5
 814    -0.5  -1  -0.125
 815    -0.75  -1  -0.375
 816    -0.75  -1  -0.25
 817    -0.875  -1  -0.375
 818    -0.875  -1  -0.5
 819    -0.5  -1  0.625
 820    -0.625  -1  0.5
 821    -0.625  -1  0.75
 822    -0.625  -1  0.875
 823    -0.875  -1  0.625
 824    1  -0.25  -0.75
 825    1  -0.375  -0.75
 826    1  -0.125  -0.5
 827    1  -0.5  -0.625
 828    1  -0.375  -0.5
 829    1  0.875  -0.5
 830    1  0.625  -0.625
 831    1  0.625  -0.5
 832    1  0.75  0.25
 833    1  0.75  0.375
 834    1  0.875  0.5
 835    1  0.625  0.375
 836    1  0.75  0.5
 837    1  -0.5  -0.375
 838    1  -0.5  -0.125
 839    1  -0.75  -0.25
 840    1  -0.875  -0.5
 841    1  0.5  0.875
 842    1  -0.625  0.625
 843    1  -0.875  0.625
 844    -1  -0.5  -1
 845    -0.75  -0.25  -1
 846    -0.625  -0.125  -1
 847    -0.5  -0.125  -1
 848    -0.5  -0.25  -1
 849    -0.625  -0.375  -1
 850    -0.875  0.625  -1
 851    -0.625  0.875  -1
 852    -0.625  0.75  -1
 853    0.25  0.625  -1
 854    0.125  0.5  -1
 855    0.25  0.5  -1
 856    0.375  0.75  -1
 857    -0.5  -0.625  -1
 858    -0.375  -0.625  -1
 859    0  -0.5  -1
 860    0.75  0.5  -1
 861    0.5  0.375  -1
 862    0.875  0.375  -1
 863    0.75  0.25  -1
 864    0.5  -0.625  -1
 865    0.5  -0.75  -1
 866    0.625  -0.75  -1
 867    0.75  -0.75  -1
 868    -0.25  1  -0.625
 869    -0.375  1  -0.625
 870    -0.375  1  -0.5
 871    -0.125  1  -0.625
 872    -0.625  1  -0.375
 873    -0.75  1  0
 874    -0.5  1  -0.125
 875    -0.125  1  -0.375
 876    -0.375  1  0
 877    0  1  -0.25
 878    -0.125  1  0
 879    0.125  1  0.125
 880    0  1  0.375
 881    0  1  0.5
 882    0.125  1  0.375
 883    0.25  1  0.25
 884    0.375  1  0.125
 885    0.25  1  0.5
 886    0.125  1  0.75
 887    0.375  1  0.5
 888    0.625  1  0.125
 889    0.625  1  0.375
 890    0.625  1  0.25
 891    0.875  1  0
 892    0.625  0.25  1
 893    0.5  0.25  1
 894    0.375  0.625  1
 895    0.25  0.75  1
 896    0.25  0.625  1
 897    0  0.875  1
 898    0  0.625  1
 899    0.5  0  1
 900    0.25  0.25  1
 901    0.25  0.125  1
 902    0  0.375  1
 903    0.125  0.25  1
 904    0.125  0.125  1
 905    -0.125  0  1
 906    -0.25  0  1
 907    -0.25  -0.25  1
 908    -0.5  0  1
 909    -0.625  0  1
 910    -0.625  -0.125  1
 911    -0.5  -0.125  1
 912    -0.75  0  1
 913    -1  0  1
 914    -0.75  -0.25  1
 915    -0.5  -0.25  1
 916    -0.25  -0.75  1
 917    0  -0.75  1
 918    0  -0.875  1
 919    -1  0.125  0.875
 920    -1  0  0.75
 921    -1  0.25  0.75
 922    -1  0.375  0.5
 923    -1  0.25  0.625
 924    -1  0  0.5
 925    -1  0.625  0.375
 926    -1  0.625  0.25
 927    -1  0.875  0.125
 928    -1  0.625  0.125
 929    -1  0  0.375
 930    -1  0.375  0
 931    -1  0.25  0
 932    -1  0  -0.125
 933    -1  -0.125  0
 934    -1  0  -0.375
 935    -1  -0.125  -0.375
 936    -1  -0.375  -0.125
 937    -1  0  -0.625
 938    -1  0  -0.75
 939    -1  0  -0.875
 940    -1  -0.125  -0.875
 941    -1  -0.375  -0.625
 942    -1  -0.625  0
 943    -1  -0.75  0
 944    -1  -0.75  -0.125
 945    0.125  -1  -0.75
 946    0.25  -1  -0.625
 947    0.625  -1  -0.375
 948    0.625  -1  -0.25
 949    0.75  -1  -0.125
 950    0.625  -1  -0.125
 951    0.625  -1  0
 952    0.125  -1  -0.375
 953    0.125  -1  -0.25
 954    0.375  -1  -0.125
 955    0.25  -1  -0.125
 956    0.375  -1  0
 957    0.25  -1  0
 958    0  -1  -0.125
 959    0.125  -1  0
 960    -0.125  -1  0.125
 961    -0.25  -1  0
 962    0  -1  0.375
 963    -0.375  -1  0.125
 964    0  -1  0.5
 965    0  -1  0.625
 966    -0.125  -1  0.625
 967    -0.125  -1  0.75
 968    -0.25  -1  0.75
 969    -0.5  -1  0.125
 970    -0.5  -1  0.375
 971    -0.625  -1  0.375
 972    1  0.125  -0.875
 973    1  0.125  -0.75
 974    1  0  -0.875
 975    1  0  -0.75
 976    1  0.5  -0.375
 977    1  0.75  -0.25
 978    1  0.625  -0.25
 979    1  0.875  -0.125
 980    1  0.5  -0.125
 981    1  0.5  0
 982    1  0  -0.375
 983    1  0.25  -0.125
 984    1  0.375  0
 985    1  0.25  0
 986    1  0.125  -0.125
 987    1  0  -0.125
 988    1  0.125  0
 989    1  -0.125  0.5
 990    1  0  0.625
 991    1  0  0.75
 992    1  0  1
 993    1  -0.375  0.5
 994    1  -0.25  0.75
 995    1  -0.5  0.25
 996    1  -0.625  0.25
 997    1  -0.5  0.375
 998    1  -0.5  0.5
 999    1  -0.75  0.125
1000    1  -0.75  0.25
1001    -1  0  -1
1002    -0.875  0.125  -1
1003    -0.875  0  -1
1004    -0.625  0  -1
1005    -0.375  0.625  -1
1006    -0.25  0.75  -1
1007    0  0.875  -1
1008    0  0.75  -1
1009    -0.125  0.5  -1
1010    -0.125  0.625  -1
1011    -0.5  0  -1
1012    -0.375  0.125  -1
1013    -0.25  0.25  -1
1014    -0.125  0.375  -1
1015    0  0.375  -1
1016    -0.125  0.125  -1
1017    0  -0.25  -1
1018    0.25  0  -1
1019    0.5  0  -1
1020    0.125  -0.375  -1
1021    0.625  0  -1
1022    0.75  -0.25  -1
1023    0.5  -0.375  -1
1024    0.625  -0.375  -1
1025    0.25  -0.625  -1
1026    0.125  -0.75  -1
1027    0  -0.875  -1
1028    0  -1  -1
1029    0.875  1  -0.875
1030    0.625  1  -1
1031    0.5  1  -1
1032    0.5  1  -0.875
1033    0.75  1  -0.75
1034    0.625  1  -0.75
1035    0.375  1  -0.875
1036    0.25  1  -0.875
1037    0.25  1  -0.75
1038    0  1  -1
1039    0  1  -0.125
1040    -0.25  1  -0.875
1041    -0.5  1  -0.875
1042    -0.375  1  -0.875
1043    -0.375  1  -0.75
1044    -0.75  1  -1
1045    -0.625  1  -0.875
1046    -0.875  1  -1
1047    -1  1  -1
1048    -0.75  1  -0.75
1049    -0.875  1  -0.625
1050    -0.875  1  -0.75
1051    -0.625  1  -0.5
1052    -0.75  1  -0.25
1053    -1  1  -0.25
1054    -0.875  1  -0.125
1055    -0.25  1  0.25
1056    -0.5  1  0.125
1057    -0.375  1  0.25
1058    -0.5  1  0.25
1059    -0.5  1  0.375
1060    -0.5  1  0.5
1061    -0.5  1  0
1062    -0.75  1  0.125
1063    -0.625  1  0.125
1064    -0.75  1  0.25
1065    -0.875  1  0
1066    -0.875  1  0.25
1067    -0.75  1  0.625
1068    1  1  -0.875
1069    0.625  1  -0.625
1070    0.875  1  -0.625
1071    0.875  1  -0.5
1072    1  1  -0.625
1073    0.5  1  -0.5
1074    0  1  0
1075    0.125  1  0
1076    0.25  1  0
1077    0.5  1  -0.25
1078    0.5  1  -0.125
1079    0.375  1  -0.125
1080    0.375  1  0
1081    0.5  1  0
1082    1  1  -0.375
1083    0.625  1  -0.125
1084    0.75  1  -0.125
1085    0.625  1  0
1086    0.75  1  0
1087    0  1  0.125
1088    -0.125  1  0.125
1089    -0.25  1  0.375
1090    -0.5  1  0.625
1091    -0.625  1  0.75
1092    -0.5  1  0.75
1093    -0.75  1  0.75
1094    -0.5  1  0.875
1095    -0.125  1  0.75
1096    0  1  0.625
1097    -0.375  1  0.875
1098    -0.25  1  0.875
1099    -0.5  1  1
1100    -0.25  1  1
1101    0  1  1
1102    0.875  1  0.125
1103    0.75  1  0.25
1104    0.875  1  0.5
1105    0.375  1  0.625
1106    0.25  1  0.75
1107    0.25  1  0.875
1108    0.375  1  0.875
1109    0.5  1  1
1110    0.625  1  1
1111    0.875  1  0.875
1112    0.875  -0.75  1
1113    0.875  -0.625  1
1114    0.75  -0.75  1
1115    0.625  -0.5  1
1116    0.625  -0.625  1
1117    0.5  -0.5  1
1118    0.875  -0.125  1
1119    0.875  0  1
1120    0.75  -0.125  1
1121    0.375  -0.375  1
1122    0.375  -0.25  1
1123    0.25  -0.25  1
1124    0.375  0  1
1125    0.25  -0.125  1
1126    0.25  0  1
1127    0.125  0  1
1128    1  0.125  1
1129    1  0.375  1
1130    0.75  0.25  1
1131    0.625  0.5  1
1132    0.875  0.875  1
1133    0.625  0.875  1
1134    0.5  0.875  1
1135    0.375  1  1
1136    0.25  1  1
1137    0  0.125  1
1138    -0.125  0.125  1
1139    -0.125  0.25  1
1140    -0.25  0.25  1
1141    0  0.25  1
1142    0  0.5  1
1143    -0.125  0.5  1
1144    -0.25  0.375  1
1145    -0.25  0.5  1
1146    -0.375  0.5  1
1147    -0.25  0.75  1
1148    -0.125  0.875  1
1149    -0.5  0.625  1
1150    -0.5  0.75  1
1151    -0.625  0.625  1
1152    -0.625  1  1
1153    0.875  -1  1
1154    0.5  -0.625  1
1155    0.5  -0.875  1
1156    0.125  -0.125  1
1157    0  0  1
1158    0  -0.25  1
1159    0.25  -0.5  1
1160    0.125  -0.5  1
1161    0  -0.375  1
1162    0.5  -1  1
1163    0.25  -0.75  1
1164    0.25  -0.875  1
1165    0.25  -1  1
1166    0  -0.625  1
1167    0.125  -1  1
1168    0.125  -0.875  1
1169    -0.5  0.5  1
1170    -0.5  0.25  1
1171    -0.5  0.125  1
1172    -0.875  0.875  1
1173    -1  1  1
1174    -1  0.75  1
1175    -0.75  0.5  1
1176    -0.625  0.125  1
1177    -1  0.5  1
1178    -0.875  0.125  1
1179    -1  0.125  1
1180    -0.125  -0.875  1
1181    -0.375  -0.625  1
1182    -0.5  -0.625  1
1183    -0.375  -0.875  1
1184    -0.5  -0.75  1
1185    -0.625  -0.375  1
1186    -1  -0.125  1
1187    -0.875  -0.375  1
1188    -0.875  -0.5  1
1189    -0.5  -1  1
1190    -1  -0.625  1
1191    -0.875  -1  1
1192    -1  -0.875  1
1193    -1  -1  1
1194    -1  -0.75  0.875
1195    -1  -0.75  1
1196    -1  -0.625  0.75
1197    -1  -0.375  0.875
1198    -1  -0.25  0.875
1199    -1  -0.25  1
1200    -1  0  0.875
1201    -1  -0.125  0.625
1202    -1  0  0.625
1203    -1  -0.375  0.5
1204    -1  -0.25  0.5
1205    -1  -0.125  0.125
1206    -1  -0.125  0.25
1207    -1  0  0.125
1208    -1  0  0
1209    -1  0.25  1
1210    -1  0.25  0.875
1211    -1  0.5  0.875
1212    -1  0.375  0.625
1213    -1  0.625  1
1214    -1  0.625  0.875
1215    -1  1  0.875
1216    -1  0.75  0.5
1217    -1  0.75  0.25
1218    -1  0.875  0.25
1219    -1  0.125  0
1220    -1  0.125  -0.125
1221    -1  0.25  -0.125
1222    -1  0.5  0
1223    -1  0.5  -0.25
1224    -1  0.25  -0.25
1225    -1  0.875  0
1226    -1  1  0
1227    -1  0.875  -0.125
1228    -1  1  -0.125
1229    -1  0.875  -0.25
1230    -1  1  -0.375
1231    -1  1  -0.5
1232    -1  0.75  -0.625
1233    -1  0.75  -0.75
1234    -1  0.75  -0.5
1235    -1  0.875  -0.5
1236    -1  1  -0.75
1237    -1  0.875  -0.75
1238    -1  -0.875  0.875
1239    -1  -0.625  0.625
1240    -1  -0.625  0.5
1241    -1  -1  0.625
1242    -1  -0.875  0.625
1243    -1  -0.875  0.5
1244    -1  -0.5  0.5
1245    -1  -0.375  0.375
1246    -1  -0.25  0.25
1247    -1  -0.25  0.125
1248    -1  -0.375  0.125
1249    -1  -0.5  0.125
1250    -1  -0.875  0.25
1251    -1  -0.875  0
1252    -1  0.375  -0.375
1253    -1  0.25  -0.375
1254    -1  0.25  -0.5
1255    -1  0.875  -1
1256    -1  0.625  -1
1257    -1  0.5  -1
1258    -1  0  -0.5
1259    -1  0.125  -0.625
1260    -1  0.375  -0.875
1261    -1  0.125  -0.875
1262    -1  -0.875  -0.25
1263    -1  -1  -0.25
1264    -1  -0.625  -0.5
1265    -1  -0.75  -0.375
1266    -1  -0.75  -0.5
1267    -1  -0.875  -0.375
1268    -1  -0.875  -0.5
1269    -1  -1  -0.5
1270    -1  -0.5  -0.625
1271    -1  -0.375  -0.75
1272    -1  -0.5  -0.75
1273    -1  -0.25  -0.875
1274    -1  -0.125  -1
1275    -1  -0.375  -0.875
1276    -1  -0.25  -1
1277    -1  -0.375  -1
1278    -1  -1  -0.625
1279    -1  -0.875  -0.75
1280    -1  -0.625  -0.875
1281    -1  -0.75  -1
1282    -0.75  -1  -1
1283    -0.5  -1  -0.875
1284    -0.625  -1  -0.625
1285    0  -1  -0.875
1286    0  -1  -0.75
1287    -0.125  -1  -0.75
1288    -0.375  -1  -0.5
1289    -0.25  -1  -0.5
1290    -0.25  -1  -0.375
1291    -0.125  -1  -0.5
1292    0  -1  -0.5
1293    0  -1  -0.25
1294    -0.125  -1  -0.25
1295    0.125  -1  -0.875
1296    0.5  -1  -1
1297    0.25  -1  -0.75
1298    0.375  -1  -0.625
1299    0.5  -1  -0.625
1300    0.5  -1  -0.5
1301    0.625  -1  -0.875
1302    0.625  -1  -1
1303    0.875  -1  -0.875
1304    0.875  -1  -1
1305    1  -1  -0.75
1306    1  -1  -0.625
1307    0.75  -1  -0.375
1308    0.75  -1  -0.5
1309    1  -1  -0.5
1310    1  -1  -0.375
1311    0.875  -1  -0.125
1312    1  -1  -0.25
1313    1  -1  -0.125
1314    0  -1  0
1315    0.25  -1  0.25
1316    0.5  -1  0.375
1317    0.5  -1  0
1318    0.75  -1  0
1319    0.875  -1  0
1320    1  -1  0.125
1321    1  -1  0.5
1322    0.75  -1  0.625
1323    0.75  -1  0.5
1324    1  -1  0.875
1325    1  -1  1
1326    -1  -1  -1
1327    -0.875  -1  -0.875
1328    -0.75  -1  -0.75
1329    -0.875  -1  -0.75
1330    -1  -1  -0.75
1331    -0.5  -1  -0.5
1332    -0.375  -1  -0.375
1333    -0.5  -1  -0.375
1334    -0.25  -1  -0.25
1335    -0.125  -1  0
1336    -0.25  -1  -0.125
1337    -0.375  -1  0
1338    -0.5  -1  0
1339    -0.75  -1  -0.125
1340    -0.625  -1  0
1341    -0.875  -1  -0.125
1342    -0.875  -1  0
1343    -1  -1  -0.125
1344    -1  -1  0
1345    0.125  -1  0.125
1346    0.375  -1  0.5
1347    0.25  -1  0.5
1348    0  -1  0.25
1349    0.625  -1  0.625
1350    0.5  -1  0.75
1351    0.75  -1  0.875
1352    0.5  -1  0.875
1353    0.625  -1  1
1354    0.125  -1  0.625
1355    0.25  -1  0.75
1356    0.375  -1  0.875
1357    0.375  -1  1
1358    0  -1  1
1359    -0.875  -1  0.125
1360    -1  -1  0.125
1361    -0.75  -1  0.25
1362    -1  -1  0.25
1363    -0.875  -1  0.5
1364    -0.5  -1  0.5
1365    -0.75  -1  0.75
1366    -0.75  -1  0.875
1367    -1  -1  0.75
1368    1  -1  -1
1369    1  -0.5  -1
1370    1  -0.5  -0.875
1371    1  -0.75  -0.75
1372    1  -0.625  -0.75
1373    1  -0.375  -0.875
1374    1  -0.25  -1
1375    1  -0.125  -1
1376    1  -0.125  -0.875
1377    1  -0.125  -0.625
1378    1  0  -0.625
1379    1  -0.5  -0.5
1380    1  -0.25  -0.375
1381    1  -0.125  -0.25
1382    1  0  -1
1383    1  0.5  -0.875
1384    1  0.5  -0.75
1385    1  0.375  -0.625
1386    1  0.5  -0.5
1387    1  0.75  -0.875
1388    1  0.75  -0.75
1389    1  0.75  -1
1390    1  0.875  -0.625
1391    1  1  -0.5
1392    1  1  -0.125
1393    1  1  0
1394    1  0  0
1395    1  0.125  0.125
1396    1  0.25  0.25
1397    1  0.375  0.125
1398    1  0.5  0.125
1399    1  0.625  0
1400    1  0.625  0.125
1401    1  1  0.125
1402    1  1  0.25
1403    1  1  0.375
1404    1  1  0.5
1405    1  0.5  0.5
1406    1  0.625  0.625
1407    1  0.625  0.5
1408    1  0.875  0.875
1409    1  1  0.875
1410    1  -1  -0.875
1411    1  -0.875  -0.875
1412    1  -0.875  -0.75
1413    1  -0.625  -0.5
1414    1  -0.75  -0.5
1415    1  -0.375  -0.25
1416    1  -0.125  -0.125
1417    1  -0.25  -0.125
1418    1  -0.25  0
1419    1  -0.375  -0.125
1420    1  -0.375  0
1421    1  -0.5  0
1422    1  -0.875  -0.375
1423    1  -0.75  -0.125
1424    1  -0.625  -0.125
1425    1  -0.625  0
1426    1  -0.75  0
1427    1  -1  0
1428    1  0.375  0.375
1429    1  0.375  0.5
1430    1  0.25  0.5
1431    1  0  0.25
1432    1  0.125  0.5
1433    1  0.625  0.75
1434    1  1  1
1435    1  0.75  0.875
1436    1  0.625  1
1437    1  0.5  1
1438    1  0.125  0.75
1439    1  0.125  0.875
1440    1  0.25  1
1441    1  0  0.875
1442    1  -0.75  0.375
1443    1  -0.875  0.375
1444    1  -1  0.375
1445    1  -0.875  0.5
1446    1  -0.375  0.75
1447    1  -0.125  1
1448    1  -0.25  1
1449    1  -0.5  0.875
1450    1  -1  0.625
1451    1  -0.75  0.75
1452    1  -0.5  1
1453    1  -1  0.75
1454    1  -0.875  1
1455    -1  -0.875  -1
1456    -0.875  -0.625  -1
1457    -1  -0.625  -1
1458    -0.625  -0.625  -1
1459    -0.5  -0.5  -1
1460    -0.875  -0.375  -1
1461    -0.875  -0.125  -1
1462    -0.375  -0.25  -1
1463    -0.375  -0.125  -1
1464    -0.375  0  -1
1465    -0.25  0  -1
1466    0  0  -1
1467    -0.875  0.25  -1
1468    -0.75  0.25  -1
1469    -1  0.375  -1
1470    -0.875  0.375  -1
1471    -0.875  0.5  -1
1472    -0.75  0.5  -1
1473    -0.625  0.5  -1
1474    -0.5  0.5  -1
1475    -1  0.75  -1
1476    -0.875  0.75  -1
1477    -0.75  0.75  -1
1478    -0.75  0.875  -1
1479    -0.5  1  -1
1480    -0.5  0.625  -1
1481    -0.5  0.75  -1
1482    -0.375  0.75  -1
1483    -0.375  1  -1
1484    -0.25  0.875  -1
1485    -0.125  0.875  -1
1486    0  0.125  -1
1487    0  0.5  -1
1488    0.25  0.375  -1
1489    0.125  0.75  -1
1490    0.125  0.625  -1
1491    0.375  0.875  -1
1492    0.75  0.75  -1
1493    0.5  0.875  -1
1494    0.625  0.875  -1
1495    0.75  1  -1
1496    0.875  0.875  -1
1497    0.875  1  -1
1498    -0.875  -0.875  -1
1499    -0.75  -0.75  -1
1500    -0.5  -0.75  -1
1501    -0.5  -1  -1
1502    -0.375  -0.5  -1
1503    -0.25  -0.375  -1
1504    -0.125  -0.25  -1
1505    -0.25  -0.5  -1
1506    -0.125  -0.5  -1
1507    -0.375  -0.875  -1
1508    -0.375  -1  -1
1509    -0.25  -0.875  -1
1510    -0.125  -0.625  -1
1511    -0.125  -0.75  -1
1512    -0.25  -1  -1
1513    -0.125  -1  -1
1514    0.375  0.375  -1
1515    0.5  0.125  -1
1516    0.375  0  -1
1517    0.5  0.5  -1
1518    0.625  0.625  -1
1519    1  1  -1
1520    1  0.875  -1
1521    0.875  0.5  -1
1522    1  0.625  -1
1523    1  0.5  -1
1524    1  0.25  -1
1525    1  0.125  -1
1526    0.125  -1  -1
1527    0.25  -0.875  -1
1528    0.25  -0.75  -1
1529    0.5  -0.5  -1
1530    0.25  -1  -1
1531    0.875  -0.125  -1
1532    0.875  -0.25  -1
1533    0.625  -0.875  -1
1534    0.875  -0.625  -1
1535    0.75  -1  -1
1536    0.875  -0.875  -1
1537    1  -0.75  -1
1538    1  -0.875  -1
1539    -0.1875  -0.0625  -0.1875
1540    -0.5625  -0.0625  0.5625
1541    -0.6875  -0.6875  0.6875
1542    0.0625  -0.6875  0.6875
1543    0.5625  -0.5625  0.3125
1544    0.3125  0.6875  -0.6875
1545    0.18750000000000006  0.60625000000000007  -0.31250000000000006
1546    0.6875  0.5625  -0.6875
1547    -0.4375  0.18749999999999989  0.70089285714285721
1548    0.6875  0.6875  -0.1875
1549    -0.062500000000000389  0.41918906985871307  0.31250000000000044
1550    -0.6875  -0.0625  -0.6875
1551    -0.3125  0.5625  -0.5625
1552    -0.74687499999999996  -0.0625  0.74687499999999996
1553    0.6875  -0.1875  0.6875
1554    -0.6875  -0.6875  0.3125
1555    -0.6875  0.6875  -0.4375
1556    0.1875  -0.6875  -0.6875
1557    0.0625  -0.43750000000000006  -0.73125000000000007
1558    -0.18991297468354434  0.61195185352622061  -0.1875
1559    -0.60742187499999978  0.31249999999999989  -0.615234375
1560    -0.5625  -0.5625  -0.5625
1561    0.6875  -0.6875  0.58124999999999993
1562    -0.1875  -0.3125  -0.73481104651162787
1563    0.6875  -0.45885953608247426  0.73489046391752577
1564    -0.31250000000000017  0.66251596153999492  0.3125
1565    0.18750000000000017  0.43749999999999978  0.61623342533626246
1566    -0.6875  -0.6875  -0.1875
1567    0.40699519230769221  0.062499999999999889  -0.18750000000000006
1568    0.4375  -0.70089285714285721  0.0625
1569    -0.6875  -0.75624999999999998  0.0625
1570    -0.3125  0.74687500000000007  -0.74687499999999996
1571    0.3125  -0.60625000000000007  -0.3125
1572    -0.58072916666666674  -0.1875  -0.29427083333333331
1573    0.0625  0.73124999999999996  -0.5625
1574    0.6875  0.1875  -0.6875
1575    0.5625  -0.33859797297297312  -0.5625
1576    -0.062499999999999944  -0.74479166666666674  -0.74479166666666674
1577    -0.6875  0.5625  0.6875
1578    -0.57470289996296919  0.43749999999999989  -0.1059528999629695
1579    0.4375  0.0625  0.65625
1580    -0.1875  0.6875  0.6875
1581    0.37187286756186144  0.6875  0.68749999999999978
1582    -0.6116071428571429  -0.1875  0.1875
1583    -0.074209294931957534  0.73359185898639145  0.4375
1584    -0.74340414939195587  0.45775691565325971  -0.3125
1585    0.60729166666666667  -0.062500000000000028  0.31354166666666666
1586    -0.75624999999999998  -0.4375  0.6875
1587    -0.062500000000000111  -0.61463293650793638  -0.1875
1588    0.53125  0.4375  0.1875
1589    0.74062499999999998  0.5625  -0.421875
1590    -0.74479166666666674  0.74479166666666674  -0.18750000000000006
1591    0.75624999999999998  0.4375  -0.1875
1592    -0.72475090579710144  0.0625  -0.31249999999999983
1593    -0.31250000000000011  -0.65526987281053928  0.0625
1594    -0.18749999999999994  -0.74479166666666674  0.74479166666666674
1595    0.062500000000000222  -0.31249999999999989  0.63124999999999987
1596    -0.33125568871359201  0.3125  -0.71607061589805832
1597    -0.31249999999999989  -0.64927457402771516  0.42175580930551243
1598    -0.3125  -0.0625  -0.73483495597710746
1599    0.0625  -0.062499999999999944  0.74147245762711866
1600    0.18750000000000006  0.75291191899915688  0.4375
1601    0.13400175625484248  0.62598242162775275  0.0625
1602    -0.7354012725779967  -0.4375  0.1875
1603    -0.24765253572998797  -0.062499999999999944  0.69225846589470486
1604    -0.71528633004926112  0.0625  0.0625
1605    0.6875  0.6875  0.4375
1606    0.74335763224984075  -0.25196183875079659  0.43750000000000006
1607    0.62985795454545457  -0.43749999999999989  -0.18750000000000022
1608    -0.0625  -0.74831564330219791  0.0625
1609    0.74105531083631626  -0.18749999999999989  -0.1875
1610    -0.4375  -0.7544642857142857  -0.6875
1611    0.6875  -0.6875  -0.5625
1612    -0.41615738055922025  -0.43750000000000011  0.66764950428224878
1613    0.71230692867760736  -0.081443071322392646  -0.5625
1614    -0.43750000000000006  -0.7543402777777779  0.67795138888888939
1615    -0.71720920138888888  0.56249999999999989  -0.71720920138888877
1616    -0.75658320393374745  -0.3125  -0.43750000000000006
1617    0.1875  -0.18749999999999978  -0.73481104651162765
1618    -0.43749999999999994  0.75625000000000009  0.6875
1619    -0.4375  -0.3125  -0.76429508203904228
1620    0.18012493797695836  -0.64684561750257907  0.3125
1621    0.70970737747653811  -0.709707377476538  -0.0625
1622    0.73476024457245026  -0.062500000000000056  0.0625
1623    0.3125  0.31250000000000011  -0.63125000000000009
1624    0.43750000000000011  -0.73499740663900426  0.48292271784232355
1625    0.75099710914240903  -0.75099710914240903  0.18749999999999994
1626    -0.7448060393699576  0.56250000000000011  0.062500000000000028
1627    -0.73483435101798122  -0.3125  0.4375
1628    0.31250000000000006  -0.43750000000000011  0.72028601694915251
1629    0.31249999999999983  -0.1875  0.76238690167662115
1630    -0.4375  -0.73124999999999996  -0.3125
1631    0.3125  -0.43750000000000006  -0.76388081395348839
1632    -0.5625  0.76181563012393905  -0.6875
1633    -0.75624999999999998  0.5625  0.4375
1634    0.5625  0.73124999999999996  0.1875
1635    -0.0625  0.4375  -0.71708103428502024
1636    -0.74479166666666663  0.3125  0.74479166666666663
1637    -0.70089285714285721  0.1875  0.4375
1638    0.43750000000000006  -0.75625000000000009  -0.5625
1639    0.75786684033417306  -0.31250000000000011  -0.40558890529519859
1640    -0.18749999999999997  0.74555182624839023  -0.41670426124624393
1641    0.44719145569620233  0.73706487341772142  -0.062500000000000056
1642    0.70399305555555558  0.1875  0.5625
1643    -0.062499999999999944  -0.74632049633874198  0.43749999999999994
1644    -0.43749999999999994  0.73705814479315401  -0.1875
1645    0.73993055555555554  0.4375  0.35590277777777773
1646    0.4375  0.34241860090571585  0.72138081735844006
1647    0.18227039296772479  0.18749999999999992  0.73601402768634883
1648    -0.6875  -0.76586850649350646  -0.6875
1649    0.75774684621495902  -0.2800885511032728  0.1875
1650    0.37446120689655227  0.74385775862068948  -0.43749999999999994
1651    0.021681623668304395  0.75392577317538301  -0.1875
1652    0.0625  -0.73124999999999996  -0.4375
1653    0.5625  -0.73389423076923077  -0.3125
1654    0.5625  -0.5625  -0.7544642857142857
1655    -0.18750000000000006  -0.31249999999999989  0.75139741891993905
1656    0.1875  -0.72207175073637697  -0.079788176546391726
1657    0.70929573739081409  0.23417684347703505  0.0625
1658    -0.75697706140501131  -0.68750000000000011  -0.45508942983507961
1659    0.31250000000000022  0.058230139039255058  -0.73785393138919919
1660    -0.0625  0.1875  -0.76189181799680905
1661    -0.75500742100107421  -0.47709570166845711  -0.0625
1662    0.75624999999999998  0.1875  -0.4375
1663    0.76120336374425146  0.18749999999999989  0.3125
1664    0.74479166666666674  0.74479166666666674  0.6875
1665    0.092186433780930721  0.6875  0.72656356621906926
1666    -0.11183272471687791  0.75449475299246938  0.18750000000000006
1667    0.5625  -0.062500000000000056  -0.76412033619320807
1668    0.76594551282051282  0.1875  -0.1875
1669    0.76212673192175062  -0.42567028264734996  -0.6875
1670    -0.76304901661312696  -0.30116830564478847  -0.6875
1671    -0.34530699749083377  0.74415997318034188  0.062499999999999944
1672    0.47532379065819896  -0.68749999999999989  0.74226251820516365
1673    -0.062499999999999917  0.31250000000000006  0.73973306678452566
1674    0.4375  0.76091866222638527  0.45676622507611636
1675    0.30983362971181422  0.76078038338583054  0.1875
1676    -0.73562047101449279  -0.1875  -0.062499999999999944
1677    -0.31250000000000011  0.44018011875206642  0.7328580712512397
1678    -0.73370606824253248  0.3125  0.18877132995152282
1679    -0.18750000000000011  -0.74934593023255813  -0.37500000000000022
1680    -0.43750000000000017  0.76443492270343683  -0.43758626827677893
1681    0.75385144201060827  0.48466687615862791  0.0625
1682    -0.5625  0.76461967042606671  0.18750000000000006
1683    0.7154951812786754  0.43750000000000022  0.7154951812786754
1684    -0.064367446965246239  -0.0625  -0.7656182238919772
1685    -0.7482187642714998  -0.0625  0.36928281482536279
1686    -0.45870016260038449  -0.18750000000000008  0.75749288037148355
1687    -0.24299047709140861  -0.56249999999999989  -0.75121703043624388
1688    0.59211057494989938  0.75869436784998567  -0.5625
1689    -0.59585765130823776  0.75728408110675705  0.43750000000000006
1690    0.75712754162549012  -0.49751457265495136  0.0625
# Generated by C:\CCH\Projects\github-software\tetgen1.5.1\build\Release\tetgen.exe -p -q C:\CCH\3dModel\cube1.5k.stl 
