3072  1
    1    431    81   668    -1
    2     85   359    83    -1
    3    361   360   671    -1
    4    678   675   362    -1
    5    688     1   363    -1
    6     89   365     2    -1
    7     91   699   366    -1
    8    703   700   458    -1
    9      3    96   367    -1
   10     98    97   712    -1
   11   1013   101   103    -1
   12    371   373   717    -1
   13    105     4   719    -1
   14    108   726   106    -1
   15      5  1064   376    -1
   16    377   736   734    -1
   17      6   738   110    -1
   18    380   513   381    -1
   19    749   517   115    -1
   20    118   755     7    -1
   21    760   385   386    -1
   22      8   387   762    -1
   23    765   538   766    -1
   24    122     9   389    -1
   25    391   127   390    -1
   26    392   128   776    -1
   27    785   784   782    -1
   28     10   790   394    -1
   29    134   395   135    -1
   30     11   396   137    -1
   31    801   397    12    -1
   32    400    13   804    -1
   33    401   810   139    -1
   34    142   816   403    -1
   35    405   144   404    -1
   36    146   821   406    -1
   37    825   147   824    -1
   38    830   410    14    -1
   39    835   833    15    -1
   40    839   413   415    -1
   41    417    16   418    -1
   42    420   419   842    -1
   43    849   421   422    -1
   44    153    17  1477    -1
   45    856   424    18    -1
   46    157   156   858    -1
   47    159   863   160    -1
   48     19   867   426    -1
   49    871   868   428    -1
   50    165   430    20    -1
   51    434   435   431    -1
   52    169    21   879    -1
   53     22  1106   886    -1
   54    437   890   888    -1
   55    172    23  1130    -1
   56    439   895   177    -1
   57    903   900   904    -1
   58     24   441   442    -1
   59     25   443   910    -1
   60     26   916   180    -1
   61    923   921    27    -1
   62    928    28   926    -1
   63     30    29   444    -1
   64    185   693   447    -1
   65     31   450   186    -1
   66    944   453   454    -1
   67    946  1297   455    -1
   68    949   456   950    -1
   69    955   699   192    -1
   70     32   457   960    -1
   71    459   967   966    -1
   72     33   463   462    -1
   73    973   466   464    -1
   74    469   467   978    -1
   75    986   983   197    -1
   76    198   471   472    -1
   77     34   473   474    -1
   78     35  1000   996    -1
   79    477   476   200    -1
   80   1010   479   480    -1
   81   1016   482    36    -1
   82    484    37   485    -1
   83    205    38   487    -1
   84    206  1528  1025    -1
   85    489   490  1033    -1
   86   1037   492    39    -1
   87     40    41   502    -1
   88   1042  1040   495    -1
   89    496   497  1048    -1
   90    214   498   213    -1
   91    215   499  1055    -1
   92     42  1062  1064    -1
   93     43   219  1067    -1
   94   1070    44    45    -1
   95    503   502  1079    -1
   96    506  1084   221    -1
   97    508  1089   507    -1
   98    510    46  1091    -1
   99   1098   738   225    -1
  100    229   512   228    -1
  101   1108  1107    47    -1
  102   1111    48    49    -1
  103    515  1113  1112    -1
  104   1120  1118   516    -1
  105   1123  1125   518    -1
  106    519   236   234    -1
  107    522  1132   521    -1
  108     50   238   523    -1
  109   1140  1144    51    -1
  110    240  1148   525    -1
  111    535   529   526    -1
  112    244   530   243    -1
  113    531  1123   246    -1
  114   1168    52  1164    -1
  115    533   248   534    -1
  116    536    53   537    -1
  117   1178    54   539    -1
  118   1183   541   540    -1
  119   1187   543    55    -1
  120    258   544   256    -1
  121    547  1196   545    -1
  122    259   548  1198    -1
  123   1246  1206   549    -1
  124    551  1210   921    -1
  125    554   553   261    -1
  126   1218   555   264    -1
  127   1224   557   266    -1
  128   1229  1227   559    -1
  129   1233  1237   269    -1
  130   1242   560    56    -1
  131   1248  1247    57    -1
  132    562   791    58    -1
  133   1253  1224    59    -1
  134    566   564   565    -1
  135   1261    60    61    -1
  136   1265   568  1267    -1
  137   1273   451  1275    -1
  138    570   278  1279    -1
  139     62   571   279    -1
  140    397  1287    63    -1
  141   1334  1294   573    -1
  142   1297    65    64    -1
  143    576  1303   575    -1
  144    282   577  1307    -1
  145   1315   578   283    -1
  146     67   580   581    -1
  147     68   582  1322    -1
  148    584  1328   287    -1
  149    586  1336   288    -1
  150   1341  1339   588    -1
  151    294   293   589    -1
  152   1351   583   591    -1
  153    296   593   295    -1
  154    595  1361   298    -1
  155    598   301   597    -1
  156   1366  1365    69    -1
  157   1372   602   305    -1
  158     70  1376   603    -1
  159    605  1380   606    -1
  160    607   609   464    -1
  161     71   610  1387    -1
  162    611   613   977    -1
  163    617  1397   616    -1
  164     72   618   832    -1
  165    621   619   312    -1
  166    314    74  1412    -1
  167   1415  1419   606    -1
  168    623  1423    75    -1
  169    624  1396   319    -1
  170   1435   622   322    -1
  171   1439    76  1438    -1
  172   1443  1442   628    -1
  173    631   630  1446    -1
  174    633  1451   329    -1
  175    636  1456   330    -1
  176    332  1461   637    -1
  177    638  1463  1462    -1
  178    640  1470  1467    -1
  179    641  1476  1477    -1
  180    642  1482  1006    -1
  181     77   643   654    -1
  182    644  1489   424    -1
  183    648  1494   647    -1
  184    649  1499   342    -1
  185   1504   639   346    -1
  186   1511   651   653    -1
  187    657   349   655    -1
  188    659  1492    78    -1
  189    660    79   350    -1
  190    661   353  1527    -1
  191   1532  1022    80    -1
  192   1536   664   663    -1
  193    870    81   665    -1
  194    358   168   667    -1
  195    875   668    82    -1
  196     83   669   882    -1
  197     84   887   359    -1
  198    171    85   884    -1
  199    671   176   174    -1
  200    672   440   178    -1
  201    673   361    86    -1
  202    362   911   674    -1
  203    676    87   675    -1
  204    679   677   678    -1
  205    683   682   363    -1
  206    686   685     1    -1
  207    689   688   183    -1
  208      2   690   935    -1
  209    187    88   365    -1
  210     90    89   936    -1
  211    695  1300    91    -1
  212    954    92   366    -1
  213    952   698   189    -1
  214    700    93   701    -1
  215    970   702   703    -1
  216    963   461   704    -1
  217    367   976    94    -1
  218     96    95   705    -1
  219    707     3   708    -1
  220     97   989   711    -1
  221     98   998   993    -1
  222    100    99   713    -1
  223    102   101  1474    -1
  224   1014  1009   369    -1
  225   1012   103   202    -1
  226    373   715   716    -1
  227    104  1023   371    -1
  228   1020   372   374    -1
  229    375   719  1035    -1
  230    211   720     4    -1
  231    105   723  1073    -1
  232    106  1045  1041    -1
  233    107  1049   726    -1
  234    108   728   665    -1
  235    729  1063  1056    -1
  236    730   218     5    -1
  237    109   376  1059    -1
  238    734   732   733    -1
  239   1083  1078   736    -1
  240    737   377  1071    -1
  241   1090  1060     6    -1
  242   1097  1094   110    -1
  243    740   111   739    -1
  244    742   741   380    -1
  245    744   379   745    -1
  246    746   382   112    -1
  247    751   747   113    -1
  248    114   750   749    -1
  249   1117   116   115    -1
  250      7   753   117    -1
  251   1133   755   383    -1
  252    118  1131   756    -1
  253    386   757  1143    -1
  254    759   758   385    -1
  255   1169  1149   760    -1
  256    762   761  1154    -1
  257   1160  1159   120    -1
  258    121     8  1155    -1
  259    765   250   764    -1
  260    767   251   766    -1
  261   1176   768  1171    -1
  262    770   769   389    -1
  263    257  1188     9    -1
  264    123   122   124    -1
  265    390  1197   125    -1
  266    126  1201   127    -1
  267   1244  1203   391    -1
  268   1214  1211   393    -1
  269    779   777   128    -1
  270    682   780   392    -1
  271   1223   782   129    -1
  272   1234  1235   131    -1
  273    788   786   785    -1
  274    394   132  1240    -1
  275   1249   789   273    -1
  276    272    10  1243    -1
  277    134   133   793    -1
  278   1260   795   135    -1
  279   1259   136   796    -1
  280   1270   691   137    -1
  281   1280   797   396    -1
  282    798    11  1268    -1
  283    398   799  1283    -1
  284   1289  1291   800    -1
  285   1331  1288    12    -1
  286   1301   803   574    -1
  287    805   138    13    -1
  288   1300   806   400    -1
  289    139   807   140    -1
  290    141   811   810    -1
  291    284   401  1316    -1
  292   1333  1331   142    -1
  293    814   402   291    -1
  294    815   585   817    -1
  295    404   143  1346    -1
  296   1356  1352   144    -1
  297   1354   405   145    -1
  298    819  1364   406    -1
  299    822   302   821    -1
  300    823   146  1363    -1
  301   1373  1370   409    -1
  302    826  1377   408    -1
  303    147   827  1379    -1
  304     14   148  1383    -1
  305    829  1390   410    -1
  306    831   830   309    -1
  307     15  1400  1398    -1
  308    311   833   836    -1
  309   1407   835   310    -1
  310   1413   413  1379    -1
  311    414  1424   412    -1
  312   1422   415   840    -1
  313    418   149  1429    -1
  314    323   841    16    -1
  315    417  1430   150    -1
  316    842   327   325    -1
  317   1449   632   151    -1
  318    843   420  1445    -1
  319    422  1460   152    -1
  320    847   846   421    -1
  321    333   849   331    -1
  322    153   850  1471    -1
  323    154   851   852    -1
  324     17  1473  1474    -1
  325    853  1490   854    -1
  326   1491   856   646    -1
  327     18   338  1517    -1
  328    858  1502   857    -1
  329   1510  1506   156    -1
  330   1507   157   343    -1
  331    159   158   861    -1
  332    862  1521   160    -1
  333    162   161  1515    -1
  334    356  1529    19    -1
  335   1534   357   426    -1
  336   1533   866   354    -1
  337    163   209   429    -1
  338    869   868   427    -1
  339     82   871   164    -1
  340     20   872   666    -1
  341   1065  1054   430    -1
  342    165   874  1061    -1
  343    434   875   167    -1
  344    433   876   168    -1
  345    435  1039  1074    -1
  346   1087  1074   879    -1
  347    882   880    21    -1
  348    884   169  1080    -1
  349   1096   881    22    -1
  350    227   511   170    -1
  351   1105   436   887    -1
  352    888   171  1085    -1
  353    889    84   890    -1
  354   1102   437   891    -1
  355    172   235  1119    -1
  356    173   892   893    -1
  357     23   175   899    -1
  358    896   894   176    -1
  359    239   439   524    -1
  360    177   672  1142    -1
  361   1126   901   673    -1
  362   1141   902   178    -1
  363   1157  1137   904    -1
  364    442   905   245    -1
  365    674   249   441    -1
  366    679    24  1161    -1
  367    909   908   910    -1
  368    254   179   443    -1
  369   1185    25    87    -1
  370    680   681    26    -1
  371   1181   676   180    -1
  372   1180   181   918    -1
  373    182   919  1200    -1
  374    364   922  1212    -1
  375    924   183    27    -1
  376    926   925   683    -1
  377   1225   927    28    -1
  378    184   928   685    -1
  379    444   689   929    -1
  380    930   686    29    -1
  381   1208  1219    30    -1
  382    932  1208   185    -1
  383    934   446   935    -1
  384    936   448   271    -1
  385    937  1258   186    -1
  386    940   939   450    -1
  387     31   452   941    -1
  388    454    90   942    -1
  389    277   187   453    -1
  390    944   943   276    -1
  391    945  1295  1285    -1
  392    188  1298   946    -1
  393    189   455   190    -1
  394    948   947   695    -1
  395   1319  1311   949    -1
  396    951   950    92    -1
  397    953   952   191    -1
  398    957   956   954    -1
  399   1314   959   192    -1
  400    960   193  1335    -1
  401    701   962   457    -1
  402    963    32  1337    -1
  403    966   965    93    -1
  404    297   594   194    -1
  405    459   460   300    -1
  406    969  1338   462    -1
  407    970   461   971    -1
  408   1359    33  1342    -1
  409    972   974   975    -1
  410     94  1385   465    -1
  411    466  1378   709    -1
  412    195   976   705    -1
  413    196   979   467    -1
  414    469   980   981    -1
  415    197   707   982    -1
  416     95   983   985    -1
  417    986   987  1394    -1
  418    472   318   316    -1
  419    711   320   471    -1
  420    713   198  1420    -1
  421    990   710   474    -1
  422    473   328   991    -1
  423    326    34   993    -1
  424    100  1421    35    -1
  425    997   995   199    -1
  426    324   999   317    -1
  427    200  1002  1003    -1
  428    102   201   476    -1
  429    202   477  1004    -1
  430    480  1005   714    -1
  431   1007  1485   479    -1
  432    203  1010  1009    -1
  433     36  1012  1464    -1
  434   1015  1014   482    -1
  435   1486  1016   335    -1
  436    485   204   345    -1
  437    716  1516    37    -1
  438   1020   484   347    -1
  439   1021  1019   487    -1
  440   1531   351    38    -1
  441   1024   205  1023    -1
  442    718   859   206    -1
  443    208   104  1025    -1
  444   1026   652   352    -1
  445    490  1497  1029    -1
  446    489  1031  1030    -1
  447    375  1069   723    -1
  448   1036   340  1035    -1
  449     39  1038   339    -1
  450    164   492   720    -1
  451     41   724   210    -1
  452     40   721   211    -1
  453    877   212  1039    -1
  454    163   494   337    -1
  455   1041  1483  1042    -1
  456    869   725  1043    -1
  457    497   336  1045    -1
  458    270  1046   496    -1
  459    268  1050  1049    -1
  460    213  1051   872    -1
  461   1230   107   498    -1
  462   1228   214  1054    -1
  463    433  1088   499    -1
  464    215  1061   876    -1
  465   1058   216  1059    -1
  466   1062   166  1063    -1
  467     42  1226  1065    -1
  468    218   556  1066    -1
  469   1067   109   223    -1
  470    219   778   730    -1
  471   1215    43   220    -1
  472     45  1029  1068    -1
  473    733  1069    44    -1
  474   1391  1071  1070    -1
  475   1077   504   210    -1
  476   1076  1075   212    -1
  477   1080  1079  1078    -1
  478    221   737  1082    -1
  479   1086  1085  1083    -1
  480   1393   891   506    -1
  481    507  1088  1087    -1
  482    378   222   216    -1
  483    881   739   508    -1
  484   1092  1091   223    -1
  485    241   220    46    -1
  486   1099  1152   510    -1
  487    511  1095   740    -1
  488    224  1097  1098    -1
  489   1101   226   225    -1
  490    228  1102  1401    -1
  491    382   743   889    -1
  492   1404  1104   229    -1
  493     47  1105   742    -1
  494   1136   230   170    -1
  495   1135  1108   744    -1
  496     49   112   231    -1
  497   1110   745    48    -1
  498    237  1111  1409    -1
  499    634   242  1112    -1
  500    748   232  1113    -1
  501   1115   515  1116    -1
  502    113  1448   233    -1
  503   1118   992  1447    -1
  504    175  1120   750    -1
  505   1122   116  1121    -1
  506   1124   114   518    -1
  507   1127  1125  1156    -1
  508    234  1128   235    -1
  509    117  1129   236    -1
  510    173   384   519    -1
  511    753   520  1436    -1
  512    237   321  1132    -1
  513   1133   514   522    -1
  514    523   119   894    -1
  515    238  1109  1134    -1
  516    230    50   239    -1
  517   1139  1137  1138    -1
  518   1142    51  1143    -1
  519   1145   247  1146    -1
  520    524   757   525    -1
  521    226   897  1148    -1
  522    224   240   758    -1
  523    528  1149  1151    -1
  524    526  1099   759    -1
  525    241   529  1172    -1
  526    590   243   242    -1
  527   1154  1116   530    -1
  528   1162  1155   244    -1
  529    532  1121   761    -1
  530    245  1156   531    -1
  531    681  1161   246    -1
  532   1165  1164   121    -1
  533   1166   120    52    -1
  534    918  1168  1167    -1
  535    534  1138   905    -1
  536   1170   764   247    -1
  537   1171   533   249    -1
  538    537  1151   250    -1
  539    262  1172    53    -1
  540   1213   536   251    -1
  541    539  1176   909    -1
  542    260   767    54    -1
  543   1179  1178   179    -1
  544    540  1180   252    -1
  545   1182  1181   541    -1
  546    124  1183   253    -1
  547     55  1185   770    -1
  548   1199  1186   254    -1
  549    255  1187  1188    -1
  550    601   256   123    -1
  551   1195  1190   257    -1
  552   1193  1192   258    -1
  553   1194  1192  1238    -1
  554    125  1190   545    -1
  555    546  1239   774    -1
  556   1198   255  1197    -1
  557    913   548  1200    -1
  558   1202   259  1201    -1
  559    550  1203  1245    -1
  560    929   126   549    -1
  561    445  1205  1207    -1
  562   1209   919  1210    -1
  563   1211   260   551    -1
  564    393  1212   781    -1
  565    261  1213  1214    -1
  566   1215   262   553    -1
  567    263   554   777    -1
  568    264   780   925    -1
  569    265   779   555    -1
  570    217  1218   927    -1
  571    931  1220  1221    -1
  572    130   930   266    -1
  573    787   557  1252    -1
  574    558   129   559    -1
  575   1228  1225  1227    -1
  576   1053   131  1230    -1
  577   1234   267  1232    -1
  578    268  1235   269    -1
  579    270  1237   274    -1
  580     56  1238   304    -1
  581   1240  1239   560    -1
  582    792  1243  1242    -1
  583     57  1245   132    -1
  584    449   933  1205    -1
  585    271  1248  1249    -1
  586   1362  1250   272    -1
  587    943   942   273    -1
  588   1344  1251    58    -1
  589    446   563  1220    -1
  590    793  1252  1253    -1
  591   1258   796    59    -1
  592    565   267   133    -1
  593   1475  1255   274    -1
  594   1257  1256   566    -1
  595     61  1259   937    -1
  596   1469  1260    60    -1
  597    275  1261   939    -1
  598   1263  1262   276    -1
  599   1266  1264   277    -1
  600   1268  1267   290    -1
  601   1272  1271   941    -1
  602   1276  1274   940    -1
  603   1277  1275   797    -1
  604   1330  1279   798    -1
  605   1457  1280   278    -1
  606   1455   570   286    -1
  607    279   341  1327    -1
  608   1283   280   571    -1
  609    281    62  1284    -1
  610    572  1508   799    -1
  611   1028    63  1285    -1
  612    190  1287   800    -1
  613   1290  1288  1332    -1
  614    191  1291   573    -1
  615   1293   289   958    -1
  616     66  1526  1295    -1
  617     64  1296   355    -1
  618   1299    65  1298    -1
  619    575  1302  1301    -1
  620   1303  1368  1304    -1
  621   1305   138  1306    -1
  622   1307   806   947    -1
  623   1309   577  1310    -1
  624   1313   282  1311    -1
  625    579   959  1345    -1
  626    140   956   283    -1
  627    809   292  1316    -1
  628   1318   807   581    -1
  629   1427   580  1320    -1
  630   1444    67   811    -1
  631   1322   284  1349    -1
  632   1450   141   582    -1
  633   1324    68   285    -1
  634   1329  1327   286    -1
  635    813  1284   584    -1
  636   1269   818   287    -1
  637    288  1332  1333    -1
  638    961  1335   289    -1
  639   1338  1337   586    -1
  640    588   817   290    -1
  641    587  1340   291    -1
  642   1344  1342  1341    -1
  643    589  1345   193    -1
  644   1347  1346   292    -1
  645    145   294   962    -1
  646    592  1349   143    -1
  647    590  1153   285    -1
  648   1162  1353   591    -1
  649    295  1354   965    -1
  650   1357  1356   593    -1
  651   1358  1167   296    -1
  652    596  1359  1360    -1
  653    407   820   971    -1
  654    792  1363   298    -1
  655    599   597   300    -1
  656    542   252   194    -1
  657    253   598   302    -1
  658    600   823  1241    -1
  659    303   822  1366    -1
  660   1193  1191    69    -1
  661    305  1538  1411    -1
  662   1370   306   602    -1
  663    313   409  1372    -1
  664    603   307  1373    -1
  665    974  1375  1376    -1
  666   1378    70  1377    -1
  667    315   604   828    -1
  668    605   709   826    -1
  669   1416   470  1381    -1
  670    609  1525   972    -1
  671   1383   308   607    -1
  672    309   608  1385    -1
  673    148  1389  1522    -1
  674    610  1519  1520    -1
  675   1072    71  1390    -1
  676    195   411   831    -1
  677    611  1391   829    -1
  678    979   612   614    -1
  679    616   988  1395    -1
  680   1397   981   984    -1
  681    310   617  1428    -1
  682   1400   468  1399    -1
  683     72  1393   196    -1
  684   1403    73   311    -1
  685    312  1407  1406    -1
  686    231   834   619    -1
  687   1408   620   621    -1
  688   1411  1410  1305    -1
  689   1413   313    74    -1
  690    314  1306  1309    -1
  691    315   837   412    -1
  692    316  1416  1417    -1
  693   1420  1419   838    -1
  694     75  1422  1310    -1
  695   1425  1424  1423    -1
  696    317   623  1313    -1
  697    625  1395   318    -1
  698   1429  1428   624    -1
  699    319   320   710    -1
  700   1433  1406   149    -1
  701    321  1408  1435    -1
  702    322   841  1437    -1
  703    150   990   991    -1
  704   1129   323    76    -1
  705    992  1128  1439    -1
  706    629   628   324    -1
  707    627   325   199    -1
  708   1321  1445  1443    -1
  709    632  1446   326    -1
  710   1448  1447   328    -1
  711    233   631  1449    -1
  712    635   843  1450    -1
  713    634   232   151    -1
  714   1325  1454   329    -1
  715    330  1455  1498    -1
  716    152  1457  1456    -1
  717    331   636  1458    -1
  718    637  1277  1460    -1
  719   1461  1001  1274    -1
  720   1004   332   846    -1
  721   1462   333   334    -1
  722   1464   847  1463    -1
  723    335   638   344    -1
  724   1467   275  1002    -1
  725   1470  1257  1469    -1
  726    201  1472   640    -1
  727    850  1475  1256    -1
  728    641  1047  1255    -1
  729    336  1478   851    -1
  730   1005  1481  1480    -1
  731   1483   154   642    -1
  732    337  1484  1485    -1
  733    348   483  1486    -1
  734     77  1487  1015    -1
  735    338  1488  1514    -1
  736   1489   203  1490    -1
  737    339  1007   644    -1
  738    340   645  1491    -1
  739    647   155  1518    -1
  740   1030  1493  1494    -1
  741   1497   648  1496    -1
  742    650  1498   341    -1
  743    857  1458   649    -1
  744    343   342   280    -1
  745   1505  1503   334    -1
  746   1017   345   344    -1
  747    859   347   346    -1
  748   1512  1509  1507    -1
  749    207  1510  1511    -1
  750   1028  1027   653    -1
  751    655   348   204    -1
  752    861  1514   349    -1
  753   1019  1515   657    -1
  754    658  1518   158    -1
  755   1520  1496   659    -1
  756   1523  1522    78    -1
  757    486   350   162    -1
  758    308   862    79    -1
  759   1525   660   351    -1
  760   1530  1527   352    -1
  761    865   864   208    -1
  762    354   661   355    -1
  763    662  1024   356    -1
  764   1374  1375  1531    -1
  765   1369   307    80    -1
  766    663  1533  1302    -1
  767    306  1534   664    -1
  768   1538  1536  1304    -1
  769    358   667    81    -1
  770    358    81   431    -1
  771    668    81   427    -1
  772    359   885    83    -1
  773     85    84   359    -1
  774     85    83   883    -1
  775    440   176   360    -1
  776    900   360   361    -1
  777    893   361   174    -1
  778    362    87   915    -1
  779    677   675   678    -1
  780    678   362   907    -1
  781    684   683     1    -1
  782    687     1   688    -1
  783    688   363   364    -1
  784      2    88   452    -1
  785     89   187   365    -1
  786     89     2   693    -1
  787    366   696    91    -1
  788    698   699    91    -1
  789    698    91   697    -1
  790    703   460   700    -1
  791    461   703   704    -1
  792    703   458   704    -1
  793    367    96   976    -1
  794    706    96     3    -1
  795    368     3    94    -1
  796     97   993   475    -1
  797    995    98    99    -1
  798     98   712    99    -1
  799    369   481   101    -1
  800    369   101  1013    -1
  801    103   101   370    -1
  802    371   488   373    -1
  803    374   104   371    -1
  804    371   717   374    -1
  805      4  1037   719    -1
  806      4   105   724    -1
  807    105   719   375    -1
  808    726  1048   106    -1
  809    727   726   108    -1
  810    106   725   728    -1
  811   1064   729   376    -1
  812    109   731     5    -1
  813    376   729  1058    -1
  814   1077   732   736    -1
  815    505   736   377    -1
  816    734   733   377    -1
  817    110  1092     6    -1
  818    111   738     6    -1
  819    111     6   378    -1
  820    381   379   380    -1
  821    746   513   380    -1
  822    746   380   382    -1
  823    517   747   115    -1
  824    752   749   115    -1
  825    115   747   751    -1
  826    755   754     7    -1
  827    383   755   118    -1
  828      7   384  1131    -1
  829    385  1147   386    -1
  830   1149  1150   385    -1
  831   1146   760   386    -1
  832   1159   761   387    -1
  833   1163   387     8    -1
  834    762  1154     8    -1
  835   1175   250   766    -1
  836    768   538   765    -1
  837    765   764   768    -1
  838    771   770     9    -1
  839    388     9   122    -1
  840    389  1182   122    -1
  841    127   773   390    -1
  842   1203  1204   127    -1
  843    774   391   390    -1
  844    128   775   776    -1
  845    780  1216   128    -1
  846    392   776   393    -1
  847    784   783   782    -1
  848    786  1234   784    -1
  849    787   785   782    -1
  850    789   132   790    -1
  851    791   790    10    -1
  852    394  1240    10    -1
  853    794   133   135    -1
  854    136   395   134    -1
  855    136   134  1254    -1
  856    396  1272   137    -1
  857    569   396    11    -1
  858    137  1264    11    -1
  859    397   398    12    -1
  860   1289   801    12    -1
  861     12   398   399    -1
  862     13   802   804    -1
  863     13   400   806    -1
  864    400   804   574    -1
  865    810   808   139    -1
  866    284  1323   810    -1
  867   1316   401   139    -1
  868    403   402   142    -1
  869    815   816   142    -1
  870    815   142   585    -1
  871   1350   143   144    -1
  872   1355   144   405    -1
  873    405   404  1347    -1
  874    821   599   406    -1
  875   1365   821   146    -1
  876    406   820   146    -1
  877    147   408   824    -1
  878    604   408   147    -1
  879    147   825   409    -1
  880    410  1388    14    -1
  881    410   830   831    -1
  882     14  1384   309    -1
  883    833   832    15    -1
  884    833   835  1407    -1
  885     15   615   310    -1
  886    414   412   413    -1
  887    414   413   839    -1
  888    415   413  1414    -1
  889    416   149    16    -1
  890    626    16   417    -1
  891    418  1429   417    -1
  892    632   327   419    -1
  893   1451   419   420    -1
  894    842   325   420    -1
  895    421   845   422    -1
  896    421   849   333    -1
  897    422   423   331    -1
  898     17   852  1477    -1
  899   1481   852    17    -1
  900     17   153  1472    -1
  901    424   853    18    -1
  902    646   856    18    -1
  903     18   853   855    -1
  904   1505  1502   156    -1
  905    651   156   157    -1
  906    858   857   157    -1
  907    860   158   160    -1
  908    161   863   159    -1
  909    161   159   656    -1
  910    426   425    19    -1
  911    866   867    19    -1
  912    866    19   865    -1
  913    868   495   428    -1
  914    868   871    82    -1
  915    428   429   164    -1
  916    430  1052    20    -1
  917    873   430   165    -1
  918     20   667   874    -1
  919    435   432   431    -1
  920    432   435   878    -1
  921    434   877  1039    -1
  922    509  1087    21    -1
  923    883    21   169    -1
  924    879  1075   169    -1
  925    886   511    22    -1
  926    436  1106    22    -1
  927    436    22   885    -1
  928    670   171   890    -1
  929   1103   890   437    -1
  930    888  1085   437    -1
  931     23   892  1130    -1
  932    893   892    23    -1
  933     23   172   438    -1
  934    895   896   177    -1
  935    524   439   177    -1
  936    177   896   440    -1
  937    900   901   904    -1
  938   1137  1141   903    -1
  939   1127   904   901    -1
  940    906   905   441    -1
  941    907   441    24    -1
  942    442   245    24    -1
  943    912   909   443    -1
  944    914   443    25    -1
  945    910   911    25    -1
  946    180   677    26    -1
  947    181   916    26    -1
  948    181    26   917    -1
  949    921   182    27    -1
  950    364   923    27    -1
  951     27   182   920    -1
  952     28  1217   926    -1
  953    184   558    28    -1
  954    928   926   684    -1
  955     29   687   444    -1
  956   1219   931    29    -1
  957     30   444   445    -1
  958    447   446   185    -1
  959    448   693   185    -1
  960    448   185   449    -1
  961    450   938   186    -1
  962    451   450    31    -1
  963    186   690    31    -1
  964    692    90   453    -1
  965    568   453   944    -1
  966    944   454   943    -1
  967   1297   945   455    -1
  968    189   697   946    -1
  969    190   455   945    -1
  970    456   948   950    -1
  971    951  1318   949    -1
  972     92   950   948    -1
  973    699   953   192    -1
  974    957   955   192    -1
  975    192   953  1293    -1
  976   1348   193   457    -1
  977    458   457    32    -1
  978    960  1335    32    -1
  979    967   594   966    -1
  980    968   967   459    -1
  981    966    93   459    -1
  982    463   461   462    -1
  983   1361   463    33    -1
  984    462  1340    33    -1
  985    466   465   464    -1
  986    368   465   466    -1
  987    466   973   975    -1
  988    467   977   978    -1
  989    467   469  1399    -1
  990    469   978   705    -1
  991    983   706   197    -1
  992    983   986   988    -1
  993    197   470   987    -1
  994   1431   318   471    -1
  995    712   471   198    -1
  996   1418   198   316    -1
  997    474   473   990    -1
  998    994   473    34    -1
  999    475    34   989    -1
 1000    996   995    35    -1
 1001    999  1000    35    -1
 1002    999    35  1426    -1
 1003    476  1468   200    -1
 1004    476   477   202    -1
 1005    200   478  1004    -1
 1006    479  1006   480    -1
 1007    479  1010   203    -1
 1008    480   481  1009    -1
 1009    482  1013    36    -1
 1010    482  1016  1486    -1
 1011     36  1465   335    -1
 1012   1018   204    37    -1
 1013    717    37   484    -1
 1014    485   345   484    -1
 1015    486  1021    38    -1
 1016   1022    38   205    -1
 1017    487   715   205    -1
 1018   1025   372   206    -1
 1019   1026  1528   206    -1
 1020   1026   206   652    -1
 1021    489  1495   490    -1
 1022    375   489  1034    -1
 1023    489  1033  1034    -1
 1024     39   491  1036    -1
 1025    429    39   492    -1
 1026   1037    39  1036    -1
 1027     40   722    41    -1
 1028    877    40   493    -1
 1029     40   502   493    -1
 1030   1042   494  1040    -1
 1031    725  1042  1043    -1
 1032   1042   495  1043    -1
 1033    496  1044   497    -1
 1034   1050   270   496    -1
 1035    496  1048  1050    -1
 1036    213   107   727    -1
 1037    214  1230   498    -1
 1038    214   213  1052    -1
 1039    215   433   499    -1
 1040   1058   215  1057    -1
 1041    215  1055  1057    -1
 1042     42   873  1062    -1
 1043    556    42  1066    -1
 1044     42  1064  1066    -1
 1045    219   731  1067    -1
 1046    263    43   500    -1
 1047     43  1067  1093    -1
 1048     44  1033    45    -1
 1049   1071   735    44    -1
 1050   1072  1070    45    -1
 1051    502   504  1079    -1
 1052   1080  1076   503    -1
 1053   1078  1079   504    -1
 1054   1084   505   221    -1
 1055   1086  1084   506    -1
 1056   1392   506   221    -1
 1057   1089  1055   507    -1
 1058    378  1089   508    -1
 1059    508   507   509    -1
 1060     46  1093  1091    -1
 1061   1152   527    46    -1
 1062    510  1091  1092    -1
 1063    738  1095   225    -1
 1064   1100  1098   225    -1
 1065    225  1095   511    -1
 1066    512  1103   228    -1
 1067    512   229  1104    -1
 1068   1403   229   228    -1
 1069   1107  1106    47    -1
 1070   1135  1136  1107    -1
 1071    744  1108    47    -1
 1072     48   513    49    -1
 1073    237   514    48    -1
 1074   1409  1111    49    -1
 1075    232  1112  1113    -1
 1076    748   515   751    -1
 1077    515  1112  1114    -1
 1078    516  1447  1448    -1
 1079    438  1118  1120    -1
 1080   1120   516   517    -1
 1081    114  1122   518    -1
 1082   1126   518  1125    -1
 1083   1123   518  1122    -1
 1084    234  1129  1440    -1
 1085    519   117   236    -1
 1086    519   234  1130    -1
 1087    521   321   520    -1
 1088    522   237  1132    -1
 1089    522   521   754    -1
 1090    238   383   523    -1
 1091     50  1135   238    -1
 1092     50   523   895    -1
 1093     51  1141  1139    -1
 1094   1145    51  1144    -1
 1095   1140    51  1139    -1
 1096   1148   524   525    -1
 1097    226   240  1100    -1
 1098    240   525  1147    -1
 1099    526  1150   528    -1
 1100    527   526   529    -1
 1101    535   526   528    -1
 1102    530  1114   243    -1
 1103    763   530   244    -1
 1104   1353   244   243    -1
 1105   1123   532   246    -1
 1106   1158   531   246    -1
 1107    246   532  1159    -1
 1108     52  1163  1164    -1
 1109    918   917    52    -1
 1110   1167  1168  1164    -1
 1111    248  1140   534    -1
 1112   1171  1170   248    -1
 1113    249   533   534    -1
 1114     53   535   537    -1
 1115   1213  1174    53    -1
 1116    251   536   537    -1
 1117     54   538   539    -1
 1118   1179  1209    54    -1
 1119    179  1178   539    -1
 1120    541   916   540    -1
 1121    124  1184   541    -1
 1122    253  1183   540    -1
 1123    543   914    55    -1
 1124    255  1199   543    -1
 1125   1188  1187    55    -1
 1126    544   388   256    -1
 1127   1195   544   258    -1
 1128   1191   258   256    -1
 1129    545  1195  1194    -1
 1130    125  1196   546    -1
 1131    547   545  1194    -1
 1132    548  1199  1198    -1
 1133   1200   259   920    -1
 1134    259  1198   773    -1
 1135    126   550   549    -1
 1136    445   549  1206    -1
 1137   1246   549   550    -1
 1138    260  1210   551    -1
 1139    393   551   552    -1
 1140    551   921   552    -1
 1141    261   262  1174    -1
 1142    500   553   554    -1
 1143    554   261   775    -1
 1144    779   264   555    -1
 1145    265  1218   556    -1
 1146   1218   264  1217    -1
 1147    266   931  1221    -1
 1148    130   557  1223    -1
 1149   1224   266  1221    -1
 1150   1227   558   559    -1
 1151   1053  1227  1229    -1
 1152   1229   559   783    -1
 1153    269  1234  1232    -1
 1154    268  1237  1236    -1
 1155   1233   269  1232    -1
 1156    560   547    56    -1
 1157   1243   561   560    -1
 1158   1241  1242    56    -1
 1159   1247  1246    57    -1
 1160    271   449  1247    -1
 1161   1249  1248    57    -1
 1162    791  1250    58    -1
 1163    943   562    58    -1
 1164     58  1250  1362    -1
 1165   1224   563    59    -1
 1166   1254  1253    59    -1
 1167     59   563   446    -1
 1168    564  1233   565    -1
 1169   1256  1475   564    -1
 1170    795   566   565    -1
 1171     60   395    61    -1
 1172    275   567    60    -1
 1173    939  1261    61    -1
 1174    568  1262  1267    -1
 1175   1268  1266  1265    -1
 1176    290  1267  1262    -1
 1177    451  1271  1275    -1
 1178   1277  1276  1273    -1
 1179    797  1275  1271    -1
 1180    278   569  1279    -1
 1181   1455  1281   278    -1
 1182    286   570  1279    -1
 1183    280   279   571    -1
 1184   1283    62   399    -1
 1185     62   279  1328    -1
 1186     63  1512   572    -1
 1187   1286    63  1287    -1
 1188    397    63   572    -1
 1189    573  1289  1290    -1
 1190    191  1294  1293    -1
 1191   1334   573  1290    -1
 1192     64  1530    66    -1
 1193    574    64    65    -1
 1194   1297    64    66    -1
 1195    575  1304  1535    -1
 1196   1410   576  1305    -1
 1197    576   575   802    -1
 1198    577  1308  1307    -1
 1199   1310   282  1312    -1
 1200    282  1307   456    -1
 1201    283   957   579    -1
 1202    140   578   809    -1
 1203   1315   283   579    -1
 1204    580  1318   581    -1
 1205   1320    67   629    -1
 1206     67   581   808    -1
 1207    141  1322   582    -1
 1208   1450    68  1453    -1
 1209     68  1322   583    -1
 1210   1328  1329   287    -1
 1211    585   584   287    -1
 1212    287  1329  1330    -1
 1213   1336  1334   288    -1
 1214    961  1336   586    -1
 1215    814   586   288    -1
 1216   1339   816   588    -1
 1217    587  1339  1341    -1
 1218   1343  1341   588    -1
 1219    293  1315   589    -1
 1220    145  1347   293    -1
 1221    294   589  1348    -1
 1222    583   592   591    -1
 1223    590  1351   591    -1
 1224    591   592  1350    -1
 1225    593  1355   295    -1
 1226   1165   593   296    -1
 1227    297   296   295    -1
 1228   1361   596   298    -1
 1229    407   595   298    -1
 1230    298   596  1362    -1
 1231    301   968   597    -1
 1232    253   542   301    -1
 1233    302   598   597    -1
 1234   1365   600    69    -1
 1235    601  1366    69    -1
 1236     69   600  1367    -1
 1237    305   306  1537    -1
 1238    409   602  1372    -1
 1239   1372   305  1371    -1
 1240    603  1375  1374    -1
 1241     70   974  1376    -1
 1242     70   603   824    -1
 1243    605   604  1380    -1
 1244    470   605  1381    -1
 1245    605   606  1381    -1
 1246    609   308  1524    -1
 1247   1384   607   608    -1
 1248    607   464   608    -1
 1249    610  1389  1387    -1
 1250     71  1068   610    -1
 1251     71  1387  1388    -1
 1252    611   411   613    -1
 1253    612   611   614    -1
 1254    611   977   614    -1
 1255    616   984   985    -1
 1256    615  1397   617    -1
 1257    617   616  1396    -1
 1258     72   468   618    -1
 1259   1402    72    73    -1
 1260     72   832    73    -1
 1261    312   834   836    -1
 1262    621   231   619    -1
 1263    621   312   622    -1
 1264     74  1371  1412    -1
 1265     74   314   840    -1
 1266    314  1412  1305    -1
 1267   1419  1417   606    -1
 1268   1417  1419  1420    -1
 1269   1419  1415   412    -1
 1270   1423   839    75    -1
 1271    317  1426  1423    -1
 1272     75  1312  1313    -1
 1273   1396   625   319    -1
 1274   1430   624   319    -1
 1275    319   625  1431    -1
 1276    622  1433   322    -1
 1277    520  1435   322    -1
 1278    322  1433   416    -1
 1279     76   626  1438    -1
 1280   1128  1440    76    -1
 1281   1439  1438   991    -1
 1282   1442  1000   628    -1
 1283    627  1442  1443    -1
 1284   1444  1443   628    -1
 1285    630   994  1446    -1
 1286    233  1448   630    -1
 1287    631  1446   632    -1
 1288   1451   635   329    -1
 1289    634   633   329    -1
 1290    329   635  1453    -1
 1291    330  1457  1281    -1
 1292    636   152  1456    -1
 1293    636   330  1499    -1
 1294    637  1274  1276    -1
 1295    332  1003  1461    -1
 1296    332   637   845    -1
 1297   1462   847   848    -1
 1298    638  1464  1463    -1
 1299    638  1462   639    -1
 1300   1470   567  1467    -1
 1301    640  1471  1470    -1
 1302    640  1467  1468    -1
 1303    641  1475  1476    -1
 1304   1044   641  1478    -1
 1305    641  1477  1478    -1
 1306   1482   154  1481    -1
 1307    494   642  1484    -1
 1308    642  1006  1484    -1
 1309     77   483   643    -1
 1310    855    77  1488    -1
 1311     77   654  1488    -1
 1312    644  1008  1489    -1
 1313    339   645   491    -1
 1314    644   424   645    -1
 1315   1494   646   647    -1
 1316   1030   648  1495    -1
 1317    648   647  1492    -1
 1318   1499   650   342    -1
 1319    649   342   343    -1
 1320    280   342   650    -1
 1321    639  1503   346    -1
 1322   1017  1504   346    -1
 1323    346  1503  1505    -1
 1324    651  1509   653    -1
 1325    652  1511   653    -1
 1326    653  1509  1512    -1
 1327    349   654   655    -1
 1328   1515   656   349    -1
 1329   1516   657   655    -1
 1330   1492   658    78    -1
 1331   1389   659    78    -1
 1332     78   658   860    -1
 1333     79   863   350    -1
 1334   1525  1524    79    -1
 1335    351   660   350    -1
 1336    353  1528  1527    -1
 1337    354   865   353    -1
 1338    355   661  1527    -1
 1339   1022   662    80    -1
 1340   1374  1532    80    -1
 1341     80   662   425    -1
 1342    664   867   663    -1
 1343   1538  1537   664    -1
 1344   1304  1536   663    -1
 1345     81   666   665    -1
 1346    667   666    81    -1
 1347     81   870   427    -1
 1348    168   874   667    -1
 1349   1061   874   168    -1
 1350    168   358   431    -1
 1351    668   427    82    -1
 1352    431   668   875    -1
 1353    167   875    82    -1
 1354    881   880   669    -1
 1355    885   669    83    -1
 1356    882    21    83    -1
 1357    887   885   359    -1
 1358    741   887    84    -1
 1359    670    84    85    -1
 1360    883   169    85    -1
 1361    670    85   171    -1
 1362    884  1080   171    -1
 1363    176   756   174    -1
 1364    176   671   360    -1
 1365    361   671   174    -1
 1366    440   360   178    -1
 1367   1142   672   178    -1
 1368    178   360   900    -1
 1369    361   893    86    -1
 1370    901   900   361    -1
 1371   1124   673    86    -1
 1372    908   249   911    -1
 1373    915   911   362    -1
 1374    674   441   362    -1
 1375    675    87   362    -1
 1376    769    87   676    -1
 1377    676   675   677    -1
 1378    907    24   678    -1
 1379    680   677   679    -1
 1380    680   679   681    -1
 1381    682   922   363    -1
 1382    683   363     1    -1
 1383    363   922   364    -1
 1384    685   684     1    -1
 1385    930  1222   685    -1
 1386     29   686     1    -1
 1387    688   364   183    -1
 1388    444   687   688    -1
 1389    929   689   183    -1
 1390   1258   934   690    -1
 1391    452   690     2    -1
 1392    935   447     2    -1
 1393    365    88     2    -1
 1394    691    88   187    -1
 1395    692   187    89    -1
 1396    693   448    89    -1
 1397    692    89    90    -1
 1398    936   271    90    -1
 1399   1300   188    91    -1
 1400    696   695    91    -1
 1401     91   188   697    -1
 1402     92   696   366    -1
 1403    956  1317    92    -1
 1404    955   954   366    -1
 1405    698   697   189    -1
 1406    953   699   698    -1
 1407    191   952   189    -1
 1408    964   962    93    -1
 1409    460    93   700    -1
 1410    701   457   700    -1
 1411    702   460   703    -1
 1412   1364   702   970    -1
 1413    970   703   461    -1
 1414    458    32   704    -1
 1415    969   461   963    -1
 1416    969   963  1338    -1
 1417    976  1386    94    -1
 1418     96   705   976    -1
 1419      3   367    94    -1
 1420     95   980   705    -1
 1421    981   980    95    -1
 1422     95    96   706    -1
 1423      3   368   708    -1
 1424      3   707   197    -1
 1425    707   708   709    -1
 1426    710   320   989    -1
 1427    475   989    97    -1
 1428    711   471    97    -1
 1429     98   993    97    -1
 1430    997   998    98    -1
 1431    997    98   995    -1
 1432    712   198    99    -1
 1433    995    99   100    -1
 1434   1421   100  1420    -1
 1435    101   714  1474    -1
 1436    481   714   101    -1
 1437    101   102   370    -1
 1438   1009   481   369    -1
 1439   1009  1014  1015    -1
 1440    369  1013   482    -1
 1441    103   370   202    -1
 1442    103  1012    36    -1
 1443    202  1011  1464    -1
 1444   1019  1516   715    -1
 1445    488   715   373    -1
 1446    716    37   373    -1
 1447   1023   488   371    -1
 1448   1529  1023   104    -1
 1449    372   104   374    -1
 1450    717   484   374    -1
 1451    718   372  1020    -1
 1452   1020   347   718    -1
 1453   1032   340  1031    -1
 1454    719  1036  1035    -1
 1455    375  1035  1032    -1
 1456      4   492  1037    -1
 1457    211   164   720    -1
 1458    211     4   722    -1
 1459    105   375   723    -1
 1460      4   724   722    -1
 1461    105  1073   724    -1
 1462   1041   336  1479    -1
 1463    106   497  1045    -1
 1464    106  1041   725    -1
 1465    726  1050  1048    -1
 1466    107   268  1049    -1
 1467    107   726   727    -1
 1468    106   728   108    -1
 1469    727   108  1051    -1
 1470    108   665  1051    -1
 1471   1056   166  1061    -1
 1472    729  1062  1063    -1
 1473    729  1056  1058    -1
 1474      5  1066  1064    -1
 1475    778   218   730    -1
 1476    730     5   731    -1
 1477    376  1058  1059    -1
 1478    109     5   376    -1
 1479    109  1059  1060    -1
 1480    732  1073   733    -1
 1481    732   734   736    -1
 1482    733   735   377    -1
 1483   1078  1077   736    -1
 1484   1085  1081  1078    -1
 1485   1083   736   505    -1
 1486    377   735  1071    -1
 1487    221   505   377    -1
 1488    737  1071  1391    -1
 1489   1060   222     6    -1
 1490   1092  1090     6    -1
 1491      6   222   378    -1
 1492   1094  1092   110    -1
 1493    224  1099  1094    -1
 1494   1098  1097   110    -1
 1495    111   378   739    -1
 1496   1095   738   111    -1
 1497   1096   740   739    -1
 1498    741   743   380    -1
 1499    379   742   380    -1
 1500    380   743   382    -1
 1501    379   381   745    -1
 1502   1110  1109   744    -1
 1503     48   745   381    -1
 1504    382  1104   112    -1
 1505     49   513   746    -1
 1506    112  1104  1404    -1
 1507    113  1452   748    -1
 1508    517   113   747    -1
 1509    751   113   748    -1
 1510    750   517   749    -1
 1511    175   114   899    -1
 1512    114   749   752    -1
 1513    115   751  1115    -1
 1514    752   115   116    -1
 1515   1117   115  1115    -1
 1516    117  1436  1437    -1
 1517      7   521   753    -1
 1518      7   117   384    -1
 1519    755   522   754    -1
 1520   1109  1133  1134    -1
 1521   1133   383  1134    -1
 1522      7  1131   118    -1
 1523    383   118   119    -1
 1524    118   756   119    -1
 1525    757  1142  1143    -1
 1526    386   525   757    -1
 1527    386  1143  1145    -1
 1528    385   240  1147    -1
 1529    759   224   758    -1
 1530    759   385  1150    -1
 1531   1146   386  1145    -1
 1532   1149   385   760    -1
 1533   1169   760  1146    -1
 1534    761  1117  1154    -1
 1535    761   762   387    -1
 1536   1154   763     8    -1
 1537   1159   387   120    -1
 1538    681  1160   120    -1
 1539     52   120   387    -1
 1540      8   763  1155    -1
 1541   1164  1163     8    -1
 1542    121  1155  1162    -1
 1543    250  1169   764    -1
 1544    250   765   766    -1
 1545    764  1170   768    -1
 1546    251  1175   766    -1
 1547    260  1177   251    -1
 1548     54   767   766    -1
 1549    768  1170  1171    -1
 1550    538   768  1176    -1
 1551   1176  1171   908    -1
 1552    769  1182   389    -1
 1553    770   389     9    -1
 1554   1182  1184   122    -1
 1555   1188   771     9    -1
 1556    772  1188   257    -1
 1557    544   257     9    -1
 1558    122  1184   124    -1
 1559    256   388   122    -1
 1560    123   124  1189    -1
 1561    255   125  1197    -1
 1562   1198   390   773    -1
 1563    390   125   546    -1
 1564    259   127  1201    -1
 1565   1202   126   924    -1
 1566    126   127  1204    -1
 1567    774   390   546    -1
 1568   1203   127   391    -1
 1569   1244   391   774    -1
 1570   1214  1177  1211    -1
 1571    776   261  1214    -1
 1572   1214   393   776    -1
 1573    128   554   775    -1
 1574    779   263   777    -1
 1575    779   128  1216    -1
 1576    392   393   781    -1
 1577    780   128   392    -1
 1578    682   392   781    -1
 1579    129  1222   130    -1
 1580    783   129   782    -1
 1581   1223   129   130    -1
 1582    131   783   784    -1
 1583   1231   131  1235    -1
 1584   1234   131   784    -1
 1585    787   782  1223    -1
 1586    786   784   785    -1
 1587    788   785   787    -1
 1588    132  1244  1240    -1
 1589    132   394   790    -1
 1590   1240   561    10    -1
 1591    789   790   273    -1
 1592    694  1249   273    -1
 1593    273   790   791    -1
 1594     10   561  1243    -1
 1595   1250   791    10    -1
 1596    272  1243   792    -1
 1597    133   788   793    -1
 1598    133   134   135    -1
 1599    134   793  1254    -1
 1600    795   794   135    -1
 1601   1469  1257   795    -1
 1602     60  1260   135    -1
 1603    136  1254   796    -1
 1604     61   395   136    -1
 1605    937  1259   796    -1
 1606    691  1264   137    -1
 1607   1272  1270   137    -1
 1608   1264  1266    11    -1
 1609    797  1272   396    -1
 1610   1457   844   797    -1
 1611    278  1280   396    -1
 1612     11  1266  1268    -1
 1613   1279   569    11    -1
 1614    798  1268  1269    -1
 1615    799  1501  1283    -1
 1616    397   799   398    -1
 1617    398  1283   399    -1
 1618    800   397   801    -1
 1619    190  1291  1292    -1
 1620   1289   800   801    -1
 1621     12   399   281    -1
 1622   1289    12  1288    -1
 1623   1331    12   281    -1
 1624    803  1302  1296    -1
 1625    575   804   802    -1
 1626   1301   574   804    -1
 1627    576    13   138    -1
 1628   1309   138   805    -1
 1629    805    13  1308    -1
 1630    400   574  1299    -1
 1631     13   806  1308    -1
 1632   1300   400  1299    -1
 1633    951   140   807    -1
 1634    581   139   808    -1
 1635    139   140   809    -1
 1636     67   810   811    -1
 1637   1444   141  1321    -1
 1638    141   810  1323    -1
 1639   1316   139   809    -1
 1640    284   810   401    -1
 1641    284  1316   812    -1
 1642   1331   813   142    -1
 1643    402  1333   142    -1
 1644    142   813   585    -1
 1645    402   403   291    -1
 1646   1338   814   291    -1
 1647    291   403   816    -1
 1648    585   818   817    -1
 1649    588   816   815    -1
 1650    290   817   818    -1
 1651    143   812  1346    -1
 1652    143   404   144    -1
 1653    404  1346  1347    -1
 1654   1352  1350   144    -1
 1655   1162  1352  1356    -1
 1656    593  1356   144    -1
 1657    405  1347   145    -1
 1658    295  1355   405    -1
 1659    965  1354   145    -1
 1660   1364   820   406    -1
 1661    599   819   406    -1
 1662    820   407   146    -1
 1663    302   599   821    -1
 1664    303  1189   302    -1
 1665   1366   822   821    -1
 1666    146   407  1363    -1
 1667    600  1365   146    -1
 1668    823  1363   792    -1
 1669   1370   307  1369    -1
 1670    825   603  1373    -1
 1671   1373   409   825    -1
 1672    408    70   824    -1
 1673    709  1377   826    -1
 1674    826   408   604    -1
 1675    147   409   827    -1
 1676    604   147   828    -1
 1677    147  1379   828    -1
 1678    148  1523  1383    -1
 1679     14  1387   148    -1
 1680     14  1383  1384    -1
 1681    410    71  1388    -1
 1682    829  1072  1390    -1
 1683    829   410   411    -1
 1684     14   309   830    -1
 1685    410   831   411    -1
 1686    831   309  1386    -1
 1687   1400   981  1398    -1
 1688     15   618  1400    -1
 1689     15  1398   615    -1
 1690    833    73   832    -1
 1691   1404   311   834    -1
 1692    311   836   834    -1
 1693     15   310   835    -1
 1694    833  1407   836    -1
 1695   1407   310  1405    -1
 1696    413   837  1379    -1
 1697    412   837   413    -1
 1698    413  1413  1414    -1
 1699   1424   838   412    -1
 1700    838  1424  1425    -1
 1701    414   839  1423    -1
 1702    415  1414   840    -1
 1703     75   839   415    -1
 1704   1310  1422   840    -1
 1705    149  1405  1429    -1
 1706    149   418    16    -1
 1707   1429  1430   417    -1
 1708    841   416    16    -1
 1709   1437   841   323    -1
 1710     16   626    76    -1
 1711   1430  1432   150    -1
 1712    626   417   150    -1
 1713    150  1432   710    -1
 1714    327   998   325    -1
 1715    327   842   419    -1
 1716    325   627   420    -1
 1717    632   419   151    -1
 1718   1452  1449   151    -1
 1719    151   419  1451    -1
 1720    420   627  1445    -1
 1721    635  1451   420    -1
 1722    843  1445  1321    -1
 1723    152  1277   844    -1
 1724    422   637  1460    -1
 1725    422   152   423    -1
 1726    421   332   845    -1
 1727   1011   846   847    -1
 1728    847   421   848    -1
 1729    422   331   849    -1
 1730    421   333   848    -1
 1731    333   331  1459    -1
 1732    850  1257  1471    -1
 1733    153  1476   850    -1
 1734    153  1471  1472    -1
 1735    851  1477   852    -1
 1736    154   336   851    -1
 1737    154   852  1481    -1
 1738     17  1472  1473    -1
 1739   1481    17  1480    -1
 1740     17  1474  1480    -1
 1741    854   203  1487    -1
 1742    424  1490   853    -1
 1743    853   854   855    -1
 1744   1491   424   856    -1
 1745    340  1493  1031    -1
 1746   1491   646  1493    -1
 1747     18   855   338    -1
 1748    646    18   155    -1
 1749     18  1517   155    -1
 1750   1502  1459   857    -1
 1751   1502   858   156    -1
 1752    857  1500   157    -1
 1753   1506  1505   156    -1
 1754    207   859  1506    -1
 1755   1511  1510   156    -1
 1756    157  1500   343    -1
 1757   1509   651   157    -1
 1758   1508  1507   343    -1
 1759    158  1517   861    -1
 1760    158   159   160    -1
 1761    159   861   656    -1
 1762   1521   860   160    -1
 1763    308  1523  1521    -1
 1764     79   862   160    -1
 1765    161   656  1515    -1
 1766    350   863   161    -1
 1767    162  1515  1019    -1
 1768   1529   864    19    -1
 1769    425   356    19    -1
 1770     19   864   865    -1
 1771    357   425   426    -1
 1772    306  1369   357    -1
 1773    664  1534   426    -1
 1774    866   865   354    -1
 1775    663   867   866    -1
 1776   1302  1533   354    -1
 1777    163  1038   209    -1
 1778    495   163   428    -1
 1779    163   429   428    -1
 1780    869   495   868    -1
 1781    665   869   870    -1
 1782    869   427   870    -1
 1783    428   164   871    -1
 1784    868    82   427    -1
 1785     82   164   721    -1
 1786    872   665   666    -1
 1787     20   213   872    -1
 1788     20   666   667    -1
 1789    430   214  1052    -1
 1790   1226  1054  1065    -1
 1791   1065   430   873    -1
 1792     20   874   165    -1
 1793    873   165   166    -1
 1794    165  1061   166    -1
 1795    167    82   721    -1
 1796    431   875   434    -1
 1797    434   167   877    -1
 1798    168   431   432    -1
 1799   1061   168   876    -1
 1800    433   168   432    -1
 1801    434  1039   435    -1
 1802    432   878   433    -1
 1803    435  1074   878    -1
 1804   1074  1075   879    -1
 1805   1087   879    21    -1
 1806   1075  1076   169    -1
 1807    880   509    21    -1
 1808    880   882   669    -1
 1809     21   883    83    -1
 1810    169  1076  1080    -1
 1811    169   884    85    -1
 1812   1080  1081   171    -1
 1813    881   669    22    -1
 1814    511  1096    22    -1
 1815     22   669   885    -1
 1816    511   886   170    -1
 1817   1101   227   170    -1
 1818    170   886  1106    -1
 1819    436   885   887    -1
 1820     47  1106   436    -1
 1821   1105   887   741    -1
 1822    171  1081  1085    -1
 1823    171   888   890    -1
 1824   1085  1086   437    -1
 1825     84   670   890    -1
 1826    743   741    84    -1
 1827    512   889   890    -1
 1828    437  1086   891    -1
 1829    228  1103   437    -1
 1830   1401  1102   891    -1
 1831    235   992  1119    -1
 1832    172   234   235    -1
 1833    172  1119   438    -1
 1834    173  1130   892    -1
 1835    756   173   174    -1
 1836    173   893   174    -1
 1837     23   438   175    -1
 1838    893    23    86    -1
 1839     23   899    86    -1
 1840    176   119   756    -1
 1841    896   523   894    -1
 1842    896   176   440    -1
 1843    439    50   895    -1
 1844    897   230   239    -1
 1845    239   524   897    -1
 1846    177   440   672    -1
 1847    524   177   898    -1
 1848    177  1142   898    -1
 1849   1124    86   899    -1
 1850    901   361   673    -1
 1851   1126   673  1124    -1
 1852    178   900   903    -1
 1853   1142   178   902    -1
 1854   1141   178   903    -1
 1855   1127   901  1126    -1
 1856   1137   903   904    -1
 1857   1157   904  1127    -1
 1858    905  1157   245    -1
 1859    905   442   441    -1
 1860    245  1158    24    -1
 1861    249   906   441    -1
 1862    249   674   911    -1
 1863    441   907   362    -1
 1864     24  1158  1161    -1
 1865     24   679   678    -1
 1866    679  1161   681    -1
 1867    908   911   910    -1
 1868    909   910   443    -1
 1869    911   915    25    -1
 1870    179   912   443    -1
 1871   1186   913   179    -1
 1872    254   443   914    -1
 1873     25   915    87    -1
 1874     55   914    25    -1
 1875    770  1185    87    -1
 1876    681  1166    26    -1
 1877    677   680    26    -1
 1878     26  1166   917    -1
 1879    676   677   180    -1
 1880   1182   769   676    -1
 1881    541  1181   180    -1
 1882    181   917   918    -1
 1883    540   916   181    -1
 1884    252  1180   918    -1
 1885    919   913  1200    -1
 1886   1210   182   921    -1
 1887    182  1200   920    -1
 1888    552   923  1212    -1
 1889    682  1212   922    -1
 1890    364  1212   923    -1
 1891     27   920  1202    -1
 1892    364    27   183    -1
 1893    924    27  1202    -1
 1894    925   682   683    -1
 1895    264   926  1217    -1
 1896    926   683   684    -1
 1897   1218    28   927    -1
 1898    217  1225  1226    -1
 1899   1225    28   558    -1
 1900    928   684   685    -1
 1901    184    28   928    -1
 1902    184   685  1222    -1
 1903    929   183   924    -1
 1904    444   688   689    -1
 1905    444   929   445    -1
 1906     29     1   687    -1
 1907    930   685   686    -1
 1908    930    29   931    -1
 1909     30   445  1207    -1
 1910   1219    29    30    -1
 1911   1208    30  1207    -1
 1912   1208   933   185    -1
 1913    446   932   185    -1
 1914    185   933   449    -1
 1915    446   447   935    -1
 1916    934   935   690    -1
 1917    447   693     2    -1
 1918    448   449   271    -1
 1919    448   936    89    -1
 1920    271   694    90    -1
 1921   1258   690   186    -1
 1922    938   937   186    -1
 1923    690   452    31    -1
 1924    939   938   450    -1
 1925   1274  1001   939    -1
 1926   1273   940   450    -1
 1927    452    88   941    -1
 1928   1271   451    31    -1
 1929   1270   941    88    -1
 1930     90   694   942    -1
 1931     90   454   453    -1
 1932    454   942   943    -1
 1933    187   692   453    -1
 1934   1264   691   187    -1
 1935    277   453   568    -1
 1936    943  1251   276    -1
 1937    568   944   276    -1
 1938    276  1251  1344    -1
 1939   1295  1028  1285    -1
 1940     66   945  1297    -1
 1941    945  1285  1286    -1
 1942     65   946  1298    -1
 1943   1299   188  1300    -1
 1944    188   946   697    -1
 1945    190   945  1286    -1
 1946    189   946   455    -1
 1947    189   190  1292    -1
 1948    695   806  1300    -1
 1949    456   947   948    -1
 1950    948   695   696    -1
 1951    949   282   456    -1
 1952   1427  1311  1319    -1
 1953   1319   949  1318    -1
 1954     92   948   696    -1
 1955    951   949   950    -1
 1956    951    92  1317    -1
 1957    191   189  1292    -1
 1958    953   698   952    -1
 1959    953   191  1293    -1
 1960    955   366   699    -1
 1961    956    92   954    -1
 1962    957   954   955    -1
 1963    192  1293   958    -1
 1964    957   192   959    -1
 1965   1314   192   958    -1
 1966    193  1314  1335    -1
 1967    193   960   457    -1
 1968   1335   961    32    -1
 1969    962  1348   457    -1
 1970    962   701    93    -1
 1971    457   458   700    -1
 1972     32   961  1337    -1
 1973     32   963   704    -1
 1974    963  1337  1338    -1
 1975    965   964    93    -1
 1976    594   965   966    -1
 1977     93   460   459    -1
 1978    594   967   194    -1
 1979   1358   297   194    -1
 1980    194   967   968    -1
 1981    460   702   300    -1
 1982    968   459   300    -1
 1983    300   702  1364    -1
 1984   1338  1340   462    -1
 1985    461   969   462    -1
 1986   1340   587    33    -1
 1987    461   463   971    -1
 1988    820  1364   970    -1
 1989    595   971   463    -1
 1990     33   587  1342    -1
 1991    596  1361    33    -1
 1992   1360  1359  1342    -1
 1993    972  1382   974    -1
 1994    464   972   973    -1
 1995    972   975   973    -1
 1996   1385   464   465    -1
 1997     94   309  1385    -1
 1998     94   465   368    -1
 1999    466   975  1378    -1
 2000    368   466   708    -1
 2001    466   709   708    -1
 2002    195  1386   976    -1
 2003    977   195   978    -1
 2004    195   705   978    -1
 2005    467   614   977    -1
 2006    196  1392   979    -1
 2007    196   467   468    -1
 2008    469   705   980    -1
 2009    467  1399   468    -1
 2010    469   981  1399    -1
 2011    707   709   982    -1
 2012      3   197   706    -1
 2013    197   982   470    -1
 2014     95   706   983    -1
 2015    981    95   984    -1
 2016     95   985   984    -1
 2017    197   987   986    -1
 2018    983   988   985    -1
 2019    986  1394   988    -1
 2020    318  1394   316    -1
 2021    318   472   471    -1
 2022    198   472   316    -1
 2023    320  1431   471    -1
 2024    320   711   989    -1
 2025    471   712    97    -1
 2026    198  1418  1420    -1
 2027    198   713    99    -1
 2028    100   713  1420    -1
 2029    710   989   474    -1
 2030    473   991   990    -1
 2031     34   474   989    -1
 2032    328  1441   991    -1
 2033    992  1441   328    -1
 2034    328   473   994    -1
 2035     34   475   993    -1
 2036   1446   994    34    -1
 2037    326   993   998    -1
 2038   1421  1425    35    -1
 2039    995   100    35    -1
 2040     35  1425  1426    -1
 2041    995   996   199    -1
 2042    998   997   199    -1
 2043    199   996  1000    -1
 2044    999  1426   317    -1
 2045   1000   999   324    -1
 2046   1320   324   317    -1
 2047   1003   275  1001    -1
 2048    200  1467  1002    -1
 2049    200  1003   478    -1
 2050    201  1468   476    -1
 2051    102  1473   201    -1
 2052    102   476   370    -1
 2053    200  1004   477    -1
 2054    476   202   370    -1
 2055    202  1004  1011    -1
 2056    714  1480  1474    -1
 2057    480  1482  1005    -1
 2058    480   714   481    -1
 2059    479  1484  1006    -1
 2060   1007   337  1485    -1
 2061   1007   479  1008    -1
 2062    480  1009  1010    -1
 2063    479   203  1008    -1
 2064    203  1009  1487    -1
 2065    202  1464  1012    -1
 2066    103    36  1013    -1
 2067     36  1464  1465    -1
 2068    369   482  1014    -1
 2069   1009  1015  1487    -1
 2070   1015   482   483    -1
 2071     36   335  1016    -1
 2072    482  1486   483    -1
 2073   1486   335  1466    -1
 2074    204  1466   345    -1
 2075    204   485    37    -1
 2076    345  1017   484    -1
 2077   1516  1018    37    -1
 2078   1516   716   715    -1
 2079     37   717   373    -1
 2080    484  1017   347    -1
 2081    484  1020   374    -1
 2082    347   859   718    -1
 2083   1019   715   487    -1
 2084   1021   487    38    -1
 2085    715   488   205    -1
 2086    351   486    38    -1
 2087   1375  1382   351    -1
 2088   1532  1531    38    -1
 2089    205   488  1023    -1
 2090    662  1022   205    -1
 2091    356  1024  1023    -1
 2092    859   207   206    -1
 2093    372   718   206    -1
 2094    206   207   652    -1
 2095    104   372  1025    -1
 2096    864  1529   104    -1
 2097    208  1025  1528    -1
 2098    652  1027   352    -1
 2099   1528  1026   352    -1
 2100    352  1027  1028    -1
 2101   1497  1519  1029    -1
 2102   1495  1497   490    -1
 2103   1033   490    45    -1
 2104   1030  1495   489    -1
 2105   1032  1031   489    -1
 2106   1032   489   375    -1
 2107   1069  1034    44    -1
 2108   1034  1069   375    -1
 2109   1073   723   733    -1
 2110   1035   340  1032    -1
 2111    491   340  1036    -1
 2112   1037  1036   719    -1
 2113    339   491    39    -1
 2114    209  1038    39    -1
 2115    209    39   429    -1
 2116    720   492     4    -1
 2117    429   492   164    -1
 2118    721   164   211    -1
 2119    724  1073   210    -1
 2120    722   724    41    -1
 2121    502    41   504    -1
 2122    211   722    40    -1
 2123    167   721    40    -1
 2124    167    40   877    -1
 2125    493   502   212    -1
 2126    493   212   877    -1
 2127   1039   212  1074    -1
 2128    337  1038   163    -1
 2129   1040   494   163    -1
 2130   1040   163   495    -1
 2131   1483   494  1042    -1
 2132   1479  1483  1041    -1
 2133   1041  1042   725    -1
 2134   1043   495   869    -1
 2135    728   725   869    -1
 2136    728   869   665    -1
 2137   1045   336  1041    -1
 2138   1044   336   497    -1
 2139   1048   497   106    -1
 2140   1046  1044   496    -1
 2141   1047  1046   270    -1
 2142   1236   270  1050    -1
 2143   1049  1050   726    -1
 2144   1236  1050   268    -1
 2145   1231   268   107    -1
 2146   1051   665   872    -1
 2147    727  1051   213    -1
 2148   1052   213    20    -1
 2149    498   107   213    -1
 2150   1231   107  1230    -1
 2151   1053  1230   214    -1
 2152   1054   214   430    -1
 2153   1053   214  1228    -1
 2154   1228  1054  1226    -1
 2155   1088   878  1087    -1
 2156    878  1088   433    -1
 2157   1055   499   507    -1
 2158    876   433   215    -1
 2159   1056  1061   215    -1
 2160   1056   215  1058    -1
 2161   1057  1055   216    -1
 2162   1057   216  1058    -1
 2163   1059   216  1060    -1
 2164   1063   166  1056    -1
 2165    873   166  1062    -1
 2166   1064  1062   729    -1
 2167   1065   873    42    -1
 2168    217  1226    42    -1
 2169    217    42   556    -1
 2170    218  1066     5    -1
 2171    265   556   218    -1
 2172    265   218   778    -1
 2173    223   109  1090    -1
 2174    731   109  1067    -1
 2175   1067   223  1093    -1
 2176    730   731   219    -1
 2177    263   778   219    -1
 2178    219    43   263    -1
 2179    220    43    46    -1
 2180    500    43  1215    -1
 2181   1215   220  1173    -1
 2182   1029  1519  1068    -1
 2183     45   490  1029    -1
 2184     45  1068   501    -1
 2185     44  1034  1033    -1
 2186    733   723  1069    -1
 2187    733    44   735    -1
 2188   1072    45   501    -1
 2189   1071    44  1070    -1
 2190   1391  1070  1072    -1
 2191    210  1073   732    -1
 2192    504    41   210    -1
 2193   1077   210   732    -1
 2194    212   502   503    -1
 2195   1074   212  1075    -1
 2196   1076   212   503    -1
 2197   1078   504  1077    -1
 2198   1080   503  1079    -1
 2199   1080  1078  1081    -1
 2200    737  1391  1082    -1
 2201    221   377   737    -1
 2202    221  1082   612    -1
 2203   1083   505  1084    -1
 2204   1085  1078  1083    -1
 2205   1086  1083  1084    -1
 2206   1392   221   612    -1
 2207   1086   506   891    -1
 2208   1393   506  1392    -1
 2209   1087   878  1074    -1
 2210    507   499  1088    -1
 2211    507  1087   509    -1
 2212    216  1055  1089    -1
 2213   1060   216   222    -1
 2214    378   216  1089    -1
 2215    508   509   880    -1
 2216    378   508   739    -1
 2217    881   508   880    -1
 2218   1090   109  1060    -1
 2219   1093   223  1091    -1
 2220   1092   223  1090    -1
 2221     46    43  1093    -1
 2222   1173   220   241    -1
 2223    241    46   527    -1
 2224    510  1092  1094    -1
 2225   1152    46   510    -1
 2226   1099   510  1094    -1
 2227   1096   739   881    -1
 2228   1095   111   740    -1
 2229    511   740  1096    -1
 2230   1098   110   738    -1
 2231    224  1094  1097    -1
 2232    224  1098  1100    -1
 2233    225   511   227    -1
 2234   1100   225   226    -1
 2235   1101   225   227    -1
 2236   1401   891  1393    -1
 2237    228   437  1102    -1
 2238    228  1401  1402    -1
 2239    512   890  1103    -1
 2240    743    84   889    -1
 2241    382   889   512    -1
 2242   1403   228  1402    -1
 2243    512  1104   382    -1
 2244   1404   229  1403    -1
 2245   1105   741   742    -1
 2246     47   436  1105    -1
 2247     47   742   379    -1
 2248    170  1106  1107    -1
 2249   1101   170   230    -1
 2250   1136   170  1107    -1
 2251    744    47   379    -1
 2252   1135  1107  1108    -1
 2253   1135   744  1109    -1
 2254    112  1404   231    -1
 2255     49   746   112    -1
 2256     49   231   620    -1
 2257     48   381   513    -1
 2258   1110   744   745    -1
 2259   1110    48   514    -1
 2260   1409    49   620    -1
 2261    237    48  1111    -1
 2262    237  1409  1434    -1
 2263   1454  1325   242    -1
 2264   1454   242   634    -1
 2265   1112   242  1114    -1
 2266    634  1112   232    -1
 2267   1452   232   748    -1
 2268   1113   515   748    -1
 2269   1116   515   530    -1
 2270    751   515  1115    -1
 2271   1117  1115  1154    -1
 2272    233  1452   113    -1
 2273    516  1448   113    -1
 2274    516   113   517    -1
 2275   1118  1447   516    -1
 2276   1119   992  1118    -1
 2277   1119  1118   438    -1
 2278   1120   517   750    -1
 2279    438  1120   175    -1
 2280    750   114   175    -1
 2281   1121   116   761    -1
 2282    752   116  1122    -1
 2283   1123  1122   532    -1
 2284    752  1122   114    -1
 2285    899   114  1124    -1
 2286   1124   518  1126    -1
 2287   1156  1125   531    -1
 2288   1126  1125  1127    -1
 2289   1157  1127   245    -1
 2290   1128   992   235    -1
 2291   1440  1128   234    -1
 2292   1130   234   172    -1
 2293    236  1129   234    -1
 2294   1437  1129   117    -1
 2295    384   117   519    -1
 2296    519  1130   173    -1
 2297   1131   384   173    -1
 2298   1131   173   756    -1
 2299    753  1436   117    -1
 2300    521   520   753    -1
 2301    754   521     7    -1
 2302   1132   321   521    -1
 2303   1434   321   237    -1
 2304    514   237   522    -1
 2305   1133   522   755    -1
 2306   1110   514  1133    -1
 2307   1110  1133  1109    -1
 2308    894   119   176    -1
 2309    383   119   523    -1
 2310    895   523   896    -1
 2311   1134   383   238    -1
 2312   1135  1109   238    -1
 2313   1136  1135    50    -1
 2314    239    50   439    -1
 2315   1136    50   230    -1
 2316   1101   230   897    -1
 2317   1138  1137   905    -1
 2318   1141  1137  1139    -1
 2319   1140  1139   534    -1
 2320    902  1141    51    -1
 2321    902    51  1142    -1
 2322   1143    51  1145    -1
 2323   1144  1140   247    -1
 2324   1144   247  1145    -1
 2325   1146   247  1169    -1
 2326    898  1142   757    -1
 2327    898   757   524    -1
 2328   1147   525   386    -1
 2329    897   524  1148    -1
 2330   1101   897   226    -1
 2331   1148   240   226    -1
 2332    758   240   385    -1
 2333   1100   240   224    -1
 2334   1099   224   759    -1
 2335   1151  1149   250    -1
 2336   1150  1149   528    -1
 2337    535   528   537    -1
 2338    759  1150   526    -1
 2339   1152  1099   526    -1
 2340   1152   526   527    -1
 2341   1172   529    53    -1
 2342    527   529   241    -1
 2343   1173   241   262    -1
 2344    242  1325  1153    -1
 2345   1114   242   243    -1
 2346    590   242  1153    -1
 2347    530   515  1114    -1
 2348   1154  1115  1116    -1
 2349   1154   530   763    -1
 2350   1353   243   590    -1
 2351    763   244  1155    -1
 2352   1162   244  1353    -1
 2353    761   116  1117    -1
 2354    532  1122  1121    -1
 2355    532   761  1159    -1
 2356    531  1125  1123    -1
 2357    245  1127  1156    -1
 2358    245   531  1158    -1
 2359    246  1159  1160    -1
 2360   1158   246  1161    -1
 2361    681   246  1160    -1
 2362    121  1162  1357    -1
 2363   1164     8   121    -1
 2364   1165   121  1357    -1
 2365     52   387  1163    -1
 2366    681   120  1166    -1
 2367   1166    52   917    -1
 2368   1167  1164  1165    -1
 2369    918    52  1168    -1
 2370    918  1167  1358    -1
 2371    905  1137  1157    -1
 2372    534  1139  1138    -1
 2373    534   905   906    -1
 2374    247  1140   248    -1
 2375   1169   247   764    -1
 2376   1170   247   248    -1
 2377    249   534   906    -1
 2378   1171   248   533    -1
 2379   1171   249   908    -1
 2380    250  1149  1169    -1
 2381    537   528  1151    -1
 2382    537   250  1175    -1
 2383     53   529   535    -1
 2384    262   241  1172    -1
 2385    262    53  1174    -1
 2386    251   537  1175    -1
 2387   1213    53   536    -1
 2388   1213   251  1177    -1
 2389   1176   908   909    -1
 2390    538  1176   539    -1
 2391    539   909   912    -1
 2392     54   766   538    -1
 2393    260   251   767    -1
 2394    260    54  1209    -1
 2395    179   539   912    -1
 2396   1179    54  1178    -1
 2397   1179   179   913    -1
 2398    252   918  1358    -1
 2399    540   181  1180    -1
 2400    540   252   542    -1
 2401    541   180   916    -1
 2402   1182   676  1181    -1
 2403   1182   541  1184    -1
 2404    253   540   542    -1
 2405    124   541  1183    -1
 2406    124   253  1189    -1
 2407    770    87   769    -1
 2408     55    25  1185    -1
 2409     55   770   771    -1
 2410    254   914   543    -1
 2411   1186   179   254    -1
 2412   1199   254   543    -1
 2413   1188    55   771    -1
 2414    255   543  1187    -1
 2415    255  1188   772    -1
 2416    123  1189   303    -1
 2417    256   122   123    -1
 2418    601   123   303    -1
 2419    544     9   388    -1
 2420    772   257  1190    -1
 2421   1195   257   544    -1
 2422   1191   256   601    -1
 2423   1195   258  1192    -1
 2424   1193   258  1191    -1
 2425   1238  1192   304    -1
 2426   1195  1192  1194    -1
 2427    547  1194    56    -1
 2428   1190  1195   545    -1
 2429    772  1190   125    -1
 2430    545  1196   125    -1
 2431   1196   547  1239    -1
 2432   1196  1239   546    -1
 2433   1244   774  1240    -1
 2434    772   125   255    -1
 2435   1199   255  1198    -1
 2436   1197   390  1198    -1
 2437   1186  1199   548    -1
 2438   1186   548   913    -1
 2439    548   259  1200    -1
 2440    773   127   259    -1
 2441    920   259  1202    -1
 2442   1201   126  1202    -1
 2443   1245  1203   132    -1
 2444   1204  1203   550    -1
 2445   1246   550    57    -1
 2446   1204   550   126    -1
 2447    924   126   929    -1
 2448    929   549   445    -1
 2449   1206  1246  1205    -1
 2450   1206  1205   445    -1
 2451   1208  1207   933    -1
 2452   1179   913   919    -1
 2453   1179   919  1209    -1
 2454    919   182  1210    -1
 2455   1209  1210   260    -1
 2456   1177   260  1211    -1
 2457   1211   551   393    -1
 2458    921   923   552    -1
 2459    552  1212   393    -1
 2460    781  1212   682    -1
 2461   1213  1177  1214    -1
 2462   1174  1213   261    -1
 2463    775   261   776    -1
 2464    553   262   261    -1
 2465   1173   262  1215    -1
 2466   1215   553   500    -1
 2467    777   554   128    -1
 2468    500   554   263    -1
 2469    778   263   779    -1
 2470    780   682   925    -1
 2471   1216   780   264    -1
 2472    925   926   264    -1
 2473   1216   264   779    -1
 2474    778   779   265    -1
 2475    555  1218   265    -1
 2476   1217    28  1218    -1
 2477    556  1218   217    -1
 2478    927  1225   217    -1
 2479   1220  1219   932    -1
 2480   1219  1220   931    -1
 2481   1224  1221   563    -1
 2482    930   931   266    -1
 2483   1222   930   130    -1
 2484    266   557   130    -1
 2485   1252   557  1253    -1
 2486   1223   557   787    -1
 2487    788   787   793    -1
 2488    184  1222   129    -1
 2489    184   129   558    -1
 2490    559   129   783    -1
 2491   1225   558  1227    -1
 2492   1226  1225  1228    -1
 2493   1228  1227  1053    -1
 2494   1229   783   131    -1
 2495   1229   131  1053    -1
 2496   1230   131  1231    -1
 2497    267   786   133    -1
 2498    786   267  1234    -1
 2499   1232   267  1233    -1
 2500   1235  1234   269    -1
 2501   1231  1235   268    -1
 2502    269  1237   268    -1
 2503   1237  1233   274    -1
 2504   1236  1237   270    -1
 2505   1047   270  1255    -1
 2506    304  1192  1193    -1
 2507     56  1194  1238    -1
 2508     56   304  1367    -1
 2509   1239   547   560    -1
 2510   1240   774  1239    -1
 2511   1240   560   561    -1
 2512   1241    56  1367    -1
 2513   1243   560  1242    -1
 2514    792  1242  1241    -1
 2515    132  1203  1244    -1
 2516     57   550  1245    -1
 2517     57   132   789    -1
 2518   1205  1246  1247    -1
 2519    933  1207  1205    -1
 2520    449  1205  1247    -1
 2521   1249    57   789    -1
 2522    271  1247  1248    -1
 2523    271  1249   694    -1
 2524    272   792   299    -1
 2525   1250    10   272    -1
 2526   1362   272   299    -1
 2527    273   791   562    -1
 2528    694   273   942    -1
 2529    943   273   562    -1
 2530     58  1362  1360    -1
 2531    943    58  1251    -1
 2532   1344    58  1360    -1
 2533    932  1219  1208    -1
 2534    563  1221  1220    -1
 2535    446  1220   932    -1
 2536   1253   557  1224    -1
 2537    793   787  1252    -1
 2538    793  1253  1254    -1
 2539     59   446   934    -1
 2540   1254    59   796    -1
 2541   1258    59   934    -1
 2542    133   786   788    -1
 2543   1233   267   565    -1
 2544    565   133   794    -1
 2545    274  1233   564    -1
 2546   1255   270   274    -1
 2547   1475   274   564    -1
 2548    795   565   794    -1
 2549   1256   564   566    -1
 2550   1257   566   795    -1
 2551    937   796  1258    -1
 2552     61   136  1259    -1
 2553     61   937   938    -1
 2554     60   135   395    -1
 2555   1469   795  1260    -1
 2556   1469    60   567    -1
 2557    939    61   938    -1
 2558    275    60  1261    -1
 2559    275   939  1001    -1
 2560    276  1344  1343    -1
 2561    568   276  1262    -1
 2562   1263   276  1343    -1
 2563    277   568  1265    -1
 2564   1264   187   277    -1
 2565   1266   277  1265    -1
 2566    290  1262  1263    -1
 2567   1268  1265  1267    -1
 2568   1268   290  1269    -1
 2569   1270    88   691    -1
 2570   1271    31   941    -1
 2571   1272   941  1270    -1
 2572   1273   450   451    -1
 2573   1274   939   940    -1
 2574   1276   940  1273    -1
 2575    797  1271  1272    -1
 2576   1277  1273  1275    -1
 2577   1277   797   844    -1
 2578    798  1269  1278    -1
 2579   1279    11   798    -1
 2580   1330   798  1278    -1
 2581    278   396   569    -1
 2582   1457   797  1280    -1
 2583   1457   278  1281    -1
 2584    286  1279  1330    -1
 2585   1455   278   570    -1
 2586   1455   286  1326    -1
 2587   1327   341   286    -1
 2588   1282   341   279    -1
 2589   1328   279  1329    -1
 2590   1282   279   280    -1
 2591   1501   280  1283    -1
 2592    571    62  1283    -1
 2593   1284    62   584    -1
 2594    399    62   281    -1
 2595   1331   281   813    -1
 2596   1508  1501   799    -1
 2597   1512  1508   572    -1
 2598    572   799   397    -1
 2599   1513  1512    63    -1
 2600   1513    63  1028    -1
 2601   1285    63  1286    -1
 2602   1287   397   800    -1
 2603   1286  1287   190    -1
 2604    800  1291   190    -1
 2605   1332  1288  1333    -1
 2606   1289  1288  1290    -1
 2607   1334  1290   288    -1
 2608   1291  1289   573    -1
 2609   1292  1291   191    -1
 2610    573  1294   191    -1
 2611   1294  1334   289    -1
 2612   1294   289  1293    -1
 2613    958   289  1314    -1
 2614   1526  1028  1295    -1
 2615   1530  1526    66    -1
 2616   1295   945    66    -1
 2617    355  1530    64    -1
 2618    803  1296    64    -1
 2619    803    64   574    -1
 2620   1297   946    65    -1
 2621    574    65  1299    -1
 2622   1298   188  1299    -1
 2623   1301  1302   803    -1
 2624   1535  1302   575    -1
 2625   1301   804   575    -1
 2626   1303  1304   575    -1
 2627   1410  1368  1303    -1
 2628   1303   576  1410    -1
 2629    802    13   576    -1
 2630    576   138  1305    -1
 2631   1306   138  1309    -1
 2632    947   806   695    -1
 2633   1308   806  1307    -1
 2634   1307   947   456    -1
 2635    805  1308   577    -1
 2636    805   577  1309    -1
 2637    577   282  1310    -1
 2638   1311   282   949    -1
 2639   1312   282  1313    -1
 2640   1313  1311  1427    -1
 2641   1345   959   193    -1
 2642    957   959   579    -1
 2643   1315   579   589    -1
 2644    956   957   283    -1
 2645   1317   956   140    -1
 2646    283   578   140    -1
 2647    578  1315   292    -1
 2648    578   292   809    -1
 2649   1316   292   812    -1
 2650   1317   140   951    -1
 2651    951   807  1318    -1
 2652    807   139   581    -1
 2653   1319  1318   580    -1
 2654   1319   580  1427    -1
 2655    580    67  1320    -1
 2656    808   810    67    -1
 2657    629    67  1444    -1
 2658    811   141  1444    -1
 2659   1349   284   143    -1
 2660   1323   284  1322    -1
 2661   1322  1349   583    -1
 2662   1323  1322   141    -1
 2663   1321   141  1450    -1
 2664    582    68  1450    -1
 2665    285    68  1351    -1
 2666   1453    68  1324    -1
 2667   1324   285  1325    -1
 2668    286   341  1326    -1
 2669   1329   279  1327    -1
 2670   1329   286  1330    -1
 2671    584    62  1328    -1
 2672    813   281  1284    -1
 2673    813   584   585    -1
 2674    287  1330  1278    -1
 2675    585   287   818    -1
 2676   1269   287  1278    -1
 2677   1333  1288  1331    -1
 2678    288  1290  1332    -1
 2679    288  1333   402    -1
 2680    289  1334  1336    -1
 2681   1314   289  1335    -1
 2682    961   289  1336    -1
 2683    814   288   402    -1
 2684    961   586  1337    -1
 2685   1338   586   814    -1
 2686    290   818  1269    -1
 2687    588   815   817    -1
 2688    588   290  1263    -1
 2689    291   816  1339    -1
 2690   1338   291  1340    -1
 2691    587   291  1339    -1
 2692   1343   588  1263    -1
 2693    587  1341  1342    -1
 2694   1344  1341  1343    -1
 2695    193   959  1314    -1
 2696    589   579  1345    -1
 2697    589   193  1348    -1
 2698    292  1315   293    -1
 2699    812   292  1346    -1
 2700   1347   292   293    -1
 2701    294  1348   962    -1
 2702    145   293   294    -1
 2703    145   962   964    -1
 2704    143   284   812    -1
 2705    583  1349   592    -1
 2706    592   143  1350    -1
 2707   1351    68   583    -1
 2708   1325   285  1153    -1
 2709    590   285  1351    -1
 2710    591  1350  1352    -1
 2711    590   591  1353    -1
 2712   1162   591  1352    -1
 2713    965   145   964    -1
 2714    295   405  1354    -1
 2715    295   965   594    -1
 2716    593   144  1355    -1
 2717   1162  1356  1357    -1
 2718   1357   593  1165    -1
 2719    297   295   594    -1
 2720   1165   296  1167    -1
 2721   1358   296   297    -1
 2722   1360  1342  1344    -1
 2723    596    33  1359    -1
 2724    596  1360  1362    -1
 2725    595   463  1361    -1
 2726    820   970   971    -1
 2727    407   971   595    -1
 2728    298  1362   299    -1
 2729    407   298  1363    -1
 2730    792   298   299    -1
 2731    300  1364   819    -1
 2732    968   300   597    -1
 2733    599   300   819    -1
 2734    194   968   301    -1
 2735   1358   194   252    -1
 2736    542   194   301    -1
 2737    302   597   599    -1
 2738    253   301   598    -1
 2739    253   302  1189    -1
 2740    823   792  1241    -1
 2741    600   146   823    -1
 2742    600  1241  1367    -1
 2743   1366   821  1365    -1
 2744    303   302   822    -1
 2745    303  1366   601    -1
 2746     69  1367   304    -1
 2747    601    69  1191    -1
 2748   1193    69   304    -1
 2749   1538  1368  1411    -1
 2750   1537  1538   305    -1
 2751   1411  1412   305    -1
 2752    602   306   305    -1
 2753   1369   306  1370    -1
 2754   1370   602   409    -1
 2755   1371    74  1372    -1
 2756    827   409   313    -1
 2757    827   313  1379    -1
 2758   1373   307  1370    -1
 2759   1374   307   603    -1
 2760    824   603   825    -1
 2761   1376  1375   603    -1
 2762   1382  1375   974    -1
 2763    975   974    70    -1
 2764   1377    70   408    -1
 2765    975    70  1378    -1
 2766   1378  1377   709    -1
 2767    828  1379   315    -1
 2768   1380   604   315    -1
 2769   1380   315   606    -1
 2770    826   604   605    -1
 2771    982   709   605    -1
 2772    982   605   470    -1
 2773   1381   606  1416    -1
 2774    987   470  1416    -1
 2775   1416   316   987    -1
 2776   1525  1382   972    -1
 2777   1524  1525   609    -1
 2778    609   972   464    -1
 2779    607   308   609    -1
 2780   1523   308  1383    -1
 2781   1383   607  1384    -1
 2782    608   464  1385    -1
 2783   1384   608   309    -1
 2784   1386   309    94    -1
 2785   1522  1523   148    -1
 2786   1387  1389   148    -1
 2787   1388  1387    14    -1
 2788   1520  1389   610    -1
 2789   1068  1519   610    -1
 2790    501  1068    71    -1
 2791   1390    71   410    -1
 2792    501    71  1072    -1
 2793   1391  1072   829    -1
 2794    831  1386   195    -1
 2795    613   411   195    -1
 2796    613   195   977    -1
 2797    829   411   611    -1
 2798   1082  1391   611    -1
 2799   1082   611   612    -1
 2800    979   614   467    -1
 2801   1392   612   979    -1
 2802   1393  1392   196    -1
 2803   1394   318   988    -1
 2804    985   988   616    -1
 2805   1395   625   616    -1
 2806   1397   984   616    -1
 2807   1398   981  1397    -1
 2808   1398  1397   615    -1
 2809   1396   624   617    -1
 2810    615   617   310    -1
 2811   1428  1429   310    -1
 2812   1399   981  1400    -1
 2813    618   468  1400    -1
 2814    832   618    15    -1
 2815    196   468    72    -1
 2816   1401  1393    72    -1
 2817   1401    72  1402    -1
 2818    311    73   833    -1
 2819   1402    73  1403    -1
 2820   1403   311  1404    -1
 2821   1405   149  1407    -1
 2822    836  1407   312    -1
 2823   1406  1433   312    -1
 2824    619   834   312    -1
 2825   1404   834   231    -1
 2826    620   231   621    -1
 2827    622  1435   621    -1
 2828   1409   620  1408    -1
 2829   1408   321  1409    -1
 2830   1411  1368  1410    -1
 2831    305  1412  1371    -1
 2832   1411  1305  1412    -1
 2833   1372    74   313    -1
 2834   1379   313  1413    -1
 2835   1413    74  1414    -1
 2836    314  1305  1306    -1
 2837     74   840  1414    -1
 2838    314  1309   840    -1
 2839    315  1379   837    -1
 2840    606   315  1415    -1
 2841    315   412  1415    -1
 2842   1416   606  1417    -1
 2843    987   316  1394    -1
 2844    316  1417  1418    -1
 2845   1419   412   838    -1
 2846   1417  1420  1418    -1
 2847   1420   838  1421    -1
 2848   1310   840  1309    -1
 2849     75   415  1422    -1
 2850     75  1310  1312    -1
 2851    414  1423  1424    -1
 2852    838  1425  1421    -1
 2853   1425  1423  1426    -1
 2854     75  1313   623    -1
 2855    317  1423   623    -1
 2856    317  1313  1427    -1
 2857    988   318  1395    -1
 2858    616   625  1396    -1
 2859    625   318  1431    -1
 2860    617   624  1428    -1
 2861    310  1429  1405    -1
 2862   1429   624  1430    -1
 2863    319  1431   320    -1
 2864   1430   319  1432    -1
 2865    319   710  1432    -1
 2866   1407   149  1406    -1
 2867    312  1433   622    -1
 2868   1433   149   416    -1
 2869    621  1435  1408    -1
 2870   1409   321  1434    -1
 2871    321  1435   520    -1
 2872    322   416   841    -1
 2873    520   322  1436    -1
 2874    322  1437  1436    -1
 2875    150   710   990    -1
 2876    626   150  1438    -1
 2877    150   991  1438    -1
 2878     16    76   323    -1
 2879   1437   323  1129    -1
 2880   1129    76  1440    -1
 2881   1439   991  1441    -1
 2882   1128    76  1439    -1
 2883    992  1439  1441    -1
 2884   1320   317  1427    -1
 2885   1000   324   628    -1
 2886    629   324  1320    -1
 2887    199  1000  1442    -1
 2888    998   199   325    -1
 2889    627   199  1442    -1
 2890   1444   628   629    -1
 2891    627  1443  1445    -1
 2892   1321  1443  1444    -1
 2893    326   998   327    -1
 2894   1446    34   326    -1
 2895    632   326   327    -1
 2896    328   994   630    -1
 2897    992   328  1447    -1
 2898   1448   328   630    -1
 2899    631   632  1449    -1
 2900    233   630   631    -1
 2901    233  1449  1452    -1
 2902    843  1321  1450    -1
 2903    635   420   843    -1
 2904    635  1450  1453    -1
 2905    151  1451   633    -1
 2906   1452   151   232    -1
 2907    634   151   633    -1
 2908    329  1453  1324    -1
 2909    634   329  1454    -1
 2910   1325   329  1324    -1
 2911   1498  1455   341    -1
 2912   1281  1455   330    -1
 2913   1499   330   650    -1
 2914   1456  1457   330    -1
 2915    844  1457   152    -1
 2916    423   152   636    -1
 2917   1458   636   649    -1
 2918    423   636   331    -1
 2919   1459   331   857    -1
 2920   1460  1277   152    -1
 2921   1276  1277   637    -1
 2922    845   637   422    -1
 2923   1461  1274   637    -1
 2924   1003  1001  1461    -1
 2925    478  1003   332    -1
 2926    846   332   421    -1
 2927    478   332  1004    -1
 2928   1004   846  1011    -1
 2929    334   333  1502    -1
 2930    848   333  1462    -1
 2931   1462   334   639    -1
 2932   1463   847  1462    -1
 2933   1011   847  1464    -1
 2934   1465  1464   638    -1
 2935    638   639   344    -1
 2936   1465   638   335    -1
 2937   1466   335   345    -1
 2938   1002   275  1003    -1
 2939    567   275  1467    -1
 2940   1468  1467   200    -1
 2941   1469   567  1470    -1
 2942   1471  1257  1470    -1
 2943   1472  1471   640    -1
 2944    640  1468   201    -1
 2945   1473  1472   201    -1
 2946   1474  1473   102    -1
 2947   1256  1257   850    -1
 2948   1476  1475   850    -1
 2949   1477  1476   153    -1
 2950   1255  1475   641    -1
 2951   1046  1047   641    -1
 2952   1046   641  1044    -1
 2953   1478  1477   851    -1
 2954   1044  1478   336    -1
 2955   1479   336   154    -1
 2956   1005  1480   714    -1
 2957   1482  1481  1005    -1
 2958   1006  1482   480    -1
 2959    642   154  1482    -1
 2960   1479   154  1483    -1
 2961   1483   642   494    -1
 2962   1485  1484   479    -1
 2963    494  1484   337    -1
 2964   1038   337  1007    -1
 2965    348  1486   204    -1
 2966    643   483   348    -1
 2967    643   348   654    -1
 2968   1015   483    77    -1
 2969    854  1487    77    -1
 2970    854    77   855    -1
 2971   1514  1488   349    -1
 2972    855  1488   338    -1
 2973   1517   338   861    -1
 2974   1490   203   854    -1
 2975   1008   203  1489    -1
 2976   1489  1490   424    -1
 2977   1007  1008   644    -1
 2978   1038  1007   339    -1
 2979    644   645   339    -1
 2980    645   424  1491    -1
 2981    491   645   340    -1
 2982   1491  1493   340    -1
 2983   1518   155   158    -1
 2984    646   155   647    -1
 2985   1492   647   658    -1
 2986   1493   646  1494    -1
 2987   1031  1493  1030    -1
 2988   1494   648  1030    -1
 2989   1496   648   659    -1
 2990   1495   648  1497    -1
 2991   1497  1496  1519    -1
 2992    341  1455  1326    -1
 2993    650   330  1498    -1
 2994    650   341  1282    -1
 2995    649   636  1499    -1
 2996    857   331  1458    -1
 2997    857   649  1500    -1
 2998    280   650  1282    -1
 2999    649   343  1500    -1
 3000    343   280  1501    -1
 3001   1502   333  1459    -1
 3002    639   334  1503    -1
 3003   1505   334  1502    -1
 3004    344   639  1504    -1
 3005    345   335   344    -1
 3006   1017   344  1504    -1
 3007    346  1505  1506    -1
 3008   1017   346   347    -1
 3009    859   346  1506    -1
 3010   1508   343  1501    -1
 3011   1509   157  1507    -1
 3012   1512  1507  1508    -1
 3013   1511   156   651    -1
 3014    207  1506  1510    -1
 3015    207  1511   652    -1
 3016    653  1512  1513    -1
 3017    652   653  1027    -1
 3018   1028   653  1513    -1
 3019    204  1486  1466    -1
 3020    654   348   655    -1
 3021    655   204  1018    -1
 3022    349  1488   654    -1
 3023    861   338  1514    -1
 3024    861   349   656    -1
 3025   1516   655  1018    -1
 3026   1515   349   657    -1
 3027   1019   657  1516    -1
 3028    158   155  1517    -1
 3029    658   647  1518    -1
 3030    658   158   860    -1
 3031    659   648  1492    -1
 3032   1519  1496  1520    -1
 3033   1520   659  1389    -1
 3034     78   860  1521    -1
 3035   1389    78  1522    -1
 3036   1523    78  1521    -1
 3037    162  1019  1021    -1
 3038    350   161   162    -1
 3039    486   162  1021    -1
 3040     79   160   863    -1
 3041    308  1521   862    -1
 3042    308    79  1524    -1
 3043    351   350   486    -1
 3044   1525    79   660    -1
 3045   1525   351  1382    -1
 3046    352  1028  1526    -1
 3047   1528   352  1527    -1
 3048   1530   352  1526    -1
 3049    208  1528   353    -1
 3050    864   104   208    -1
 3051    865   208   353    -1
 3052    355  1527  1530    -1
 3053    354   353   661    -1
 3054    354   355  1296    -1
 3055    356  1023  1529    -1
 3056    662   205  1024    -1
 3057    662   356   425    -1
 3058   1532    38  1022    -1
 3059   1375   351  1531    -1
 3060   1374  1531  1532    -1
 3061     80   425   357    -1
 3062   1374    80   307    -1
 3063   1369    80   357    -1
 3064   1302   354  1296    -1
 3065    663   866  1533    -1
 3066    663  1302  1535    -1
 3067    664   426   867    -1
 3068    306   357  1534    -1
 3069    306   664  1537    -1
 3070   1304   663  1535    -1
 3071   1538   664  1536    -1
 3072   1538  1304  1368    -1
# Generated by C:\CCH\Projects\github-software\tetgen1.5.1\build\Release\tetgen.exe -p -q C:\CCH\3dModel\cube1.5k.stl 
