3206  1
    1      3  1442    57    -1
    2      1     3    57    -1
    3      2  1433     3    -1
    4      1     2     3    -1
    5     57     4     2    -1
    6      1    57     2    -1
    7   1397    52    53    -1
    8      5  1397    53    -1
    9      6  1391  1397    -1
   10      5     6  1397    -1
   11     53   118     5    -1
   12      5   118     6    -1
   13      9  1398     7    -1
   14      8     9     7    -1
   15     11  1442     9    -1
   16      8    11     9    -1
   17      7    10    11    -1
   18      8     7    11    -1
   19   1251  1249  1520    -1
   20    493   496  1518    -1
   21   1371  1375  1451    -1
   22   1447  1047  1450    -1
   23     12    10     7    -1
   24     13    12     7    -1
   25     12    18    14    -1
   26     15    12    14    -1
   27     16    10    15    -1
   28     15    10    12    -1
   29     14    19    16    -1
   30     15    14    16    -1
   31   1413    22    17    -1
   32     17    22    20    -1
   33     14    18  1413    -1
   34     17    14  1413    -1
   35     20    19    14    -1
   36     17    20    14    -1
   37   1416    21    31    -1
   38     23  1416    31    -1
   39     83    22    23    -1
   40     23    22  1416    -1
   41     31    79    83    -1
   42     23    31    83    -1
   43     25    36    24    -1
   44     24    36    37    -1
   45   1167  1187  1542    -1
   46     44   105  1540    -1
   47     37    27    26    -1
   48     24    37    26    -1
   49     28  1423    29    -1
   50     29  1423    30    -1
   51     31    21    28    -1
   52     29    31    28    -1
   53     30    79    31    -1
   54     29    30    31    -1
   55     30  1423    42    -1
   56     32    30    42    -1
   57     90    79    32    -1
   58     32    79    30    -1
   59     42    33    32    -1
   60     32    33    90    -1
   61     34  1428    39    -1
   62     35    34    39    -1
   63     37    36    35    -1
   64     35    36    34    -1
   65     39    27    37    -1
   66     35    39    37    -1
   67     39  1428    38    -1
   68     40    39    38    -1
   69    165    27    39    -1
   70     40   165    39    -1
   71     38   174    40    -1
   72     40   174   165    -1
   73   1468  1330  1477    -1
   74    776   739  1597    -1
   75     42  1423    43    -1
   76     43  1423    41    -1
   77    536   597  1543    -1
   78     43    44    42    -1
   79   1332  1468  1477    -1
   80     45    44    50    -1
   81    731  1522  1541    -1
   82     45   105    44    -1
   83     50   114    45    -1
   84     45   114   105    -1
   85   1432  1433    46    -1
   86     47  1432    46    -1
   87     38  1428    47    -1
   88     47  1428  1432    -1
   89     46   174    38    -1
   90     47    46    38    -1
   91     46  1433     2    -1
   92     48    46     2    -1
   93     49   174    46    -1
   94     48    49    46    -1
   95   1281  1370  1528    -1
   96    975  1010  1527    -1
   97     50  1391     6    -1
   98     51    50     6    -1
   99    113   114    50    -1
  100     51   113    50    -1
  101      6   118   113    -1
  102     51     6   113    -1
  103     53    52    54    -1
  104     55    53    54    -1
  105     56   118    53    -1
  106     55    56    53    -1
  107     54   131    56    -1
  108     55    54    56    -1
  109     11    10    61    -1
  110     58    11    61    -1
  111     57  1442    58    -1
  112     58  1442    11    -1
  113     61     4    57    -1
  114     58    61    57    -1
  115     59    61    10    -1
  116     60    59    10    -1
  117     62     4    61    -1
  118     59    62    61    -1
  119     60   136    62    -1
  120     59    60    62    -1
  121     63  1382    64    -1
  122     65    63    64    -1
  123     54    52    65    -1
  124     65    52    63    -1
  125     64   131    54    -1
  126     65    64    54    -1
  127     16    19    66    -1
  128     66    19    67    -1
  129     60    10    16    -1
  130     66    60    16    -1
  131     67   136    60    -1
  132     66    67    60    -1
  133     68  1063    78    -1
  134     70    68    78    -1
  135     69  1382    68    -1
  136     70    69    68    -1
  137     78   275    69    -1
  138     70    78    69    -1
  139     20    22    81    -1
  140     71    20    81    -1
  141     95    19    71    -1
  142     71    19    20    -1
  143     81    86    95    -1
  144     71    81    95    -1
  145     73    87    88    -1
  146     74    73    88    -1
  147     72   395    73    -1
  148     74    72    73    -1
  149     88   231    74    -1
  150     74   231    72    -1
  151     76   775    77    -1
  152     75    76    77    -1
  153     78  1063    75    -1
  154     75  1063    76    -1
  155     77   275    78    -1
  156     75    77    78    -1
  157     83    79    82    -1
  158     82    79    80    -1
  159     81    22    83    -1
  160     82    81    83    -1
  161     80    86    81    -1
  162     82    80    81    -1
  163     80    79    85    -1
  164     84    80    85    -1
  165    100    86    84    -1
  166     84    86    80    -1
  167    931  1467  1490    -1
  168   1465   723  1487    -1
  169     26    27   230    -1
  170     89    26   230    -1
  171     88    87    26    -1
  172     89    88    26    -1
  173    230   231    89    -1
  174     89   231    88    -1
  175     90    33    91    -1
  176     91    33    92    -1
  177     85    79    90    -1
  178     91    85    90    -1
  179     92   154    85    -1
  180     91    92    85    -1
  181     69   275   274    -1
  182     93    69   274    -1
  183    133  1382    69    -1
  184     93   133    69    -1
  185    274    94    93    -1
  186     93    94   133    -1
  187     95    86    97    -1
  188     97    86    96    -1
  189    135    19    95    -1
  190     97   135    95    -1
  191     96   150   135    -1
  192     97    96   135    -1
  193     96    86    98    -1
  194     99    96    98    -1
  195    151   150    96    -1
  196     99   151    96    -1
  197     98   101    99    -1
  198     99   101   151    -1
  199    100   154   102    -1
  200    103   100   102    -1
  201     98    86   100    -1
  202    103    98   100    -1
  203    102   101    98    -1
  204    103   102    98    -1
  205     92    33   107    -1
  206    104    92   107    -1
  207    159   154    92    -1
  208    104   159    92    -1
  209    107   158   104    -1
  210    104   158   159    -1
  211    105   114   110    -1
  212    106   105   110    -1
  213    107    33   106    -1
  214    106    33   105    -1
  215    110   158   107    -1
  216    106   110   107    -1
  217    110   114   115    -1
  218    109   110   115    -1
  219    108   158   110    -1
  220    109   108   110    -1
  221    115   117   109    -1
  222    109   117   108    -1
  223     49     4   124    -1
  224    111    49   124    -1
  225    112   174    49    -1
  226    111   112    49    -1
  227    124   190   112    -1
  228    111   124   112    -1
  229    113   118   121    -1
  230    116   113   121    -1
  231    115   114   116    -1
  232    116   114   113    -1
  233    121   117   115    -1
  234    116   121   115    -1
  235    121   118   119    -1
  236    122   121   119    -1
  237    288  1480  1485    -1
  238   1300  1299  1483    -1
  239    119   139   122    -1
  240    122   139   120    -1
  241    124     4   127    -1
  242    123   124   127    -1
  243    191   190   123    -1
  244    123   190   124    -1
  245   1558  1484  1565    -1
  246    988  1019  1563    -1
  247     56   131   125    -1
  248    125   131   126    -1
  249    119   118    56    -1
  250    125   119    56    -1
  251    126   139   119    -1
  252    125   126   119    -1
  253     62   136   130    -1
  254    128    62   130    -1
  255    127     4    62    -1
  256    128   127    62    -1
  257   1330  1329  1477    -1
  258   1391    50  1476    -1
  259     64  1382   133    -1
  260    132    64   133    -1
  261    134   131   132    -1
  262    132   131    64    -1
  263    133    94   134    -1
  264    132   133   134    -1
  265     67    19   135    -1
  266    138    67   135    -1
  267    137   136   138    -1
  268    138   136    67    -1
  269    135   150   137    -1
  270    138   135   137    -1
  271    120   139   141    -1
  272    141   139   186    -1
  273    140   117   141    -1
  274    141   117   120    -1
  275    186   242   140    -1
  276    141   186   140    -1
  277    130   136   145    -1
  278    142   130   145    -1
  279    203   129   142    -1
  280    142   129   130    -1
  281    145   212   203    -1
  282    142   145   203    -1
  283    137   150   144    -1
  284    143   137   144    -1
  285    145   136   137    -1
  286    143   145   137    -1
  287    144   212   145    -1
  288    143   144   145    -1
  289    144   150   149    -1
  290    146   144   149    -1
  291    211   212   144    -1
  292    146   211   144    -1
  293    149   220   146    -1
  294    146   220   211    -1
  295    151   101   148    -1
  296    147   151   148    -1
  297    149   150   147    -1
  298    147   150   151    -1
  299    148   220   149    -1
  300    147   148   149    -1
  301    148   101   152    -1
  302    153   148   152    -1
  303    218   220   148    -1
  304    153   218   148    -1
  305    152   179   153    -1
  306    153   179   218    -1
  307    625   626  1489    -1
  308   1137  1103  1491    -1
  309    152   101   155    -1
  310    155   101   102    -1
  311    156   179   152    -1
  312    155   156   152    -1
  313    626   628  1489    -1
  314    157   156   162    -1
  315    177   179   156    -1
  316    157   177   156    -1
  317    162   176   157    -1
  318    157   176   177    -1
  319    159   158   160    -1
  320    160   158   161    -1
  321    162   154   160    -1
  322    160   154   159    -1
  323    161   176   162    -1
  324    160   161   162    -1
  325    161   158   163    -1
  326    164   161   163    -1
  327    180   176   164    -1
  328    164   176   161    -1
  329    163   234   164    -1
  330    164   234   180    -1
  331    165   174   167    -1
  332    166   165   167    -1
  333    168    27   166    -1
  334    166    27   165    -1
  335    167   320   168    -1
  336    166   167   168    -1
  337    108   117   169    -1
  338    170   108   169    -1
  339    163   158   170    -1
  340    170   158   108    -1
  341    169   234   163    -1
  342    170   169   163    -1
  343    169   117   140    -1
  344    171   169   140    -1
  345    172   234   169    -1
  346    171   172   169    -1
  347    140   242   171    -1
  348    171   242   172    -1
  349    112   190   175    -1
  350    175   190   173    -1
  351    167   174   112    -1
  352    175   167   112    -1
  353    173   320   167    -1
  354    175   173   167    -1
  355    177   176   183    -1
  356    178   177   183    -1
  357    224   179   178    -1
  358    178   179   177    -1
  359    183   223   224    -1
  360    178   183   224    -1
  361    180   234   181    -1
  362    182   180   181    -1
  363    183   176   182    -1
  364    182   176   180    -1
  365    181   223   183    -1
  366    182   181   183    -1
  367    173   190   189    -1
  368    185   173   189    -1
  369    184   320   185    -1
  370    185   320   173    -1
  371    189   254   185    -1
  372    185   254   184    -1
  373    186   139   198    -1
  374    188   186   198    -1
  375    187   242   188    -1
  376    188   242   186    -1
  377    129   191  1593    -1
  378    188   198   187    -1
  379    191   129   192    -1
  380    193   191   192    -1
  381    189   190   193    -1
  382    193   190   191    -1
  383    192   254   189    -1
  384    193   192   189    -1
  385    192   129   204    -1
  386    195   192   204    -1
  387    196   254   195    -1
  388    195   254   192    -1
  389    204   194   195    -1
  390    195   194   196    -1
  391   1336  1337  1453    -1
  392     48     2  1526    -1
  393    198   139   197    -1
  394    197   139   126    -1
  395    424   417  1504    -1
  396    197   201   198    -1
  397   1407    13  1449    -1
  398    199   201   200    -1
  399   1457   491  1502    -1
  400    553   575  1524    -1
  401    200   202   199    -1
  402    199   202   282    -1
  403    203   212   206    -1
  404    206   212   205    -1
  405    204   129   206    -1
  406    206   129   203    -1
  407    205   194   204    -1
  408    206   205   204    -1
  409    205   212   207    -1
  410    208   205   207    -1
  411    264   194   205    -1
  412    208   264   205    -1
  413    207   214   208    -1
  414    208   214   264    -1
  415    134    94   209    -1
  416    209    94   210    -1
  417   1034   960  1460    -1
  418    543   556  1503    -1
  419    210   202   200    -1
  420    209   210   200    -1
  421    211   220   215    -1
  422    213   211   215    -1
  423    207   212   213    -1
  424    213   212   211    -1
  425    215   214   207    -1
  426    213   215   207    -1
  427    215   220   216    -1
  428    217   215   216    -1
  429    270   214   215    -1
  430    217   270   215    -1
  431    216   279   217    -1
  432    217   279   270    -1
  433    218   179   222    -1
  434    219   218   222    -1
  435    216   220   219    -1
  436    219   220   218    -1
  437    222   279   216    -1
  438    219   222   216    -1
  439    222   179   224    -1
  440    221   222   224    -1
  441    225   279   222    -1
  442    221   225   222    -1
  443    224   223   221    -1
  444    221   223   225    -1
  445    225   223   228    -1
  446    227   225   228    -1
  447    226   279   227    -1
  448    227   279   225    -1
  449    228   307   226    -1
  450    227   228   226    -1
  451    228   223   236    -1
  452    229   228   236    -1
  453    309   307   228    -1
  454    229   309   228    -1
  455    236   315   229    -1
  456    229   315   309    -1
  457    230    27   232    -1
  458    233   230   232    -1
  459    331   231   233    -1
  460    233   231   230    -1
  461    232   347   331    -1
  462    233   232   331    -1
  463    181   234   237    -1
  464    235   181   237    -1
  465    236   223   235    -1
  466    235   223   181    -1
  467    237   315   236    -1
  468    235   237   236    -1
  469    237   234   238    -1
  470    239   237   238    -1
  471    248   315   237    -1
  472    239   248   237    -1
  473    238   256   239    -1
  474    239   256   248    -1
  475    168   320   241    -1
  476    241   320   240    -1
  477    232    27   168    -1
  478    241   232   168    -1
  479    240   347   232    -1
  480    241   240   232    -1
  481    172   242   244    -1
  482    244   242   243    -1
  483    238   234   244    -1
  484    244   234   172    -1
  485    243   256   238    -1
  486    244   243   238    -1
  487    187   322   246    -1
  488    245   187   246    -1
  489    243   242   187    -1
  490    245   243   187    -1
  491    246   256   243    -1
  492    245   246   243    -1
  493    248   256   249    -1
  494    247   248   249    -1
  495    316   315   248    -1
  496    247   316   248    -1
  497    249   250   316    -1
  498    247   249   316    -1
  499    249   256   258    -1
  500    252   249   258    -1
  501    251   250   249    -1
  502    252   251   249    -1
  503    258   342   252    -1
  504    252   342   251    -1
  505    184   254   253    -1
  506    253   254   255    -1
  507    319   320   184    -1
  508    253   319   184    -1
  509    255   345   319    -1
  510    253   255   319    -1
  511    246   322   323    -1
  512    257   246   323    -1
  513    258   256   246    -1
  514    257   258   246    -1
  515    323   342   258    -1
  516    257   323   258    -1
  517    695   694  1509    -1
  518    536  1543  1571    -1
  519    255   254   260    -1
  520    260   254   196    -1
  521    259   345   255    -1
  522    260   259   255    -1
  523   1289  1290  1508    -1
  524    263   259   261    -1
  525    328   345   259    -1
  526    263   328   259    -1
  527    261   262   263    -1
  528    263   262   328    -1
  529    264   214   266    -1
  530    265   264   266    -1
  531    261   194   265    -1
  532    265   194   264    -1
  533    266   262   261    -1
  534    265   266   261    -1
  535    266   214   272    -1
  536    267   266   272    -1
  537    288   262   266    -1
  538    267   288   266    -1
  539    272   268   267    -1
  540    267   268   288    -1
  541    210    94   276    -1
  542    269   210   276    -1
  543    295   202   269    -1
  544    269   202   210    -1
  545    276   293   295    -1
  546    269   276   295    -1
  547    270   279   273    -1
  548    271   270   273    -1
  549    272   214   271    -1
  550    271   214   270    -1
  551    273   268   272    -1
  552    271   273   272    -1
  553    274   275   277    -1
  554    277   275   382    -1
  555    276    94   274    -1
  556    277   276   274    -1
  557    382   293   276    -1
  558    277   382   276    -1
  559    226   307   278    -1
  560    280   226   278    -1
  561    273   279   226    -1
  562    280   273   226    -1
  563    278   268   273    -1
  564    280   278   273    -1
  565    282   202   283    -1
  566    281   282   283    -1
  567    326   322   281    -1
  568    281   322   282    -1
  569    283   325   326    -1
  570    281   283   326    -1
  571    283   202   285    -1
  572    284   283   285    -1
  573    358   325   284    -1
  574    284   325   283    -1
  575    285   425   358    -1
  576    284   285   358    -1
  577   1299  1222  1483    -1
  578    162   156  1488    -1
  579    286   262   287    -1
  580    287   262   288    -1
  581    448   385  1529    -1
  582    123   127  1560    -1
  583   1583  1511  1590    -1
  584    292   290   300    -1
  585     49    48  1526    -1
  586    292   291   290    -1
  587    300   298   292    -1
  588    292   298   291    -1
  589    295   293   294    -1
  590    294   293   432    -1
  591    285   202   295    -1
  592    294   285   295    -1
  593    432   425   285    -1
  594    294   432   285    -1
  595    300   268   296    -1
  596    297   300   296    -1
  597    299   298   300    -1
  598    297   299   300    -1
  599    296   362   297    -1
  600    297   362   299    -1
  601    278   307   302    -1
  602    301   278   302    -1
  603    296   268   301    -1
  604    301   268   278    -1
  605    302   362   296    -1
  606    301   302   296    -1
  607    302   307   308    -1
  608    305   302   308    -1
  609    303   362   302    -1
  610    305   303   302    -1
  611    308   304   305    -1
  612    305   304   303    -1
  613    309   315   311    -1
  614    306   309   311    -1
  615    308   307   306    -1
  616    306   307   309    -1
  617    620   637  1495    -1
  618    306   311   308    -1
  619    311   315   312    -1
  620    310   311   312    -1
  621    759   826  1493    -1
  622    282   322  1501    -1
  623    312   313   310    -1
  624    310   313   368    -1
  625    316   250   314    -1
  626    314   250   317    -1
  627    312   315   316    -1
  628    314   312   316    -1
  629    317   313   312    -1
  630    314   317   312    -1
  631    319   345   318    -1
  632    321   319   318    -1
  633    240   320   319    -1
  634    321   240   319    -1
  635    318   347   321    -1
  636    321   347   240    -1
  637    323   322   326    -1
  638    327   323   326    -1
  639    324   342   323    -1
  640    327   324   323    -1
  641    326   325   327    -1
  642    327   325   324    -1
  643    328   262   286    -1
  644    330   328   286    -1
  645    329   345   328    -1
  646    330   329   328    -1
  647    286   289   329    -1
  648    330   286   329    -1
  649    331   347   333    -1
  650    333   347   332    -1
  651    394   231   331    -1
  652    333   394   331    -1
  653    332   574   394    -1
  654    333   332   394    -1
  655    317   250   335    -1
  656    334   317   335    -1
  657    372   313   334    -1
  658    334   313   317    -1
  659    335   398   372    -1
  660    334   335   372    -1
  661    335   250   337    -1
  662    338   335   337    -1
  663    339   398   338    -1
  664    338   398   335    -1
  665    489   580  1457    -1
  666    700   703  1479    -1
  667    332   347   349    -1
  668    340   332   349    -1
  669    481   574   332    -1
  670    340   481   332    -1
  671    349   414   340    -1
  672    340   414   481    -1
  673    787  1479  1596    -1
  674   1479   703  1596    -1
  675    337   250   341    -1
  676    341   250   251    -1
  677    344   336   337    -1
  678    341   344   337    -1
  679    740   743  1598    -1
  680    343   344   353    -1
  681    400   336   344    -1
  682    343   400   344    -1
  683    353   416   343    -1
  684    343   416   400    -1
  685    318   345   348    -1
  686    346   318   348    -1
  687    349   347   346    -1
  688    346   347   318    -1
  689    348   414   349    -1
  690    346   348   349    -1
  691    348   345   352    -1
  692    350   348   352    -1
  693    351   414   348    -1
  694    350   351   348    -1
  695    352   404   350    -1
  696    350   404   351    -1
  697    324   325   354    -1
  698    354   325   357    -1
  699    353   342   324    -1
  700    354   353   324    -1
  701    357   416   353    -1
  702    354   357   353    -1
  703    329   289   355    -1
  704    355   289   356    -1
  705    352   345   329    -1
  706    355   352   329    -1
  707    356   404   352    -1
  708    355   356   352    -1
  709    358   425   423    -1
  710    359   358   423    -1
  711    357   325   359    -1
  712    359   325   358    -1
  713    423   416   357    -1
  714    359   423   357    -1
  715    299   362   363    -1
  716    360   299   363    -1
  717    361   298   360    -1
  718    360   298   299    -1
  719    363   436   361    -1
  720    360   363   361    -1
  721     50    44  1476    -1
  722   1034  1460  1588    -1
  723    363   362   364    -1
  724    364   362   303    -1
  725    366   436   363    -1
  726    364   366   363    -1
  727    121   122  1482    -1
  728    105    33  1540    -1
  729    384   436   366    -1
  730    367   384   366    -1
  731    365   369   367    -1
  732    367   369   384    -1
  733    368   313   371    -1
  734    370   368   371    -1
  735    365   304   370    -1
  736    370   304   368    -1
  737    371   369   365    -1
  738    370   371   365    -1
  739    371   313   372    -1
  740    373   371   372    -1
  741    389   369   371    -1
  742    373   389   371    -1
  743    372   398   373    -1
  744    373   398   389    -1
  745    291   298   376    -1
  746    374   291   376    -1
  747    375   289   374    -1
  748    374   289   291    -1
  749    376   419   375    -1
  750    374   376   375    -1
  751    376   298   378    -1
  752    377   376   378    -1
  753    504   419   377    -1
  754    377   419   376    -1
  755    378   439   377    -1
  756    377   439   504    -1
  757    361   436   379    -1
  758    379   436   437    -1
  759    378   298   361    -1
  760    379   378   361    -1
  761    437   439   378    -1
  762    379   437   378    -1
  763    382   275   380    -1
  764    380   275   387    -1
  765    381   293   382    -1
  766    380   381   382    -1
  767    387   443   381    -1
  768    380   387   381    -1
  769    384   369   383    -1
  770    386   384   383    -1
  771    385   436   384    -1
  772    386   385   384    -1
  773    383   447   386    -1
  774    386   447   385    -1
  775     77   775   773    -1
  776    388    77   773    -1
  777    387   275    77    -1
  778    388   387    77    -1
  779    773   443   388    -1
  780    388   443   387    -1
  781    389   398   391    -1
  782    390   389   391    -1
  783    383   369   390    -1
  784    390   369   389    -1
  785    391   447   383    -1
  786    390   391   383    -1
  787    391   398   399    -1
  788    393   391   399    -1
  789    392   447   391    -1
  790    393   392   391    -1
  791    399   452   393    -1
  792    393   452   392    -1
  793    394   574   564    -1
  794    396   394   564    -1
  795     72   231   394    -1
  796    396    72   394    -1
  797    564   395   396    -1
  798    396   395    72    -1
  799    339   336   405    -1
  800    397   339   405    -1
  801    399   398   397    -1
  802    397   398   339    -1
  803    405   452   399    -1
  804    397   405   399    -1
  805    400   416   401    -1
  806    402   400   401    -1
  807    412   336   400    -1
  808    402   412   400    -1
  809    489  1457  1502    -1
  810    658   657  1578    -1
  811    356   289   375    -1
  812    403   356   375    -1
  813    420   404   403    -1
  814    403   404   356    -1
  815    375   419   420    -1
  816    403   375   420    -1
  817    405   336   408    -1
  818    406   405   408    -1
  819    407   452   406    -1
  820    406   452   405    -1
  821    620   623  1514    -1
  822    983   981  1515    -1
  823    408   336   409    -1
  824    411   408   409    -1
  825   1511   407  1512    -1
  826    366  1585  1586    -1
  827    409   486   411    -1
  828    411   486   410    -1
  829    412   493   413    -1
  830    413   493   487    -1
  831    409   336   412    -1
  832    413   409   412    -1
  833    487   486   409    -1
  834    413   487   409    -1
  835    351   404   422    -1
  836    415   351   422    -1
  837    484   414   415    -1
  838    415   414   351    -1
  839    422   483   484    -1
  840    415   422   484    -1
  841    401   416   417    -1
  842    418   401   417    -1
  843    492   493   418    -1
  844    418   493   401    -1
  845    417   428   492    -1
  846    418   417   492    -1
  847    420   419   499    -1
  848    421   420   499    -1
  849    422   404   421    -1
  850    421   404   420    -1
  851    499   483   422    -1
  852    421   499   422    -1
  853    423   425   429    -1
  854    424   423   429    -1
  855    261   259  1507    -1
  856    689   690  1505    -1
  857    429   428   417    -1
  858    424   429   417    -1
  859    429   425   427    -1
  860    426   429   427    -1
  861    430   428   429    -1
  862    426   430   429    -1
  863    427   431   426    -1
  864    426   431   430    -1
  865    432   293   433    -1
  866    434   432   433    -1
  867    427   425   434    -1
  868    434   425   432    -1
  869    433   431   427    -1
  870    434   433   427    -1
  871    433   293   444    -1
  872    435   433   444    -1
  873    528   431   435    -1
  874    435   431   433    -1
  875    444   527   528    -1
  876    435   444   528    -1
  877    437   436   441    -1
  878    438   437   441    -1
  879    442   439   438    -1
  880    438   439   437    -1
  881    441   440   442    -1
  882    438   441   442    -1
  883    381   443   446    -1
  884    446   443   445    -1
  885    444   293   381    -1
  886    446   444   381    -1
  887    445   527   446    -1
  888    446   527   444    -1
  889   1474  1513  1532    -1
  890   1503  1555  1591    -1
  891   1080  1052  1447    -1
  892    872   927  1445    -1
  893    451   440   441    -1
  894    448   451   441    -1
  895    451   447   454    -1
  896    449   451   454    -1
  897    450   440   451    -1
  898    449   450   451    -1
  899    454   470   449    -1
  900    449   470   450    -1
  901    392   452   456    -1
  902    453   392   456    -1
  903    454   447   453    -1
  904    453   447   392    -1
  905    456   470   454    -1
  906    453   456   454    -1
  907    456   452   407    -1
  908    455   456   407    -1
  909    457   470   456    -1
  910    455   457   456    -1
  911    407   475   455    -1
  912    455   475   457    -1
  913    442   440   459    -1
  914    460   442   459    -1
  915    509   439   460    -1
  916    460   439   442    -1
  917    459   458   509    -1
  918    460   459   509    -1
  919    459   440   461    -1
  920    462   459   461    -1
  921    532   458   459    -1
  922    462   532   459    -1
  923    461   463   462    -1
  924    462   463   532    -1
  925    450   470   466    -1
  926    464   450   466    -1
  927    461   440   464    -1
  928    464   440   450    -1
  929    466   463   461    -1
  930    464   466   461    -1
  931    466   470   465    -1
  932    467   466   465    -1
  933    468   463   466    -1
  934    467   468   466    -1
  935    465   540   467    -1
  936    467   540   468    -1
  937    457   475   472    -1
  938    469   457   472    -1
  939    465   470   469    -1
  940    469   470   457    -1
  941    472   540   465    -1
  942    469   472   465    -1
  943    472   475   471    -1
  944    474   472   471    -1
  945    546   540   472    -1
  946    474   546   472    -1
  947    471   473   474    -1
  948    474   473   546    -1
  949    410   486   476    -1
  950    477   410   476    -1
  951    471   475   477    -1
  952    477   475   410    -1
  953    476   473   471    -1
  954    477   476   471    -1
  955    476   486   488    -1
  956    479   476   488    -1
  957   1080  1447  1462    -1
  958    508  1580  1589    -1
  959    488   580   479    -1
  960    479   580   478    -1
  961    481   414   480    -1
  962    480   414   484    -1
  963    482   574   481    -1
  964    480   482   481    -1
  965    484   483   482    -1
  966    480   484   482    -1
  967    282  1501  1521    -1
  968    975   976  1564    -1
  969    488   486   485    -1
  970    485   486   487    -1
  971    473   476  1459    -1
  972    485   491   488    -1
  973   1493   820  1519    -1
  974    490   491   496    -1
  975    636   734  1458    -1
  976    690   685  1505    -1
  977    496   495   490    -1
  978    490   495   489    -1
  979    492   428   494    -1
  980    494   428   498    -1
  981    496   493   494    -1
  982    494   493   492    -1
  983    498   495   496    -1
  984    494   498   496    -1
  985    498   428   503    -1
  986    497   498   503    -1
  987    585   495   498    -1
  988    497   585   498    -1
  989    503   588   497    -1
  990    497   588   585    -1
  991    499   419   506    -1
  992    500   499   506    -1
  993    510   483   499    -1
  994    500   510   499    -1
  995    506   513   500    -1
  996    500   513   510    -1
  997    430   431   501    -1
  998    502   430   501    -1
  999    503   428   502    -1
 1000    502   428   430    -1
 1001    501   588   503    -1
 1002    502   501   503    -1
 1003    504   439   508    -1
 1004    505   504   508    -1
 1005    506   419   505    -1
 1006    505   419   504    -1
 1007   1553  1204  1592    -1
 1008    617  1530  1582    -1
 1009    508   439   509    -1
 1010    507   508   509    -1
 1011   1534  1465  1577    -1
 1012    410  1511  1583    -1
 1013    509   458   507    -1
 1014    507   458   520    -1
 1015    510   513   511    -1
 1016    512   510   511    -1
 1017    552   483   512    -1
 1018    512   483   510    -1
 1019    511   573   552    -1
 1020    512   511   552    -1
 1021    511   513   516    -1
 1022    514   511   516    -1
 1023    647   573   511    -1
 1024    514   647   511    -1
 1025    516   600   514    -1
 1026    514   600   647    -1
 1027    516   513   522    -1
 1028    517   516   522    -1
 1029    515   600   516    -1
 1030    517   515   516    -1
 1031    522   523   517    -1
 1032    517   523   515    -1
 1033    915   976  1472    -1
 1034    780   840  1470    -1
 1035    821  1493  1519    -1
 1036     12    13  1517    -1
 1037    529   519   590    -1
 1038    518   529   590    -1
 1039    520   458   524    -1
 1040    521   520   524    -1
 1041    522   513   521    -1
 1042    521   513   520    -1
 1043    524   523   522    -1
 1044    521   524   522    -1
 1045    524   458   533    -1
 1046    525   524   533    -1
 1047    526   523   524    -1
 1048    525   526   524    -1
 1049    533   597   525    -1
 1050    525   597   526    -1
 1051    528   527   530    -1
 1052    530   527   664    -1
 1053    529   431   528    -1
 1054    530   529   528    -1
 1055    664   519   529    -1
 1056    530   664   529    -1
 1057    402   401  1499    -1
 1058   1024  1033  1556    -1
 1059    533   458   531    -1
 1060    531   458   532    -1
 1061    717  1463  1546    -1
 1062    531   534   533    -1
 1063   1484   686  1497    -1
 1064   1299  1290  1573    -1
 1065    191  1560  1593    -1
 1066   1572   959  1574    -1
 1067    535   594   537    -1
 1068    537   594   536    -1
 1069    468   540   539    -1
 1070    538   468   539    -1
 1071    535   463   538    -1
 1072    538   463   468    -1
 1073    539   594   535    -1
 1074    538   539   535    -1
 1075    539   540   542    -1
 1076    544   539   542    -1
 1077    541   594   539    -1
 1078    544   541   539    -1
 1079    542   543   544    -1
 1080    544   543   541    -1
 1081    546   473   547    -1
 1082    545   546   547    -1
 1083    542   540   545    -1
 1084    545   540   546    -1
 1085    547   543   542    -1
 1086    545   547   542    -1
 1087    547   473   551    -1
 1088    548   547   551    -1
 1089    549   543   547    -1
 1090    548   549   547    -1
 1091    551   560   548    -1
 1092    548   560   549    -1
 1093    478   580   569    -1
 1094    550   478   569    -1
 1095    551   473   550    -1
 1096    550   473   478    -1
 1097    569   560   551    -1
 1098    550   569   551    -1
 1099    482   483   552    -1
 1100    553   482   552    -1
 1101   1010  1053  1527    -1
 1102    290   291  1525    -1
 1103    552   573   575    -1
 1104    553   552   575    -1
 1105    732   741  1506    -1
 1106    927   872  1552    -1
 1107    596   594   554    -1
 1108    554   594   541    -1
 1109    555   606   596    -1
 1110    554   555   596    -1
 1111    423   424  1504    -1
 1112    781  1484  1558    -1
 1113    608   606   555    -1
 1114    557   608   555    -1
 1115    556   558   557    -1
 1116    557   558   608    -1
 1117    549   560   561    -1
 1118    559   549   561    -1
 1119    556   543   559    -1
 1120    559   543   549    -1
 1121    561   558   556    -1
 1122    559   561   556    -1
 1123    561   560   562    -1
 1124    563   561   562    -1
 1125    611   558   561    -1
 1126    563   611   561    -1
 1127    562   570   563    -1
 1128    563   570   611    -1
 1129    564   574   565    -1
 1130    567   564   565    -1
 1131    566   395   564    -1
 1132    567   566   564    -1
 1133    565   577   566    -1
 1134    567   565   566    -1
 1135   1252  1331  1455    -1
 1136    571   569   568    -1
 1137    562   560   571    -1
 1138    571   560   569    -1
 1139    765  1470  1533    -1
 1140    661  1550  1554    -1
 1141   1335  1336  1453    -1
 1142    572   568   579    -1
 1143   1313  1385  1531    -1
 1144    303  1473  1585    -1
 1145    579   619   572    -1
 1146    572   619   617    -1
 1147    575   573   576    -1
 1148    576   573   641    -1
 1149    565   574   575    -1
 1150    576   565   575    -1
 1151    641   577   576    -1
 1152    576   577   565    -1
 1153    489   495   578    -1
 1154    581   489   578    -1
 1155    579   580   581    -1
 1156    581   580   489    -1
 1157    578   619   579    -1
 1158    581   578   579    -1
 1159    578   495   583    -1
 1160    582   578   583    -1
 1161    584   619   582    -1
 1162    582   619   578    -1
 1163    583   622   582    -1
 1164    582   622   584    -1
 1165    585   588   587    -1
 1166    586   585   587    -1
 1167    583   495   586    -1
 1168    586   495   585    -1
 1169    587   622   583    -1
 1170    586   587   583    -1
 1171    587   588   592    -1
 1172    589   587   592    -1
 1173    651   622   587    -1
 1174    589   651   587    -1
 1175    592   659   589    -1
 1176    589   659   651    -1
 1177    590   519   593    -1
 1178    593   519   591    -1
 1179    592   588   590    -1
 1180    593   592   590    -1
 1181    591   659   592    -1
 1182    593   591   592    -1
 1183    536   594   596    -1
 1184    595   536   596    -1
 1185    604   597   595    -1
 1186    595   597   536    -1
 1187    596   606   604    -1
 1188    595   596   604    -1
 1189    515   523   598    -1
 1190    599   515   598    -1
 1191    657   600   599    -1
 1192    599   600   515    -1
 1193    598   689   657    -1
 1194    599   598   657    -1
 1195    526   597   602    -1
 1196    601   526   602    -1
 1197    598   523   601    -1
 1198    601   523   526    -1
 1199    602   689   598    -1
 1200    601   602   598    -1
 1201    602   597   607    -1
 1202    603   602   607    -1
 1203    699   689   602    -1
 1204    603   699   602    -1
 1205    607   702   603    -1
 1206    603   702   699    -1
 1207    604   606   605    -1
 1208    605   606   670    -1
 1209    607   597   604    -1
 1210    605   607   604    -1
 1211    670   702   607    -1
 1212    605   670   607    -1
 1213    608   558   609    -1
 1214    610   608   609    -1
 1215    625   606   608    -1
 1216    610   625   608    -1
 1217    609   615   610    -1
 1218    610   615   625    -1
 1219    611   570   613    -1
 1220    612   611   613    -1
 1221    609   558   612    -1
 1222    612   558   611    -1
 1223    613   615   609    -1
 1224    612   613   609    -1
 1225    613   570   616    -1
 1226    614   613   616    -1
 1227    631   615   613    -1
 1228    614   631   613    -1
 1229    616   640   614    -1
 1230    614   640   631    -1
 1231    617   619   621    -1
 1232    618   617   621    -1
 1233    616   570   618    -1
 1234    618   570   617    -1
 1235    621   640   616    -1
 1236    618   621   616    -1
 1237    621   619   623    -1
 1238    620   621   623    -1
 1239    368  1492  1498    -1
 1240    463   535  1496    -1
 1241     13  1407  1517    -1
 1242    984   983  1515    -1
 1243    584   622   624    -1
 1244    624   622   644    -1
 1245    623   619   584    -1
 1246    624   623   584    -1
 1247    644   636   623    -1
 1248    624   644   623    -1
 1249    748   750  1446    -1
 1250    385   448  1444    -1
 1251    368   304  1492    -1
 1252    716  1534  1577    -1
 1253    627   672   628    -1
 1254    626   627   628    -1
 1255    627   615   629    -1
 1256    630   627   629    -1
 1257    713   672   627    -1
 1258    630   713   627    -1
 1259    629   720   630    -1
 1260    630   720   713    -1
 1261    631   640   633    -1
 1262    632   631   633    -1
 1263    629   615   632    -1
 1264    632   615   631    -1
 1265    633   720   629    -1
 1266    632   633   629    -1
 1267    633   640   638    -1
 1268    635   633   638    -1
 1269    719   720   633    -1
 1270    635   719   633    -1
 1271    638   634   635    -1
 1272    635   634   719    -1
 1273    637   636   727    -1
 1274    639   637   727    -1
 1275    638   640   639    -1
 1276    639   640   637    -1
 1277    727   634   638    -1
 1278    639   727   638    -1
 1279    641   573   650    -1
 1280    643   641   650    -1
 1281    642   577   641    -1
 1282    643   642   641    -1
 1283    650   764   642    -1
 1284    643   650   642    -1
 1285    644   622   645    -1
 1286    646   644   645    -1
 1287    735   636   644    -1
 1288    646   735   644    -1
 1289    645   654   646    -1
 1290    646   654   735    -1
 1291    647   600   648    -1
 1292    649   647   648    -1
 1293    650   573   649    -1
 1294    649   573   647    -1
 1295    648   764   650    -1
 1296    649   648   650    -1
 1297    651   659   652    -1
 1298    653   651   652    -1
 1299    645   622   653    -1
 1300    653   622   651    -1
 1301    652   654   645    -1
 1302    653   652   645    -1
 1303    652   659   655    -1
 1304    656   652   655    -1
 1305    679   654   652    -1
 1306    656   679   652    -1
 1307    655   676   656    -1
 1308    656   676   679    -1
 1309   1009  1011  1581    -1
 1310   1576   506  1579    -1
 1311    648   600   657    -1
 1312    658   648   657    -1
 1313    688   764   648    -1
 1314    658   688   648    -1
 1315    591   519   661    -1
 1316    660   591   661    -1
 1317    655   659   660    -1
 1318    660   659   591    -1
 1319    989   986  1464    -1
 1320    487  1518  1548    -1
 1321    661   519   665    -1
 1322    662   661   665    -1
 1323   1473   365  1537    -1
 1324   1475   129  1593    -1
 1325    665   694   662    -1
 1326    662   694   663    -1
 1327    664   527   667    -1
 1328    666   664   667    -1
 1329    665   519   666    -1
 1330    666   519   664    -1
 1331    667   694   665    -1
 1332    666   667   665    -1
 1333    667   527   674    -1
 1334    668   667   674    -1
 1335    669   694   667    -1
 1336    668   669   667    -1
 1337    674   792   669    -1
 1338    668   674   669    -1
 1339    670   606   628    -1
 1340    671   670   628    -1
 1341    707   702   671    -1
 1342    671   702   670    -1
 1343    628   672   707    -1
 1344    671   628   707    -1
 1345    445   443   675    -1
 1346    675   443   673    -1
 1347    674   527   675    -1
 1348    675   527   445    -1
 1349    673   792   674    -1
 1350    675   673   674    -1
 1351    679   676   677    -1
 1352    678   679   677    -1
 1353    681   654   678    -1
 1354    678   654   679    -1
 1355    677   680   681    -1
 1356    678   677   681    -1
 1357    677   676   683    -1
 1358    682   677   683    -1
 1359    684   680   677    -1
 1360    682   684   677    -1
 1361    683   693   682    -1
 1362    682   693   684    -1
 1363    694   705  1509    -1
 1364   1582  1530  1587    -1
 1365    686   764   687    -1
 1366    687   764   688    -1
 1367    520  1576  1580    -1
 1368    532  1496  1500    -1
 1369   1478  1455  1600    -1
 1370    691   685   690    -1
 1371   1480   290  1485    -1
 1372   1314  1531  1561    -1
 1373    690   787   691    -1
 1374    691   787   781    -1
 1375    663   694   695    -1
 1376    692   663   695    -1
 1377    683   676   692    -1
 1378    692   676   663    -1
 1379    695   693   683    -1
 1380    692   695   683    -1
 1381    127  1475  1593    -1
 1382   1506   728  1510    -1
 1383    698   693   695    -1
 1384    697   698   695    -1
 1385    705   696   697    -1
 1386    697   696   698    -1
 1387    699   702   700    -1
 1388    701   699   700    -1
 1389    690   689   701    -1
 1390    701   689   699    -1
 1391    122   120  1482    -1
 1392    701   700   690    -1
 1393    700   702   710    -1
 1394    703   700   710    -1
 1395    743   805  1598    -1
 1396    268   300  1480    -1
 1397    710   796   703    -1
 1398    703   796   786    -1
 1399    669   792   704    -1
 1400    706   669   704    -1
 1401    705   694   669    -1
 1402    706   705   669    -1
 1403    704   696   706    -1
 1404    706   696   705    -1
 1405    707   672   709    -1
 1406    709   672   708    -1
 1407    710   702   709    -1
 1408    709   702   707    -1
 1409    708   796   710    -1
 1410    709   708   710    -1
 1411    708   672   711    -1
 1412    712   708   711    -1
 1413    794   796   708    -1
 1414    712   794   708    -1
 1415    711   715   712    -1
 1416    712   715   794    -1
 1417   1334  1352  1468    -1
 1418   1580  1576  1589    -1
 1419    711   672   714    -1
 1420    714   672   713    -1
 1421    908  1464  1466    -1
 1422    714   716   711    -1
 1423   1464   986  1466    -1
 1424    606   625  1489    -1
 1425    997   989  1464    -1
 1426    541  1503  1549    -1
 1427    723   721   718    -1
 1428    718   721   717    -1
 1429    719   634   725    -1
 1430    722   719   725    -1
 1431    723   720   722    -1
 1432    722   720   719    -1
 1433    725   721   723    -1
 1434    722   725   723    -1
 1435    725   634   728    -1
 1436    726   725   728    -1
 1437    724   721   725    -1
 1438    726   724   725    -1
 1439    728   741   726    -1
 1440    726   741   724    -1
 1441    476   479  1459    -1
 1442    663   676  1461    -1
 1443    728   634   729    -1
 1444    729   634   727    -1
 1445   1284  1289  1508    -1
 1446   1470   841  1533    -1
 1447    479   478  1459    -1
 1448    730   731   734    -1
 1449    194   261  1507    -1
 1450    291   289  1525    -1
 1451    734   756   730    -1
 1452    730   756   732    -1
 1453    735   654   736    -1
 1454    733   735   736    -1
 1455    734   636   733    -1
 1456    733   636   735    -1
 1457    736   756   734    -1
 1458    733   736   734    -1
 1459    736   654   681    -1
 1460    738   736   681    -1
 1461    737   756   736    -1
 1462    738   737   736    -1
 1463    681   680   738    -1
 1464    738   680   737    -1
 1465    724   741   740    -1
 1466    739   724   740    -1
 1467    776   721   739    -1
 1468    739   721   724    -1
 1469   1597   740  1598    -1
 1470   1260  1258  1601    -1
 1471    740   741   742    -1
 1472    743   740   742    -1
 1473    200   201  1599    -1
 1474   1523  1448  1599    -1
 1475    742   811   743    -1
 1476    743   811   805    -1
 1477    566   577   745    -1
 1478    745   577   744    -1
 1479    866   395   566    -1
 1480    745   866   566    -1
 1481    744   751   866    -1
 1482    745   744   866    -1
 1483    732   756   746    -1
 1484    747   732   746    -1
 1485    742   741   747    -1
 1486    747   741   732    -1
 1487    746   811   742    -1
 1488    747   746   742    -1
 1489    746   756   750    -1
 1490    748   746   750    -1
 1491    663  1461  1550    -1
 1492   1056  1057  1567    -1
 1493     13     7  1449    -1
 1494    746   748  1547    -1
 1495    642   764   754    -1
 1496    752   642   754    -1
 1497    744   577   752    -1
 1498    752   577   642    -1
 1499    754   751   744    -1
 1500    752   754   744    -1
 1501    754   764   755    -1
 1502    753   754   755    -1
 1503    895   751   754    -1
 1504    753   895   754    -1
 1505    755   901   753    -1
 1506    753   901   895    -1
 1507    737   680   757    -1
 1508    758   737   757    -1
 1509    750   756   758    -1
 1510    758   756   737    -1
 1511    757   759   750    -1
 1512    758   757   750    -1
 1513    757   680   761    -1
 1514    762   757   761    -1
 1515    763   759   757    -1
 1516    762   763   757    -1
 1517    761   760   762    -1
 1518    762   760   763    -1
 1519    686   780   766    -1
 1520    766   780   765    -1
 1521    755   764   686    -1
 1522    766   755   686    -1
 1523    765   901   755    -1
 1524    766   765   755    -1
 1525    684   693   767    -1
 1526    768   684   767    -1
 1527    761   680   768    -1
 1528    768   680   684    -1
 1529    767   760   761    -1
 1530    768   767   761    -1
 1531    767   693   772    -1
 1532    770   767   772    -1
 1533    769   760   767    -1
 1534    770   769   767    -1
 1535    772   843   770    -1
 1536    770   843   769    -1
 1537    698   696   783    -1
 1538    771   698   783    -1
 1539    772   693   771    -1
 1540    771   693   698    -1
 1541    783   843   772    -1
 1542    771   783   772    -1
 1543    673   443   773    -1
 1544    774   673   773    -1
 1545    855   792   673    -1
 1546    774   855   673    -1
 1547    773   775   855    -1
 1548    774   773   855    -1
 1549    717   721   776    -1
 1550    778   717   776    -1
 1551    777   715   717    -1
 1552    778   777   717    -1
 1553    776   804   778    -1
 1554    778   804   777    -1
 1555    781   787   779    -1
 1556    782   781   779    -1
 1557    840   780   782    -1
 1558    782   780   781    -1
 1559    779   838   840    -1
 1560    782   779   840    -1
 1561    783   696   784    -1
 1562    785   783   784    -1
 1563    844   843   785    -1
 1564    785   843   783    -1
 1565    784   995   844    -1
 1566    785   784   844    -1
 1567    786   796   788    -1
 1568    789   786   788    -1
 1569    779   787   789    -1
 1570    789   787   786    -1
 1571    788   838   779    -1
 1572    789   788   779    -1
 1573    788   796   798    -1
 1574    791   788   798    -1
 1575    790   838   788    -1
 1576    791   790   788    -1
 1577    798   800   791    -1
 1578    791   800   790    -1
 1579    704   792   793    -1
 1580    793   792   850    -1
 1581    784   696   793    -1
 1582    793   696   704    -1
 1583    850   995   784    -1
 1584    793   850   784    -1
 1585    794   715   795    -1
 1586    797   794   795    -1
 1587    798   796   797    -1
 1588    797   796   794    -1
 1589    795   800   798    -1
 1590    797   795   798    -1
 1591    777   804   802    -1
 1592    799   777   802    -1
 1593    795   715   799    -1
 1594    799   715   777    -1
 1595    802   800   795    -1
 1596    799   802   795    -1
 1597    802   804   806    -1
 1598    801   802   806    -1
 1599    861   800   802    -1
 1600    801   861   802    -1
 1601    806   859   801    -1
 1602    801   859   861    -1
 1603    805   811   807    -1
 1604    803   805   807    -1
 1605    806   804   803    -1
 1606    803   804   805    -1
 1607    807   859   806    -1
 1608    803   807   806    -1
 1609    807   811   813    -1
 1610    809   807   813    -1
 1611    808   859   807    -1
 1612    809   808   807    -1
 1613    813   812   809    -1
 1614    809   812   808    -1
 1615    749   759   821    -1
 1616    810   749   821    -1
 1617    813   811   810    -1
 1618    810   811   749    -1
 1619    821   812   813    -1
 1620    810   821   813    -1
 1621    808   812   815    -1
 1622    814   808   815    -1
 1623    816   859   814    -1
 1624    814   859   808    -1
 1625    815   818   816    -1
 1626    814   815   816    -1
 1627    815   812   822    -1
 1628    817   815   822    -1
 1629    819   818   815    -1
 1630    817   819   815    -1
 1631    822   890   817    -1
 1632    817   890   819    -1
 1633   1543   534  1571    -1
 1634    732  1506  1522    -1
 1635    822   812   823    -1
 1636    823   812   821    -1
 1637   1252  1455  1478    -1
 1638    518   590  1516    -1
 1639   1017  1114  1494    -1
 1640    824   820   826    -1
 1641    127   128  1475    -1
 1642    781   780  1484    -1
 1643    826   825   824    -1
 1644    824   825   887    -1
 1645    763   760   828    -1
 1646    827   763   828    -1
 1647    826   759   827    -1
 1648    827   759   763    -1
 1649    828   825   826    -1
 1650    827   828   826    -1
 1651    828   760   835    -1
 1652    829   828   835    -1
 1653    830   825   828    -1
 1654    829   830   828    -1
 1655    835   906   829    -1
 1656    829   906   830    -1
 1657   1206  1173  1538    -1
 1658   1462  1447  1536    -1
 1659    833   901   832    -1
 1660    832   901   765    -1
 1661    841   831   833    -1
 1662    832   841   833    -1
 1663    769   843   836    -1
 1664    834   769   836    -1
 1665    835   760   834    -1
 1666    834   760   769    -1
 1667    836   906   835    -1
 1668    834   836   835    -1
 1669    836   843   847    -1
 1670    837   836   847    -1
 1671    904   906   837    -1
 1672    837   906   836    -1
 1673    847   997   904    -1
 1674    837   847   904    -1
 1675    840   838   839    -1
 1676    839   838   842    -1
 1677   1059  1057  1471    -1
 1678    839   841   840    -1
 1679    842   831   841    -1
 1680    839   842   841    -1
 1681    844   995   845    -1
 1682    845   995   846    -1
 1683    847   843   844    -1
 1684    845   847   844    -1
 1685    846   997   847    -1
 1686    845   846   847    -1
 1687    790   800   853    -1
 1688    849   790   853    -1
 1689    869   838   790    -1
 1690    849   869   790    -1
 1691    853   848   869    -1
 1692    849   853   869    -1
 1693    850   792   856    -1
 1694    852   850   856    -1
 1695    949   995   850    -1
 1696    852   949   850    -1
 1697    856   851   852    -1
 1698    852   851   949    -1
 1699    853   800   860    -1
 1700    854   853   860    -1
 1701    873   848   853    -1
 1702    854   873   853    -1
 1703    860   875   854    -1
 1704    854   875   873    -1
 1705    855   775   857    -1
 1706    858   855   857    -1
 1707    856   792   855    -1
 1708    858   856   855    -1
 1709    857   851   856    -1
 1710    858   857   856    -1
 1711    861   859   862    -1
 1712    863   861   862    -1
 1713    860   800   863    -1
 1714    863   800   861    -1
 1715    862   875   863    -1
 1716    863   875   860    -1
 1717    862   859   816    -1
 1718    865   862   816    -1
 1719    864   875   862    -1
 1720    865   864   862    -1
 1721    816   818   865    -1
 1722    865   818   864    -1
 1723    866   751   946    -1
 1724    867   866   946    -1
 1725    868   395   866    -1
 1726    867   868   866    -1
 1727    946  1230   867    -1
 1728    867  1230   868    -1
 1729    869   848   870    -1
 1730    870   848   871    -1
 1731    910   838   869    -1
 1732    870   910   869    -1
 1733    871   992   910    -1
 1734    870   871   910    -1
 1735    873   875   877    -1
 1736    874   873   877    -1
 1737    872   848   873    -1
 1738    874   872   873    -1
 1739    877   934   874    -1
 1740    874   934   872    -1
 1741    864   818   879    -1
 1742    876   864   879    -1
 1743    877   875   876    -1
 1744    876   875   864    -1
 1745    879   934   877    -1
 1746    876   879   877    -1
 1747    879   818   881    -1
 1748    878   879   881    -1
 1749    935   934   879    -1
 1750    878   935   879    -1
 1751    881   884   878    -1
 1752    878   884   935    -1
 1753    819   890   885    -1
 1754    880   819   885    -1
 1755    881   818   880    -1
 1756    880   818   819    -1
 1757    885   884   881    -1
 1758    880   885   881    -1
 1759    885   890   883    -1
 1760    882   885   883    -1
 1761    886   884   885    -1
 1762    882   886   885    -1
 1763    883   891   882    -1
 1764    882   891   886    -1
 1765    887   825   888    -1
 1766    889   887   888    -1
 1767    883   890   889    -1
 1768    889   890   887    -1
 1769    888   891   883    -1
 1770    889   888   883    -1
 1771    888   825   892    -1
 1772    893   888   892    -1
 1773    911   891   888    -1
 1774    893   911   888    -1
 1775    892   919   893    -1
 1776    893   919   911    -1
 1777    895   901   902    -1
 1778    894   895   902    -1
 1779    896   751   894    -1
 1780    894   751   895    -1
 1781    902   923   896    -1
 1782    894   902   896    -1
 1783    830   906   897    -1
 1784    898   830   897    -1
 1785    892   825   898    -1
 1786    898   825   830    -1
 1787    897   919   892    -1
 1788    898   897   892    -1
 1789    897   906   907    -1
 1790    899   897   907    -1
 1791    921   919   897    -1
 1792    899   921   897    -1
 1793    907   918   921    -1
 1794    899   907   921    -1
 1795    833   831   900    -1
 1796    903   833   900    -1
 1797    902   901   833    -1
 1798    903   902   833    -1
 1799    900   923   902    -1
 1800    903   900   902    -1
 1801    904   997   905    -1
 1802    905   997   908    -1
 1803    907   906   904    -1
 1804    905   907   904    -1
 1805    908   918   907    -1
 1806    905   908   907    -1
 1807    842   838   910    -1
 1808    909   842   910    -1
 1809    993   831   909    -1
 1810    909   831   842    -1
 1811    910   992   993    -1
 1812    909   910   993    -1
 1813    911   919   916    -1
 1814    912   911   916    -1
 1815    914   891   912    -1
 1816    912   891   911    -1
 1817    916   913   914    -1
 1818    912   916   914    -1
 1819    916   919   920    -1
 1820    915   916   920    -1
 1821    128   130  1475    -1
 1822    304   365  1473    -1
 1823   1057  1058  1567    -1
 1824    685  1558  1565    -1
 1825    921   918   917    -1
 1826    917   918   922    -1
 1827    920   919   921    -1
 1828    917   920   921    -1
 1829    922   975   920    -1
 1830    917   922   920    -1
 1831    900   831   980    -1
 1832    924   900   980    -1
 1833   1006   923   924    -1
 1834    924   923   900    -1
 1835    980   982  1006    -1
 1836    924   980  1006    -1
 1837    871   848   928    -1
 1838    925   871   928    -1
 1839    926   992   925    -1
 1840    925   992   871    -1
 1841    928  1000   925    -1
 1842    925  1000   926    -1
 1843   1538  1553  1592    -1
 1844   1538  1173  1553    -1
 1845   1249  1478  1600    -1
 1846    749   748  1446    -1
 1847    929  1000   928    -1
 1848    927   929   928    -1
 1849    929   934   930    -1
 1850    932   929   930    -1
 1851    931  1000   929    -1
 1852    932   931   929    -1
 1853    930   933   932    -1
 1854    932   933   931    -1
 1855    935   884   936    -1
 1856    937   935   936    -1
 1857    930   934   937    -1
 1858    937   934   935    -1
 1859    936   933   930    -1
 1860    937   936   930    -1
 1861    936   884   939    -1
 1862    940   936   939    -1
 1863    938   933   936    -1
 1864    940   938   936    -1
 1865    939   944   940    -1
 1866    940   944   938    -1
 1867    886   891   942    -1
 1868    941   886   942    -1
 1869    939   884   941    -1
 1870    941   884   886    -1
 1871    942   944   939    -1
 1872    941   942   939    -1
 1873    942   891   914    -1
 1874    943   942   914    -1
 1875    945   944   942    -1
 1876    943   945   942    -1
 1877    914   913   943    -1
 1878    943   913   945    -1
 1879    946   751   948    -1
 1880    948   751   896    -1
 1881    947  1230   946    -1
 1882    948   947   946    -1
 1883    896   923   947    -1
 1884    948   896   947    -1
 1885    949   851   950    -1
 1886    950   851   951    -1
 1887    953   995   950    -1
 1888    950   995   949    -1
 1889    951   952   953    -1
 1890    950   951   953    -1
 1891    951   851   954    -1
 1892    956   951   954    -1
 1893    955   952   951    -1
 1894    956   955   951    -1
 1895    954  1142   956    -1
 1896    956  1142   955    -1
 1897    840   841  1470    -1
 1898    826   820  1493    -1
 1899    958  1000   957    -1
 1900    957  1000   931    -1
 1901    717   715  1463    -1
 1902    957   959   958    -1
 1903   1332  1334  1468    -1
 1904   1570   534  1575    -1
 1905   1531  1385  1551    -1
 1906   1555   555  1591    -1
 1907    966   962   961    -1
 1908    961   962  1034    -1
 1909    857   775   963    -1
 1910    964   857   963    -1
 1911    954   851   964    -1
 1912    964   851   857    -1
 1913    963  1142   954    -1
 1914    964   963   954    -1
 1915    938   944   967    -1
 1916    965   938   967    -1
 1917    966   933   965    -1
 1918    965   933   938    -1
 1919    967   962   966    -1
 1920    965   967   966    -1
 1921    967   944   968    -1
 1922    970   967   968    -1
 1923    969   962   967    -1
 1924    970   969   967    -1
 1925    968  1039   970    -1
 1926    970  1039   969    -1
 1927    945   913   971    -1
 1928    972   945   971    -1
 1929    968   944   972    -1
 1930    972   944   945    -1
 1931    971  1039   968    -1
 1932    972   971   968    -1
 1933    971   913   977    -1
 1934    973   971   977    -1
 1935    974  1039   971    -1
 1936    973   974   971    -1
 1937    977  1050   973    -1
 1938    973  1050   974    -1
 1939    976   975  1049    -1
 1940    978   976  1049    -1
 1941    977   913   978    -1
 1942    978   913   976    -1
 1943   1049  1050   977    -1
 1944    978  1049   977    -1
 1945    922   918   987    -1
 1946    979   922   987    -1
 1947   1011   975   922    -1
 1948    979  1011   922    -1
 1949    987  1019   979    -1
 1950    979  1019  1011    -1
 1951    980   831   981    -1
 1952    983   980   981    -1
 1953    984   982   980    -1
 1954    983   984   980    -1
 1955   1167  1168  1569    -1
 1956    501   518  1516    -1
 1957   1222  1299  1573    -1
 1958    518   501  1469    -1
 1959    987   918   985    -1
 1960    985   918   908    -1
 1961    976   915  1564    -1
 1962    985   986   987    -1
 1963    720   723  1465    -1
 1964    990   986   989    -1
 1965    915   920  1564    -1
 1966    491  1548  1566    -1
 1967    989  1028   990    -1
 1968    990  1028   988    -1
 1969    993   992   991    -1
 1970    991   992  1002    -1
 1971    981   831   993    -1
 1972    991   981   993    -1
 1973   1002   994   981    -1
 1974    991  1002   981    -1
 1975    846   995   998    -1
 1976    996   846   998    -1
 1977    989   997   996    -1
 1978    996   997   846    -1
 1979    998  1028   989    -1
 1980    996   998   989    -1
 1981    998   995   953    -1
 1982    999   998   953    -1
 1983   1027  1028   998    -1
 1984    999  1027   998    -1
 1985    953   952   999    -1
 1986    999   952  1027    -1
 1987    926  1000  1001    -1
 1988   1003   926  1001    -1
 1989   1002   992  1003    -1
 1990   1003   992   926    -1
 1991   1001   994  1002    -1
 1992   1003  1001  1002    -1
 1993   1001  1000   958    -1
 1994   1004  1001   958    -1
 1995   1031   994  1001    -1
 1996   1004  1031  1001    -1
 1997    958   960  1004    -1
 1998   1004   960  1031    -1
 1999   1006   982  1005    -1
 2000   1005   982  1008    -1
 2001   1007   923  1006    -1
 2002   1005  1007  1006    -1
 2003   1008  1171  1007    -1
 2004   1005  1008  1007    -1
 2005    688  1505  1584    -1
 2006   1460   959  1588    -1
 2007   1010   975  1009    -1
 2008   1009   975  1011    -1
 2009   1012  1055  1010    -1
 2010   1009  1012  1010    -1
 2011   1012  1019  1013    -1
 2012   1015  1012  1013    -1
 2013   1014  1055  1012    -1
 2014   1015  1014  1012    -1
 2015   1013  1086  1015    -1
 2016   1015  1086  1014    -1
 2017    984   994  1026    -1
 2018   1016   984  1026    -1
 2019   1017   982   984    -1
 2020   1016  1017   984    -1
 2021   1026  1127  1016    -1
 2022   1016  1127  1017    -1
 2023    988  1028  1020    -1
 2024   1018   988  1020    -1
 2025   1013  1019  1018    -1
 2026   1018  1019   988    -1
 2027   1020  1086  1013    -1
 2028   1018  1020  1013    -1
 2029   1020  1028  1021    -1
 2030   1022  1020  1021    -1
 2031   1023  1086  1020    -1
 2032   1022  1023  1020    -1
 2033   1021  1090  1022    -1
 2034   1022  1090  1023    -1
 2035   1026   994  1024    -1
 2036   1025  1026  1024    -1
 2037   1126  1127  1026    -1
 2038   1025  1126  1026    -1
 2039   1024  1136  1025    -1
 2040   1025  1136  1126    -1
 2041   1027   952  1029    -1
 2042   1030  1027  1029    -1
 2043   1021  1028  1030    -1
 2044   1030  1028  1027    -1
 2045   1029  1090  1021    -1
 2046   1030  1029  1021    -1
 2047   1031   960  1032    -1
 2048   1033  1031  1032    -1
 2049   1024   994  1031    -1
 2050   1033  1024  1031    -1
 2051   1269  1270  1559    -1
 2052   1525   286  1557    -1
 2053   1034   962  1037    -1
 2054   1035  1034  1037    -1
 2055   1056   960  1034    -1
 2056   1035  1056  1034    -1
 2057   1037  1041  1035    -1
 2058   1035  1041  1056    -1
 2059    969  1039  1038    -1
 2060   1036   969  1038    -1
 2061   1037   962  1036    -1
 2062   1036   962   969    -1
 2063   1038  1041  1037    -1
 2064   1036  1038  1037    -1
 2065   1038  1039  1040    -1
 2066   1043  1038  1040    -1
 2067   1042  1041  1038    -1
 2068   1043  1042  1038    -1
 2069   1040  1065  1043    -1
 2070   1043  1065  1042    -1
 2071    974  1050  1045    -1
 2072   1044   974  1045    -1
 2073   1040  1039  1044    -1
 2074   1044  1039   974    -1
 2075   1045  1065  1040    -1
 2076   1044  1045  1040    -1
 2077   1045  1050  1047    -1
 2078   1046  1045  1047    -1
 2079   1072  1065  1045    -1
 2080   1046  1072  1045    -1
 2081   1047  1052  1046    -1
 2082   1046  1052  1072    -1
 2083    947   923  1007    -1
 2084   1048   947  1007    -1
 2085   1183  1230  1048    -1
 2086   1048  1230   947    -1
 2087   1007  1171  1183    -1
 2088   1048  1007  1183    -1
 2089   1370  1368  1528    -1
 2090    617   570  1530    -1
 2091   1047  1050  1051    -1
 2092   1051  1050  1049    -1
 2093     24    26  1539    -1
 2094    569   580  1452    -1
 2095   1368  1367  1528    -1
 2096   1054  1053  1010    -1
 2097    344   341  1595    -1
 2098    154   162  1488    -1
 2099   1010  1055  1054    -1
 2100   1054  1055  1080    -1
 2101    887   890  1474    -1
 2102    916   915  1472    -1
 2103   1012  1009  1581    -1
 2104   1507   259  1568    -1
 2105   1059  1145  1058    -1
 2106   1057  1059  1058    -1
 2107   1059  1041  1067    -1
 2108   1060  1059  1067    -1
 2109   1061  1145  1059    -1
 2110   1060  1061  1059    -1
 2111   1067  1062  1060    -1
 2112   1060  1062  1061    -1
 2113    963   775  1064    -1
 2114   1064   775    76    -1
 2115   1151  1142   963    -1
 2116   1064  1151   963    -1
 2117     76  1063  1151    -1
 2118   1064    76  1151    -1
 2119   1042  1065  1068    -1
 2120   1066  1042  1068    -1
 2121   1067  1041  1066    -1
 2122   1066  1041  1042    -1
 2123   1068  1062  1067    -1
 2124   1066  1068  1067    -1
 2125   1068  1065  1073    -1
 2126   1071  1068  1073    -1
 2127   1069  1062  1068    -1
 2128   1071  1069  1068    -1
 2129   1073  1070  1071    -1
 2130   1071  1070  1069    -1
 2131   1072  1052  1075    -1
 2132   1074  1072  1075    -1
 2133   1073  1065  1074    -1
 2134   1074  1065  1072    -1
 2135   1075  1070  1073    -1
 2136   1074  1075  1073    -1
 2137   1075  1052  1078    -1
 2138   1077  1075  1078    -1
 2139   1159  1070  1075    -1
 2140   1077  1159  1075    -1
 2141   1078  1076  1077    -1
 2142   1077  1076  1159    -1
 2143   1080  1055  1081    -1
 2144   1079  1080  1081    -1
 2145   1078  1052  1079    -1
 2146   1079  1052  1080    -1
 2147   1081  1076  1078    -1
 2148   1079  1081  1078    -1
 2149   1081  1055  1084    -1
 2150   1083  1081  1084    -1
 2151   1082  1076  1081    -1
 2152   1083  1082  1081    -1
 2153   1084  1163  1083    -1
 2154   1083  1163  1082    -1
 2155   1014  1086  1088    -1
 2156   1085  1014  1088    -1
 2157   1084  1055  1085    -1
 2158   1085  1055  1014    -1
 2159   1088  1163  1084    -1
 2160   1085  1088  1084    -1
 2161   1088  1086  1087    -1
 2162   1089  1088  1087    -1
 2163   1109  1163  1088    -1
 2164   1089  1109  1088    -1
 2165   1087  1093  1089    -1
 2166   1089  1093  1109    -1
 2167   1023  1090  1092    -1
 2168   1091  1023  1092    -1
 2169   1087  1086  1091    -1
 2170   1091  1086  1023    -1
 2171   1092  1093  1087    -1
 2172   1091  1092  1087    -1
 2173   1092  1090  1094    -1
 2174   1095  1092  1094    -1
 2175   1120  1093  1092    -1
 2176   1095  1120  1092    -1
 2177   1094  1096  1095    -1
 2178   1095  1096  1120    -1
 2179   1029   952  1098    -1
 2180   1097  1029  1098    -1
 2181   1094  1090  1097    -1
 2182   1097  1090  1029    -1
 2183   1098  1096  1094    -1
 2184   1097  1098  1094    -1
 2185   1098   952  1106    -1
 2186   1100  1098  1106    -1
 2187   1099  1096  1098    -1
 2188   1100  1099  1098    -1
 2189   1106  1101  1100    -1
 2190   1100  1101  1099    -1
 2191   1032   960  1058    -1
 2192   1102  1032  1058    -1
 2193   1103  1136  1032    -1
 2194   1102  1103  1032    -1
 2195   1058  1145  1102    -1
 2196   1102  1145  1103    -1
 2197    955  1142  1104    -1
 2198   1105   955  1104    -1
 2199   1106   952  1105    -1
 2200   1105   952   955    -1
 2201   1104  1101  1106    -1
 2202   1105  1104  1106    -1
 2203   1109  1093  1108    -1
 2204   1107  1109  1108    -1
 2205   1168  1163  1107    -1
 2206   1107  1163  1109    -1
 2207   1108  1110  1168    -1
 2208   1107  1108  1168    -1
 2209   1108  1093  1122    -1
 2210   1113  1108  1122    -1
 2211   1111  1110  1108    -1
 2212   1113  1111  1108    -1
 2213   1122  1112  1113    -1
 2214   1113  1112  1111    -1
 2215   1017  1127  1114    -1
 2216   1114  1127  1116    -1
 2217    196  1507  1568    -1
 2218    621   620  1495    -1
 2219   1116  1191  1115    -1
 2220   1114  1116  1115    -1
 2221   1116  1127  1119    -1
 2222   1118  1116  1119    -1
 2223   1117  1191  1116    -1
 2224   1118  1117  1116    -1
 2225   1119  1214  1118    -1
 2226   1118  1214  1117    -1
 2227   1120  1096  1121    -1
 2228   1123  1120  1121    -1
 2229   1122  1093  1123    -1
 2230   1123  1093  1120    -1
 2231   1121  1112  1122    -1
 2232   1123  1121  1122    -1
 2233   1121  1096  1134    -1
 2234   1124  1121  1134    -1
 2235   1125  1112  1121    -1
 2236   1124  1125  1121    -1
 2237   1134  1194  1124    -1
 2238   1124  1194  1125    -1
 2239   1126  1136  1130    -1
 2240   1128  1126  1130    -1
 2241   1119  1127  1128    -1
 2242   1128  1127  1126    -1
 2243   1130  1214  1119    -1
 2244   1128  1130  1119    -1
 2245   1130  1136  1129    -1
 2246   1131  1130  1129    -1
 2247   1132  1214  1131    -1
 2248   1131  1214  1130    -1
 2249   1129  1197  1131    -1
 2250   1131  1197  1132    -1
 2251   1099  1101  1133    -1
 2252   1135  1099  1133    -1
 2253   1134  1096  1135    -1
 2254   1135  1096  1099    -1
 2255   1133  1194  1134    -1
 2256   1135  1133  1134    -1
 2257   1114  1115  1494    -1
 2258    412   402  1499    -1
 2259   1129  1136  1137    -1
 2260   1137  1136  1103    -1
 2261   1139  1197  1129    -1
 2262   1137  1139  1129    -1
 2263   1139  1145  1138    -1
 2264   1140  1139  1138    -1
 2265   1141  1197  1139    -1
 2266   1140  1141  1139    -1
 2267   1138  1147  1140    -1
 2268   1140  1147  1141    -1
 2269   1104  1142  1143    -1
 2270   1143  1142  1152    -1
 2271   1201  1101  1104    -1
 2272   1143  1201  1104    -1
 2273   1152  1293  1201    -1
 2274   1143  1152  1201    -1
 2275   1061  1062  1146    -1
 2276   1144  1061  1146    -1
 2277   1138  1145  1144    -1
 2278   1144  1145  1061    -1
 2279   1146  1147  1138    -1
 2280   1144  1146  1138    -1
 2281   1146  1062  1149    -1
 2282   1148  1146  1149    -1
 2283   1150  1147  1146    -1
 2284   1148  1150  1146    -1
 2285   1149  1206  1148    -1
 2286   1148  1206  1150    -1
 2287   1151  1063  1379    -1
 2288   1153  1151  1379    -1
 2289   1152  1142  1151    -1
 2290   1153  1152  1151    -1
 2291   1379  1293  1153    -1
 2292   1153  1293  1152    -1
 2293   1069  1070  1155    -1
 2294   1154  1069  1155    -1
 2295   1149  1062  1154    -1
 2296   1154  1062  1069    -1
 2297   1155  1206  1149    -1
 2298   1154  1155  1149    -1
 2299   1155  1070  1158    -1
 2300   1156  1155  1158    -1
 2301   1172  1206  1155    -1
 2302   1156  1172  1155    -1
 2303   1158  1180  1156    -1
 2304   1156  1180  1172    -1
 2305   1159  1076  1161    -1
 2306   1157  1159  1161    -1
 2307   1158  1070  1157    -1
 2308   1157  1070  1159    -1
 2309   1161  1180  1158    -1
 2310   1157  1161  1158    -1
 2311   1161  1076  1165    -1
 2312   1162  1161  1165    -1
 2313   1160  1180  1161    -1
 2314   1162  1160  1161    -1
 2315   1165  1188  1162    -1
 2316   1162  1188  1160    -1
 2317   1082  1163  1164    -1
 2318   1166  1082  1164    -1
 2319   1165  1076  1166    -1
 2320   1166  1076  1082    -1
 2321   1164  1188  1165    -1
 2322   1166  1164  1165    -1
 2323   1164  1163  1168    -1
 2324   1167  1164  1168    -1
 2325    290  1525  1557    -1
 2326   1467   966  1572    -1
 2327   1496  1570  1575    -1
 2328   1496   535  1570    -1
 2329   1008   982  1115    -1
 2330   1169  1008  1115    -1
 2331   1170  1171  1169    -1
 2332   1169  1171  1008    -1
 2333   1115  1191  1170    -1
 2334   1169  1115  1170    -1
 2335   1172  1180  1175    -1
 2336   1174  1172  1175    -1
 2337   1173  1206  1174    -1
 2338   1174  1206  1172    -1
 2339   1175  1207  1173    -1
 2340   1174  1175  1173    -1
 2341   1175  1180  1178    -1
 2342   1176  1175  1178    -1
 2343   1177  1207  1175    -1
 2344   1176  1177  1175    -1
 2345   1178  1223  1176    -1
 2346   1176  1223  1177    -1
 2347   1160  1188  1181    -1
 2348   1179  1160  1181    -1
 2349   1178  1180  1179    -1
 2350   1179  1180  1160    -1
 2351   1181  1223  1178    -1
 2352   1179  1181  1178    -1
 2353   1181  1188  1190    -1
 2354   1182  1181  1190    -1
 2355   1233  1223  1181    -1
 2356   1182  1233  1181    -1
 2357   1190  1241  1182    -1
 2358   1182  1241  1233    -1
 2359   1183  1171  1186    -1
 2360   1186  1171  1185    -1
 2361   1184  1230  1183    -1
 2362   1186  1184  1183    -1
 2363   1185  1265  1184    -1
 2364   1186  1185  1184    -1
 2365   1187  1110  1240    -1
 2366   1189  1187  1240    -1
 2367   1190  1188  1189    -1
 2368   1189  1188  1187    -1
 2369   1240  1241  1190    -1
 2370   1189  1240  1190    -1
 2371   1170  1191  1192    -1
 2372   1193  1170  1192    -1
 2373   1185  1171  1170    -1
 2374   1193  1185  1170    -1
 2375   1192  1265  1193    -1
 2376   1193  1265  1185    -1
 2377   1133  1101  1202    -1
 2378   1195  1133  1202    -1
 2379   1196  1194  1195    -1
 2380   1195  1194  1133    -1
 2381   1202  1295  1196    -1
 2382   1195  1202  1196    -1
 2383   1141  1147  1205    -1
 2384   1198  1141  1205    -1
 2385   1218  1197  1198    -1
 2386   1198  1197  1141    -1
 2387   1205  1289  1218    -1
 2388   1198  1205  1218    -1
 2389   1201  1293  1200    -1
 2390   1199  1201  1200    -1
 2391   1202  1101  1201    -1
 2392   1199  1202  1201    -1
 2393   1200  1295  1202    -1
 2394   1199  1200  1202    -1
 2395   1522  1506  1541    -1
 2396    748   749  1547    -1
 2397   1205  1147  1203    -1
 2398   1203  1147  1150    -1
 2399   1204  1289  1205    -1
 2400   1203  1204  1205    -1
 2401     25    24  1539    -1
 2402   1033  1032  1556    -1
 2403   1220  1289  1204    -1
 2404   1208  1220  1204    -1
 2405   1173  1207  1208    -1
 2406   1208  1207  1220    -1
 2407   1117  1214  1209    -1
 2408   1209  1214  1216    -1
 2409   1210  1191  1117    -1
 2410   1209  1210  1117    -1
 2411   1216  1287  1210    -1
 2412   1209  1216  1210    -1
 2413   1125  1194  1212    -1
 2414   1211  1125  1212    -1
 2415   1251  1112  1211    -1
 2416   1211  1112  1125    -1
 2417   1212  1340  1251    -1
 2418   1211  1212  1251    -1
 2419   1212  1194  1196    -1
 2420   1213  1212  1196    -1
 2421   1275  1340  1212    -1
 2422   1213  1275  1212    -1
 2423   1196  1295  1213    -1
 2424   1213  1295  1275    -1
 2425   1132  1197  1217    -1
 2426   1215  1132  1217    -1
 2427   1216  1214  1215    -1
 2428   1215  1214  1132    -1
 2429   1217  1287  1216    -1
 2430   1215  1217  1216    -1
 2431   1218  1289  1284    -1
 2432   1219  1218  1284    -1
 2433   1217  1197  1218    -1
 2434   1219  1217  1218    -1
 2435   1284  1287  1217    -1
 2436   1219  1284  1217    -1
 2437   1220  1207  1225    -1
 2438   1221  1220  1225    -1
 2439   1222  1289  1220    -1
 2440   1221  1222  1220    -1
 2441   1225  1298  1221    -1
 2442   1221  1298  1222    -1
 2443   1177  1223  1224    -1
 2444   1226  1177  1224    -1
 2445   1225  1207  1226    -1
 2446   1226  1207  1177    -1
 2447   1224  1298  1225    -1
 2448   1226  1224  1225    -1
 2449   1224  1223  1232    -1
 2450   1229  1224  1232    -1
 2451   1227  1298  1224    -1
 2452   1229  1227  1224    -1
 2453   1232  1228  1229    -1
 2454   1229  1228  1227    -1
 2455    868  1230  1231    -1
 2456   1231  1230  1238    -1
 2457     73   395   868    -1
 2458   1231    73   868    -1
 2459   1238    87    73    -1
 2460   1231  1238    73    -1
 2461   1233  1241  1235    -1
 2462   1234  1233  1235    -1
 2463   1232  1223  1234    -1
 2464   1234  1223  1233    -1
 2465   1235  1228  1232    -1
 2466   1234  1235  1232    -1
 2467   1235  1241  1242    -1
 2468   1236  1235  1242    -1
 2469   1237  1228  1235    -1
 2470   1236  1237  1235    -1
 2471   1242  1264  1236    -1
 2472   1236  1264  1237    -1
 2473   1184  1265  1326    -1
 2474   1239  1184  1326    -1
 2475   1238  1230  1184    -1
 2476   1239  1238  1184    -1
 2477   1326    87  1239    -1
 2478   1239    87  1238    -1
 2479   1240  1110  1244    -1
 2480   1243  1240  1244    -1
 2481   1242  1241  1243    -1
 2482   1243  1241  1240    -1
 2483   1244  1264  1242    -1
 2484   1243  1244  1242    -1
 2485   1244  1110  1248    -1
 2486   1245  1244  1248    -1
 2487   1246  1264  1245    -1
 2488   1245  1264  1244    -1
 2489   1248  1331  1245    -1
 2490   1245  1331  1246    -1
 2491   1111  1112  1247    -1
 2492    126  1448  1523    -1
 2493   1248  1110  1247    -1
 2494   1247  1110  1111    -1
 2495    734   731  1458    -1
 2496   1247  1249  1248    -1
 2497    311  1498  1605    -1
 2498   1250  1249  1251    -1
 2499    134   209  1456    -1
 2500    887  1474  1481    -1
 2501   1251  1340  1250    -1
 2502   1250  1340  1252    -1
 2503   1227  1228  1253    -1
 2504   1254  1227  1253    -1
 2505   1302  1298  1254    -1
 2506   1254  1298  1227    -1
 2507   1253  1311  1302    -1
 2508   1254  1253  1302    -1
 2509   1253  1228  1259    -1
 2510   1255  1253  1259    -1
 2511   1315  1311  1253    -1
 2512   1255  1315  1253    -1
 2513   1259  1256  1255    -1
 2514   1255  1256  1315    -1
 2515   1341  1342  1603    -1
 2516   1257  1237  1258    -1
 2517   1259  1228  1257    -1
 2518   1257  1228  1237    -1
 2519   1258  1256  1259    -1
 2520   1257  1258  1259    -1
 2521   1342  1334  1602    -1
 2522   1334  1332  1602    -1
 2523   1322  1256  1258    -1
 2524   1260  1322  1258    -1
 2525   1263  1328  1260    -1
 2526   1260  1328  1322    -1
 2527   1246  1331  1262    -1
 2528   1261  1246  1262    -1
 2529   1263  1264  1261    -1
 2530   1261  1264  1246    -1
 2531   1262  1328  1263    -1
 2532   1261  1262  1263    -1
 2533   1192  1191  1268    -1
 2534   1267  1192  1268    -1
 2535   1335  1265  1192    -1
 2536   1267  1335  1192    -1
 2537   1268  1266  1335    -1
 2538   1267  1268  1335    -1
 2539   1210  1287  1270    -1
 2540   1269  1210  1270    -1
 2541   1268  1191  1210    -1
 2542   1269  1268  1210    -1
 2543   1375  1561  1562    -1
 2544    191   123  1560    -1
 2545   1270  1287  1271    -1
 2546   1273  1270  1271    -1
 2547   1272  1266  1270    -1
 2548   1273  1272  1270    -1
 2549   1271  1274  1273    -1
 2550   1273  1274  1272    -1
 2551   1275  1295  1278    -1
 2552   1276  1275  1278    -1
 2553   1277  1340  1275    -1
 2554   1276  1277  1275    -1
 2555   1278  1389  1277    -1
 2556   1276  1278  1277    -1
 2557   1271  1287  1288    -1
 2558   1280  1271  1288    -1
 2559   1279  1274  1271    -1
 2560   1280  1279  1271    -1
 2561   1288  1281  1280    -1
 2562   1280  1281  1279    -1
 2563   1278  1295  1296    -1
 2564   1282  1278  1296    -1
 2565   1283  1389  1278    -1
 2566   1282  1283  1278    -1
 2567   1296  1393  1282    -1
 2568   1282  1393  1283    -1
 2569    697   695  1509    -1
 2570    410   475  1511    -1
 2571   1288  1287  1285    -1
 2572   1285  1287  1284    -1
 2573   1286  1281  1288    -1
 2574   1285  1286  1288    -1
 2575   1150  1538  1544    -1
 2576    705   697  1509    -1
 2577   1291  1281  1286    -1
 2578   1292  1291  1286    -1
 2579   1290  1308  1292    -1
 2580   1292  1308  1291    -1
 2581   1200  1293  1294    -1
 2582   1297  1200  1294    -1
 2583   1296  1295  1200    -1
 2584   1297  1296  1200    -1
 2585   1294  1393  1296    -1
 2586   1297  1294  1296    -1
 2587     84    85  1486    -1
 2588   1268  1269  1559    -1
 2589    520   513  1576    -1
 2590   1467  1572  1574    -1
 2591   1300  1308  1290    -1
 2592   1299  1300  1290    -1
 2593   1300  1298  1302    -1
 2594   1301  1300  1302    -1
 2595   1303  1308  1300    -1
 2596   1301  1303  1300    -1
 2597   1302  1311  1301    -1
 2598   1301  1311  1303    -1
 2599   1277  1389  1304    -1
 2600   1304  1389  1436    -1
 2601   1345  1340  1277    -1
 2602   1304  1345  1277    -1
 2603   1436  1347  1345    -1
 2604   1304  1436  1345    -1
 2605   1291  1308  1305    -1
 2606   1306  1291  1305    -1
 2607   1370  1281  1291    -1
 2608   1306  1370  1291    -1
 2609   1305  1309  1306    -1
 2610   1306  1309  1370    -1
 2611   1303  1311  1310    -1
 2612   1307  1303  1310    -1
 2613   1305  1308  1307    -1
 2614   1307  1308  1303    -1
 2615   1310  1309  1305    -1
 2616   1307  1310  1305    -1
 2617   1310  1311  1317    -1
 2618   1312  1310  1317    -1
 2619   1314  1309  1310    -1
 2620   1312  1314  1310    -1
 2621   1317  1313  1312    -1
 2622   1312  1313  1314    -1
 2623   1315  1256  1319    -1
 2624   1316  1315  1319    -1
 2625   1317  1311  1316    -1
 2626   1316  1311  1315    -1
 2627   1319  1313  1317    -1
 2628   1316  1319  1317    -1
 2629   1319  1256  1320    -1
 2630   1318  1319  1320    -1
 2631   1383  1313  1319    -1
 2632   1318  1383  1319    -1
 2633   1320  1323  1318    -1
 2634   1318  1323  1383    -1
 2635   1322  1328  1324    -1
 2636   1321  1322  1324    -1
 2637   1320  1256  1321    -1
 2638   1321  1256  1322    -1
 2639   1324  1323  1320    -1
 2640   1321  1324  1320    -1
 2641   1324  1328  1330    -1
 2642   1325  1324  1330    -1
 2643   1351  1323  1324    -1
 2644   1325  1351  1324    -1
 2645   1330  1352  1325    -1
 2646   1325  1352  1351    -1
 2647   1326  1265  1337    -1
 2648   1327  1326  1337    -1
 2649     25    87  1326    -1
 2650   1327    25  1326    -1
 2651   1337    36  1327    -1
 2652   1327    36    25    -1
 2653    198   201  1604    -1
 2654   1329  1262  1332    -1
 2655   1330  1328  1329    -1
 2656   1329  1328  1262    -1
 2657   1057  1056  1471    -1
 2658    300   290  1480    -1
 2659   1342  1602  1603    -1
 2660   1498  1492  1605    -1
 2661   1333  1352  1334    -1
 2662    529   518  1469    -1
 2663   1342  1343  1334    -1
 2664   1334  1343  1333    -1
 2665   1335  1266  1338    -1
 2666   1336  1335  1338    -1
 2667    209   200  1456    -1
 2668    339   338  1454    -1
 2669   1338    36  1337    -1
 2670   1336  1338  1337    -1
 2671   1338  1266  1348    -1
 2672   1339  1338  1348    -1
 2673   1419    36  1338    -1
 2674   1339  1419  1338    -1
 2675   1348  1358  1339    -1
 2676   1339  1358  1419    -1
 2677   1252  1340  1341    -1
 2678   1341  1340  1344    -1
 2679    201  1521  1604    -1
 2680   1341  1331  1252    -1
 2681   1344  1343  1342    -1
 2682   1341  1344  1342    -1
 2683   1344  1340  1345    -1
 2684   1346  1344  1345    -1
 2685   1421  1343  1344    -1
 2686   1346  1421  1344    -1
 2687   1345  1347  1346    -1
 2688   1346  1347  1421    -1
 2689   1272  1274  1360    -1
 2690   1349  1272  1360    -1
 2691   1348  1266  1349    -1
 2692   1349  1266  1272    -1
 2693   1360  1358  1348    -1
 2694   1349  1360  1348    -1
 2695   1351  1352  1355    -1
 2696   1350  1351  1355    -1
 2697   1386  1323  1350    -1
 2698   1350  1323  1351    -1
 2699   1355  1354  1386    -1
 2700   1350  1355  1386    -1
 2701   1355  1352  1356    -1
 2702   1353  1355  1356    -1
 2703   1414  1354  1353    -1
 2704   1353  1354  1355    -1
 2705   1356    21  1414    -1
 2706   1353  1356  1414    -1
 2707   1333  1343  1357    -1
 2708   1357  1343  1417    -1
 2709   1356  1352  1333    -1
 2710   1357  1356  1333    -1
 2711   1417    21  1356    -1
 2712   1357  1417  1356    -1
 2713   1360  1274  1363    -1
 2714   1361  1360  1363    -1
 2715   1359  1358  1360    -1
 2716   1361  1359  1360    -1
 2717   1363  1427  1361    -1
 2718   1361  1427  1359    -1
 2719   1279  1281  1364    -1
 2720   1362  1279  1364    -1
 2721   1363  1274  1362    -1
 2722   1362  1274  1279    -1
 2723   1364  1427  1363    -1
 2724   1362  1364  1363    -1
 2725   1364  1281  1367    -1
 2726   1366  1364  1367    -1
 2727   1365  1427  1364    -1
 2728   1366  1365  1364    -1
 2729   1367  1400  1366    -1
 2730   1366  1400  1365    -1
 2731   1370  1309  1369    -1
 2732   1368  1370  1369    -1
 2733    929   927  1552    -1
 2734    451   448  1529    -1
 2735   1369  1400  1367    -1
 2736   1368  1369  1367    -1
 2737   1369  1309  1371    -1
 2738   1372  1369  1371    -1
 2739   1401  1400  1369    -1
 2740   1372  1401  1369    -1
 2741   1371  1398  1372    -1
 2742   1372  1398  1401    -1
 2743   1294  1293  1381    -1
 2744   1373  1294  1381    -1
 2745   1403  1393  1373    -1
 2746   1373  1393  1294    -1
 2747   1381  1382  1403    -1
 2748   1373  1381  1403    -1
 2749    713  1465  1534    -1
 2750    987   986  1563    -1
 2751   1371  1309  1374    -1
 2752   1374  1309  1314    -1
 2753    580   579  1452    -1
 2754   1374  1375  1371    -1
 2755   1513   820  1532    -1
 2756   1550  1461  1554    -1
 2757    579   568  1452    -1
 2758    338   337  1454    -1
 2759   1385  1377  1376    -1
 2760   1376  1377  1378    -1
 2761   1379  1063  1380    -1
 2762   1380  1063    68    -1
 2763   1381  1293  1379    -1
 2764   1380  1381  1379    -1
 2765     68  1382  1381    -1
 2766   1380    68  1381    -1
 2767   1383  1323  1387    -1
 2768   1384  1383  1387    -1
 2769   1385  1313  1384    -1
 2770   1384  1313  1383    -1
 2771   1387  1377  1385    -1
 2772   1384  1387  1385    -1
 2773   1387  1323  1386    -1
 2774   1388  1387  1386    -1
 2775   1408  1377  1387    -1
 2776   1388  1408  1387    -1
 2777   1386  1354  1388    -1
 2778   1388  1354  1408    -1
 2779   1283  1393  1395    -1
 2780   1390  1283  1395    -1
 2781   1392  1389  1390    -1
 2782   1390  1389  1283    -1
 2783   1395  1391  1392    -1
 2784   1390  1395  1392    -1
 2785   1395  1393  1394    -1
 2786   1396  1395  1394    -1
 2787   1397  1391  1395    -1
 2788   1396  1397  1395    -1
 2789   1394    52  1396    -1
 2790   1396    52  1397    -1
 2791   1401  1398     9    -1
 2792   1399  1401     9    -1
 2793   1402  1400  1399    -1
 2794   1399  1400  1401    -1
 2795      9  1442  1402    -1
 2796   1399     9  1402    -1
 2797   1403  1382    63    -1
 2798   1404  1403    63    -1
 2799   1394  1393  1403    -1
 2800   1404  1394  1403    -1
 2801     63    52  1404    -1
 2802   1404    52  1394    -1
 2803   1378  1377  1405    -1
 2804   1406  1378  1405    -1
 2805   1407  1398  1378    -1
 2806   1406  1407  1378    -1
 2807   1405    18  1407    -1
 2808   1406  1405  1407    -1
 2809   1408  1354  1410    -1
 2810   1409  1408  1410    -1
 2811   1405  1377  1409    -1
 2812   1409  1377  1408    -1
 2813   1410    18  1405    -1
 2814   1409  1410  1405    -1
 2815   1410  1354  1411    -1
 2816   1412  1410  1411    -1
 2817   1413    18  1412    -1
 2818   1412    18  1410    -1
 2819   1411    22  1413    -1
 2820   1412  1411  1413    -1
 2821   1414    21  1415    -1
 2822   1415    21  1416    -1
 2823   1411  1354  1414    -1
 2824   1415  1411  1414    -1
 2825   1416    22  1411    -1
 2826   1415  1416  1411    -1
 2827   1417  1343  1424    -1
 2828   1418  1417  1424    -1
 2829     28    21  1418    -1
 2830   1418    21  1417    -1
 2831   1424  1423  1418    -1
 2832   1418  1423    28    -1
 2833   1419  1358  1429    -1
 2834   1420  1419  1429    -1
 2835     34    36  1419    -1
 2836   1420    34  1419    -1
 2837   1429  1428  1420    -1
 2838   1420  1428    34    -1
 2839   1421  1347  1425    -1
 2840   1422  1421  1425    -1
 2841   1424  1343  1422    -1
 2842   1422  1343  1421    -1
 2843   1425  1423  1424    -1
 2844   1422  1425  1424    -1
 2845   1425  1347  1437    -1
 2846   1426  1425  1437    -1
 2847     41  1423  1425    -1
 2848   1426    41  1425    -1
 2849   1437  1391  1426    -1
 2850   1426  1391    41    -1
 2851   1359  1427  1431    -1
 2852   1430  1359  1431    -1
 2853   1429  1358  1430    -1
 2854   1430  1358  1359    -1
 2855   1431  1428  1429    -1
 2856   1430  1431  1429    -1
 2857   1431  1427  1439    -1
 2858   1434  1431  1439    -1
 2859   1432  1428  1431    -1
 2860   1434  1432  1431    -1
 2861   1439  1433  1434    -1
 2862   1434  1433  1432    -1
 2863   1436  1389  1392    -1
 2864   1435  1436  1392    -1
 2865   1437  1347  1435    -1
 2866   1435  1347  1436    -1
 2867   1392  1391  1437    -1
 2868   1435  1392  1437    -1
 2869   1365  1400  1440    -1
 2870   1438  1365  1440    -1
 2871   1439  1427  1438    -1
 2872   1438  1427  1365    -1
 2873   1440  1433  1439    -1
 2874   1438  1440  1439    -1
 2875   1440  1400  1402    -1
 2876   1441  1440  1402    -1
 2877      3  1433  1440    -1
 2878   1441     3  1440    -1
 2879   1402  1442  1441    -1
 2880   1441  1442     3    -1
 2881    927   928  1445    -1
 2882    627   626  1443    -1
 2883    626   625  1443    -1
 2884    448   441  1444    -1
 2885    615   627  1443    -1
 2886    625   615  1443    -1
 2887    436   385  1444    -1
 2888    441   436  1444    -1
 2889    848   872  1445    -1
 2890    928   848  1445    -1
 2891    759   749  1446    -1
 2892    750   759  1446    -1
 2893   1378  1398  1451    -1
 2894   1052  1047  1447    -1
 2895    126   131  1448    -1
 2896    482   553  1524    -1
 2897   1398  1407  1449    -1
 2898      7  1398  1449    -1
 2899   1047  1051  1450    -1
 2900   1051  1053  1450    -1
 2901   1398  1371  1451    -1
 2902   1375  1376  1451    -1
 2903   1376  1378  1451    -1
 2904    568   569  1452    -1
 2905   1265  1335  1453    -1
 2906   1337  1265  1453    -1
 2907    336   339  1454    -1
 2908    337   336  1454    -1
 2909   1521  1501  1604    -1
 2910   1331  1248  1455    -1
 2911    786   787  1596    -1
 2912    739   740  1597    -1
 2913    488   491  1457    -1
 2914    580   488  1457    -1
 2915    727   636  1458    -1
 2916    731   729  1458    -1
 2917    729   727  1458    -1
 2918    478   473  1459    -1
 2919    958   959  1460    -1
 2920    960   958  1460    -1
 2921   1463   716  1546    -1
 2922    676   655  1461    -1
 2923   1053  1054  1462    -1
 2924   1054  1080  1462    -1
 2925    711   716  1463    -1
 2926    715   711  1463    -1
 2927    908   997  1464    -1
 2928    933   966  1467    -1
 2929    713   720  1465    -1
 2930   1530   562  1535    -1
 2931    986   985  1466    -1
 2932    985   908  1466    -1
 2933    931   933  1467    -1
 2934   1139  1137  1491    -1
 2935   1263  1260  1601    -1
 2936   1352  1330  1468    -1
 2937    431   529  1469    -1
 2938    501   431  1469    -1
 2939    765   780  1470    -1
 2940    688   658  1578    -1
 2941   1041  1059  1471    -1
 2942   1056  1041  1471    -1
 2943    913   916  1472    -1
 2944    976   913  1472    -1
 2945    303   304  1473    -1
 2946   1585  1473  1586    -1
 2947    637   620  1514    -1
 2948    890   822  1474    -1
 2949   1456   200  1594    -1
 2950    130   129  1475    -1
 2951     41  1391  1476    -1
 2952     44    43  1476    -1
 2953     43    41  1476    -1
 2954   1329  1332  1477    -1
 2955   1249  1250  1478    -1
 2956   1250  1252  1478    -1
 2957    690   700  1479    -1
 2958    787   690  1479    -1
 2959    288   268  1480    -1
 2960    100    84  1486    -1
 2961    820   824  1481    -1
 2962    824   887  1481    -1
 2963    117   121  1482    -1
 2964    120   117  1482    -1
 2965   1298  1300  1483    -1
 2966   1222  1298  1483    -1
 2967    780   686  1484    -1
 2968    290   287  1485    -1
 2969    287   288  1485    -1
 2970    154   100  1486    -1
 2971     85   154  1486    -1
 2972    723   718  1487    -1
 2973    718   716  1487    -1
 2974    102   154  1488    -1
 2975    156   155  1488    -1
 2976    155   102  1488    -1
 2977    628   606  1489    -1
 2978    959   957  1490    -1
 2979    957   931  1490    -1
 2980   1145  1139  1491    -1
 2981   1103  1145  1491    -1
 2982    304   308  1492    -1
 2983    821   759  1493    -1
 2984   1112  1251  1520    -1
 2985    982  1017  1494    -1
 2986   1115   982  1494    -1
 2987    640   621  1495    -1
 2988    637   640  1495    -1
 2989    532   463  1496    -1
 2990   1164  1167  1542    -1
 2991    686   687  1497    -1
 2992    687   685  1497    -1
 2993    311   310  1498    -1
 2994    310   368  1498    -1
 2995    493   412  1499    -1
 2996    401   493  1499    -1
 2997    534   531  1500    -1
 2998    531   532  1500    -1
 2999    322   198  1501    -1
 3000    491   490  1502    -1
 3001    490   489  1502    -1
 3002    541   543  1503    -1
 3003   1503   556  1555    -1
 3004    416   423  1504    -1
 3005    417   416  1504    -1
 3006    688   689  1505    -1
 3007    568  1582  1587    -1
 3008   1505   685  1584    -1
 3009    741   728  1506    -1
 3010    196   194  1507    -1
 3011   1187  1167  1569    -1
 3012   1290  1292  1508    -1
 3013   1292  1286  1508    -1
 3014   1286  1285  1508    -1
 3015   1285  1284  1508    -1
 3016    728   729  1510    -1
 3017    729   731  1510    -1
 3018   1474   822  1513    -1
 3019    475   407  1511    -1
 3020    407   406  1512    -1
 3021    406   408  1512    -1
 3022    822   823  1513    -1
 3023    823   820  1513    -1
 3024    636   637  1514    -1
 3025    623   636  1514    -1
 3026    994   984  1515    -1
 3027    981   994  1515    -1
 3028    588   501  1516    -1
 3029    590   588  1516    -1
 3030     18    12  1517    -1
 3031   1407    18  1517    -1
 3032    487   493  1518    -1
 3033   1448   131  1594    -1
 3034    820   823  1519    -1
 3035    823   821  1519    -1
 3036   1247  1112  1520    -1
 3037   1249  1247  1520    -1
 3038    201   199  1521    -1
 3039    199   282  1521    -1
 3040    731   730  1522    -1
 3041    730   732  1522    -1
 3042    201   197  1523    -1
 3043    197   126  1523    -1
 3044    574   482  1524    -1
 3045    575   574  1524    -1
 3046   1548  1518  1566    -1
 3047    289   286  1525    -1
 3048      4    49  1526    -1
 3049      2     4  1526    -1
 3050   1049   975  1527    -1
 3051   1053  1051  1527    -1
 3052   1051  1049  1527    -1
 3053   1367  1281  1528    -1
 3054    447   451  1529    -1
 3055    385   447  1529    -1
 3056   1053  1462  1536    -1
 3057    570   562  1530    -1
 3058   1314  1313  1531    -1
 3059   1561  1531  1562    -1
 3060    820  1481  1532    -1
 3061   1481  1474  1532    -1
 3062    841   832  1533    -1
 3063    832   765  1533    -1
 3064    716   714  1534    -1
 3065    714   713  1534    -1
 3066    562   571  1535    -1
 3067    571   568  1535    -1
 3068   1450  1053  1536    -1
 3069   1447  1450  1536    -1
 3070    365   367  1537    -1
 3071    367   366  1537    -1
 3072   1150  1206  1538    -1
 3073   1461   655  1545    -1
 3074     87    25  1539    -1
 3075     26    87  1539    -1
 3076     42    44  1540    -1
 3077     33    42  1540    -1
 3078   1510   731  1541    -1
 3079   1506  1510  1541    -1
 3080   1188  1164  1542    -1
 3081   1187  1188  1542    -1
 3082    533   534  1543    -1
 3083    597   533  1543    -1
 3084   1204  1203  1544    -1
 3085   1203  1150  1544    -1
 3086    655   660  1545    -1
 3087    660   661  1545    -1
 3088    716   718  1546    -1
 3089    718   717  1546    -1
 3090    811   746  1547    -1
 3091    749   811  1547    -1
 3092    491   485  1548    -1
 3093    485   487  1548    -1
 3094    555   554  1549    -1
 3095    554   541  1549    -1
 3096    661   662  1550    -1
 3097    662   663  1550    -1
 3098   1385  1376  1551    -1
 3099   1376  1375  1551    -1
 3100    934   929  1552    -1
 3101    872   934  1552    -1
 3102   1173  1208  1553    -1
 3103   1208  1204  1553    -1
 3104   1545   661  1554    -1
 3105   1461  1545  1554    -1
 3106    556   557  1555    -1
 3107    557   555  1555    -1
 3108   1136  1024  1556    -1
 3109   1032  1136  1556    -1
 3110    286   287  1557    -1
 3111    287   290  1557    -1
 3112    685   691  1558    -1
 3113    691   781  1558    -1
 3114   1266  1268  1559    -1
 3115   1270  1266  1559    -1
 3116    341   251  1595    -1
 3117    251   342  1595    -1
 3118   1375  1374  1561    -1
 3119   1374  1314  1561    -1
 3120   1531  1551  1562    -1
 3121   1551  1375  1562    -1
 3122   1019   987  1563    -1
 3123    986   990  1563    -1
 3124    990   988  1563    -1
 3125    920   975  1564    -1
 3126   1497   685  1565    -1
 3127   1484  1497  1565    -1
 3128   1518   496  1566    -1
 3129    496   491  1566    -1
 3130    960  1056  1567    -1
 3131   1058   960  1567    -1
 3132    259   260  1568    -1
 3133    260   196  1568    -1
 3134   1110  1187  1569    -1
 3135   1168  1110  1569    -1
 3136    535   537  1570    -1
 3137    537   534  1570    -1
 3138    534   537  1571    -1
 3139    537   536  1571    -1
 3140    966   961  1572    -1
 3141    961   959  1572    -1
 3142   1289  1222  1573    -1
 3143   1290  1289  1573    -1
 3144   1490  1467  1574    -1
 3145    959  1490  1574    -1
 3146   1500  1496  1575    -1
 3147    534  1500  1575    -1
 3148    408  1583  1590    -1
 3149    513   506  1576    -1
 3150   1465  1487  1577    -1
 3151   1487   716  1577    -1
 3152    689   688  1578    -1
 3153    657   689  1578    -1
 3154    506   505  1579    -1
 3155    505   508  1579    -1
 3156    508   507  1580    -1
 3157    507   520  1580    -1
 3158   1019  1012  1581    -1
 3159   1011  1019  1581    -1
 3160    568   572  1582    -1
 3161    572   617  1582    -1
 3162    408   411  1583    -1
 3163    411   410  1583    -1
 3164    685   687  1584    -1
 3165    687   688  1584    -1
 3166    366   364  1585    -1
 3167    364   303  1585    -1
 3168   1473  1537  1586    -1
 3169   1537   366  1586    -1
 3170   1535   568  1587    -1
 3171   1530  1535  1587    -1
 3172    959   961  1588    -1
 3173    961  1034  1588    -1
 3174   1579   508  1589    -1
 3175   1576  1579  1589    -1
 3176   1512   408  1590    -1
 3177   1511  1512  1590    -1
 3178   1549  1503  1591    -1
 3179    555  1549  1591    -1
 3180   1544  1538  1592    -1
 3181   1204  1544  1592    -1
 3182   1560   127  1593    -1
 3183   1331  1341  1603    -1
 3184    198   322   187    -1
 3185    131   134  1594    -1
 3186    134  1456  1594    -1
 3187    342   353  1595    -1
 3188    353   344  1595    -1
 3189    703   786  1596    -1
 3190    804   776  1597    -1
 3191    201  1523  1599    -1
 3192   1248  1249  1600    -1
 3193    804  1597  1598    -1
 3194    805   804  1598    -1
 3195   1594   200  1599    -1
 3196   1448  1594  1599    -1
 3197   1455  1248  1600    -1
 3198   1264  1263  1601    -1
 3199   1237  1264  1601    -1
 3200   1258  1237  1601    -1
 3201   1332  1262  1602    -1
 3202   1262  1331  1603    -1
 3203   1602  1262  1603    -1
 3204   1501   198  1604    -1
 3205    308   311  1605    -1
 3206   1492   308  1605    -1
# Generated by C:\CCH\Projects\github-software\tetgen1.5.1\build\Release\tetgen.exe -p -q C:\CCH\3dModel\sphere1.5k.stl 
